<svg width="40" height="40" viewBox="0 0 40 40" fill="none" xmlns="http://www.w3.org/2000/svg">
<path d="M33.4164 17.7166L25.6331 14.3666L23.8998 13.6333C23.6331 13.4999 23.3998 13.1499 23.3998 12.8499V7.74994C23.3998 6.14994 22.2164 4.24993 20.7831 3.5166C20.2831 3.2666 19.6831 3.2666 19.1831 3.5166C17.7664 4.24993 16.5831 6.1666 16.5831 7.7666V12.8666C16.5831 13.1666 16.3498 13.5166 16.0831 13.6499L6.58311 17.7333C5.53311 18.1666 4.68311 19.4833 4.68311 20.6166V22.8166C4.68311 24.2333 5.74977 24.9333 7.06644 24.3666L15.4164 20.7666C16.0664 20.4833 16.5998 20.8333 16.5998 21.5499V23.3999V26.3999C16.5998 26.7833 16.3831 27.3333 16.1164 27.5999L12.2498 31.4833C11.8498 31.8833 11.6664 32.6666 11.8498 33.2333L12.5998 35.4999C12.8998 36.4833 14.0164 36.9499 14.9331 36.4833L18.8998 33.1499C19.4998 32.6333 20.4831 32.6333 21.0831 33.1499L25.0498 36.4833C25.9664 36.9333 27.0831 36.4833 27.4164 35.4999L28.1664 33.2333C28.3498 32.6833 28.1664 31.8833 27.7664 31.4833L23.8998 27.5999C23.6164 27.3333 23.3998 26.7833 23.3998 26.3999V21.5499C23.3998 20.8333 23.9164 20.4999 24.5831 20.7666L32.9331 24.3666C34.2498 24.9333 35.3164 24.2333 35.3164 22.8166V20.6166C35.3164 19.4833 34.4664 18.1666 33.4164 17.7166Z" fill="#0066FF"/>
</svg>
