<svg width="32" height="32" viewBox="0 0 32 32" fill="none" xmlns="http://www.w3.org/2000/svg">
<path d="M5.3335 17.9997V25.1997C5.3335 27.4663 7.18683 29.333 9.46683 29.333H22.5335C24.8002 29.333 26.6668 27.4797 26.6668 25.1997V17.9997C26.6668 17.6263 26.3735 17.333 26.0002 17.333H6.00016C5.62683 17.333 5.3335 17.6263 5.3335 17.9997ZM11.8402 24.5063C11.5335 24.8263 11.1068 24.9997 10.6668 24.9997C10.5602 24.9997 10.4535 24.9863 10.3468 24.973C10.2402 24.9463 10.1335 24.9197 10.0268 24.8663C9.9335 24.8263 9.82683 24.773 9.74683 24.7197C9.6535 24.653 9.56016 24.5863 9.4935 24.5063C9.1735 24.1997 9.00016 23.773 9.00016 23.333C9.00016 22.893 9.1735 22.4663 9.4935 22.1597C9.56016 22.0797 9.6535 22.013 9.74683 21.9463C9.82683 21.893 9.9335 21.8397 10.0268 21.7997C10.1335 21.7463 10.2402 21.7197 10.3468 21.693C10.8802 21.5863 11.4535 21.773 11.8402 22.1597C12.1602 22.4663 12.3335 22.893 12.3335 23.333C12.3335 23.773 12.1602 24.1997 11.8402 24.5063ZM22.5068 24.5063C22.4402 24.5863 22.3468 24.653 22.2535 24.7197C22.1735 24.773 22.0668 24.8263 21.9735 24.8663C21.8668 24.9197 21.7602 24.9463 21.6668 24.973C21.5468 24.9863 21.4402 24.9997 21.3335 24.9997C21.2268 24.9997 21.1202 24.9863 21.0135 24.973C20.9068 24.9463 20.8002 24.9197 20.6935 24.8663C20.6002 24.8263 20.4935 24.773 20.4135 24.7197C20.3202 24.653 20.2268 24.5863 20.1602 24.5063C19.8402 24.1997 19.6668 23.773 19.6668 23.333C19.6668 22.893 19.8402 22.4663 20.1602 22.1597C20.2268 22.0797 20.3202 22.013 20.4135 21.9463C20.4935 21.893 20.6002 21.8397 20.6935 21.7997C20.8002 21.7463 20.9068 21.7197 21.0135 21.693C21.2268 21.653 21.4402 21.653 21.6668 21.693C21.7602 21.7197 21.8668 21.7463 21.9735 21.7997C22.0668 21.8397 22.1735 21.893 22.2535 21.9463C22.3468 22.013 22.4402 22.0797 22.5068 22.1597C22.8268 22.4663 23.0002 22.893 23.0002 23.333C23.0002 23.773 22.8268 24.1997 22.5068 24.5063Z" fill="#3D3D3D"/>
<path d="M22.5335 2.66699H9.46683C7.18683 2.66699 5.3335 4.52033 5.3335 6.80033V10.0003C5.3335 10.3737 5.62683 10.667 6.00016 10.667H26.0002C26.3735 10.667 26.6668 10.3737 26.6668 10.0003V6.80033C26.6668 4.52033 24.8135 2.66699 22.5335 2.66699ZM19.3335 7.66699H12.6668C12.1202 7.66699 11.6668 7.21366 11.6668 6.66699C11.6668 6.12033 12.1202 5.66699 12.6668 5.66699H19.3335C19.8802 5.66699 20.3335 6.12033 20.3335 6.66699C20.3335 7.21366 19.8802 7.66699 19.3335 7.66699Z" fill="#3D3D3D"/>
<path d="M26.0002 16H6.00016C5.62683 16 5.3335 15.7067 5.3335 15.3333V12.6667C5.3335 12.2933 5.62683 12 6.00016 12H26.0002C26.3735 12 26.6668 12.2933 26.6668 12.6667V15.3333C26.6668 15.7067 26.3735 16 26.0002 16Z" fill="#3D3D3D"/>
</svg>
