<svg width="25" height="25" viewBox="0 0 25 25" fill="none" xmlns="http://www.w3.org/2000/svg">
<g id="call">
<g id="vuesax/bold/call">
<g id="call_2">
<path id="Vector" d="M12.0109 15.45L10.1609 17.3C9.77094 17.69 9.15094 17.69 8.75094 17.31C8.64094 17.2 8.53094 17.1 8.42094 16.99C7.39094 15.95 6.46094 14.86 5.63094 13.72C4.81094 12.58 4.15094 11.44 3.67094 10.31C3.20094 9.17 2.96094 8.08 2.96094 7.04C2.96094 6.36 3.08094 5.71 3.32094 5.11C3.56094 4.5 3.94094 3.94 4.47094 3.44C5.11094 2.81 5.81094 2.5 6.55094 2.5C6.83094 2.5 7.11094 2.56 7.36094 2.68C7.62094 2.8 7.85094 2.98 8.03094 3.24L10.3509 6.51C10.5309 6.76 10.6609 6.99 10.7509 7.21C10.8409 7.42 10.8909 7.63 10.8909 7.82C10.8909 8.06 10.8209 8.3 10.6809 8.53C10.5509 8.76 10.3609 9 10.1209 9.24L9.36094 10.03C9.25094 10.14 9.20094 10.27 9.20094 10.43C9.20094 10.51 9.21094 10.58 9.23094 10.66C9.26094 10.74 9.29094 10.8 9.31094 10.86C9.49094 11.19 9.80094 11.62 10.2409 12.14C10.6909 12.66 11.1709 13.19 11.6909 13.72C11.7909 13.82 11.9009 13.92 12.0009 14.02C12.4009 14.41 12.4109 15.05 12.0109 15.45Z" fill="white"/>
<path id="Vector_2" d="M22.9305 18.83C22.9305 19.11 22.8805 19.4 22.7805 19.68C22.7505 19.76 22.7205 19.84 22.6805 19.92C22.5105 20.28 22.2905 20.62 22.0005 20.94C21.5105 21.48 20.9705 21.87 20.3605 22.12C20.3505 22.12 20.3405 22.13 20.3305 22.13C19.7405 22.37 19.1005 22.5 18.4105 22.5C17.3905 22.5 16.3005 22.26 15.1505 21.77C14.0005 21.28 12.8505 20.62 11.7105 19.79C11.3205 19.5 10.9305 19.21 10.5605 18.9L13.8305 15.63C14.1105 15.84 14.3605 16 14.5705 16.11C14.6205 16.13 14.6805 16.16 14.7505 16.19C14.8305 16.22 14.9105 16.23 15.0005 16.23C15.1705 16.23 15.3005 16.17 15.4105 16.06L16.1705 15.31C16.4205 15.06 16.6605 14.87 16.8905 14.75C17.1205 14.61 17.3505 14.54 17.6005 14.54C17.7905 14.54 17.9905 14.58 18.2105 14.67C18.4305 14.76 18.6605 14.89 18.9105 15.06L22.2205 17.41C22.4805 17.59 22.6605 17.8 22.7705 18.05C22.8705 18.3 22.9305 18.55 22.9305 18.83Z" fill="white"/>
</g>
</g>
</g>
</svg>
