<svg width="23" height="19" viewBox="0 0 23 19" fill="none" xmlns="http://www.w3.org/2000/svg">
<path d="M22.9609 2.61613C22.1428 2.975 21.2711 3.21288 20.3622 3.32838C21.2972 2.77013 22.0108 1.89287 22.3463 0.8355C21.4746 1.35525 20.5121 1.72238 19.4863 1.92725C18.6586 1.04588 17.4788 0.5 16.1918 0.5C13.6948 0.5 11.6846 2.52675 11.6846 5.01137C11.6846 5.36888 11.7148 5.71263 11.7891 6.03988C8.03944 5.857 4.72156 4.05988 2.49269 1.32225C2.10356 1.99738 1.87531 2.77012 1.87531 3.602C1.87531 5.164 2.67969 6.54862 3.87869 7.35025C3.15406 7.3365 2.44319 7.12613 1.84094 6.79475C1.84094 6.8085 1.84094 6.82638 1.84094 6.84425C1.84094 9.036 3.40431 10.8565 5.45444 11.2759C5.08731 11.3763 4.68719 11.4244 4.27194 11.4244C3.98319 11.4244 3.69169 11.4079 3.41806 11.3474C4.00244 13.1335 5.66069 14.4466 7.63244 14.4893C6.09794 15.6896 4.14956 16.4129 2.04031 16.4129C1.67044 16.4129 1.31569 16.3964 0.960938 16.351C2.95881 17.6394 5.32656 18.375 7.87994 18.375C16.1794 18.375 20.7169 11.5 20.7169 5.54075C20.7169 5.34137 20.7101 5.14887 20.7004 4.95775C21.5956 4.3225 22.3477 3.52913 22.9609 2.61613Z" fill="white"/>
</svg>
