<svg width="23" height="23" viewBox="0 0 23 23" fill="none" xmlns="http://www.w3.org/2000/svg">
<path fill-rule="evenodd" clip-rule="evenodd" d="M7.83594 0.5H16.0859C19.8823 0.5 22.9609 3.57862 22.9609 7.375V15.625C22.9609 19.4214 19.8823 22.5 16.0859 22.5H7.83594C4.03956 22.5 0.960938 19.4214 0.960938 15.625V7.375C0.960938 3.57862 4.03956 0.5 7.83594 0.5ZM16.0859 20.4375C18.7397 20.4375 20.8984 18.2787 20.8984 15.625V7.375C20.8984 4.72125 18.7397 2.5625 16.0859 2.5625H7.83594C5.18219 2.5625 3.02344 4.72125 3.02344 7.375V15.625C3.02344 18.2787 5.18219 20.4375 7.83594 20.4375H16.0859Z" fill="white"/>
<path fill-rule="evenodd" clip-rule="evenodd" d="M6.46094 11.5C6.46094 8.46263 8.92356 6 11.9609 6C14.9983 6 17.4609 8.46263 17.4609 11.5C17.4609 14.5374 14.9983 17 11.9609 17C8.92356 17 6.46094 14.5374 6.46094 11.5ZM8.52344 11.5C8.52344 13.3948 10.0662 14.9375 11.9609 14.9375C13.8557 14.9375 15.3984 13.3948 15.3984 11.5C15.3984 9.60388 13.8557 8.0625 11.9609 8.0625C10.0662 8.0625 8.52344 9.60388 8.52344 11.5Z" fill="white"/>
<circle cx="17.8735" cy="5.58834" r="0.732875" fill="white"/>
</svg>
