<svg width="32" height="32" viewBox="0 0 32 32" fill="none" xmlns="http://www.w3.org/2000/svg">
<path d="M28 10.334H4C3.45333 10.334 3 9.88065 3 9.33398C3 8.78732 3.45333 8.33398 4 8.33398H28C28.5467 8.33398 29 8.78732 29 9.33398C29 9.88065 28.5467 10.334 28 10.334ZM28 17.0007H4C3.45333 17.0007 3 16.5473 3 16.0007C3 15.454 3.45333 15.0007 4 15.0007H28C28.5467 15.0007 29 15.454 29 16.0007C29 16.5473 28.5467 17.0007 28 17.0007ZM28 23.6673H4C3.45333 23.6673 3 23.214 3 22.6673C3 22.1207 3.45333 21.6673 4 21.6673H28C28.5467 21.6673 29 22.1207 29 22.6673C29 23.214 28.5467 23.6673 28 23.6673Z" fill="#1E2A38"/>
</svg>
