<svg width="32" height="32" viewBox="0 0 32 32" fill="none" xmlns="http://www.w3.org/2000/svg">
<path d="M29.3332 28.333H2.6665C2.11984 28.333 1.6665 28.7863 1.6665 29.333C1.6665 29.8797 2.11984 30.333 2.6665 30.333H29.3332C29.8798 30.333 30.3332 29.8797 30.3332 29.333C30.3332 28.7863 29.8798 28.333 29.3332 28.333Z" fill="#3D3D3D"/>
<path d="M22.6667 2.66699H9.33333C5.33333 2.66699 4 5.05366 4 8.00033V29.3337H28V8.00033C28 5.05366 26.6667 2.66699 22.6667 2.66699ZM13.3333 23.0003H9.33333C8.78667 23.0003 8.33333 22.547 8.33333 22.0003C8.33333 21.4537 8.78667 21.0003 9.33333 21.0003H13.3333C13.88 21.0003 14.3333 21.4537 14.3333 22.0003C14.3333 22.547 13.88 23.0003 13.3333 23.0003ZM13.3333 17.0003H9.33333C8.78667 17.0003 8.33333 16.547 8.33333 16.0003C8.33333 15.4537 8.78667 15.0003 9.33333 15.0003H13.3333C13.88 15.0003 14.3333 15.4537 14.3333 16.0003C14.3333 16.547 13.88 17.0003 13.3333 17.0003ZM13.3333 11.0003H9.33333C8.78667 11.0003 8.33333 10.547 8.33333 10.0003C8.33333 9.45366 8.78667 9.00033 9.33333 9.00033H13.3333C13.88 9.00033 14.3333 9.45366 14.3333 10.0003C14.3333 10.547 13.88 11.0003 13.3333 11.0003ZM22.6667 23.0003H18.6667C18.12 23.0003 17.6667 22.547 17.6667 22.0003C17.6667 21.4537 18.12 21.0003 18.6667 21.0003H22.6667C23.2133 21.0003 23.6667 21.4537 23.6667 22.0003C23.6667 22.547 23.2133 23.0003 22.6667 23.0003ZM22.6667 17.0003H18.6667C18.12 17.0003 17.6667 16.547 17.6667 16.0003C17.6667 15.4537 18.12 15.0003 18.6667 15.0003H22.6667C23.2133 15.0003 23.6667 15.4537 23.6667 16.0003C23.6667 16.547 23.2133 17.0003 22.6667 17.0003ZM22.6667 11.0003H18.6667C18.12 11.0003 17.6667 10.547 17.6667 10.0003C17.6667 9.45366 18.12 9.00033 18.6667 9.00033H22.6667C23.2133 9.00033 23.6667 9.45366 23.6667 10.0003C23.6667 10.547 23.2133 11.0003 22.6667 11.0003Z" fill="#3D3D3D"/>
</svg>
