<svg width="23" height="23" viewBox="0 0 23 23" fill="none" xmlns="http://www.w3.org/2000/svg">
<path fill-rule="evenodd" clip-rule="evenodd" d="M7.83667 0.735352H16.0867C19.883 0.735352 22.9617 3.81398 22.9617 7.61035V15.8604C22.9617 19.6567 19.883 22.7354 16.0867 22.7354H7.83667C4.04029 22.7354 0.96167 19.6567 0.96167 15.8604V7.61035C0.96167 3.81398 4.04029 0.735352 7.83667 0.735352ZM16.0867 20.6729C18.7404 20.6729 20.8992 18.5141 20.8992 15.8604V7.61035C20.8992 4.9566 18.7404 2.79785 16.0867 2.79785H7.83667C5.18292 2.79785 3.02417 4.9566 3.02417 7.61035V15.8604C3.02417 18.5141 5.18292 20.6729 7.83667 20.6729H16.0867Z" fill="white"/>
<path fill-rule="evenodd" clip-rule="evenodd" d="M6.46167 11.7354C6.46167 8.69798 8.92429 6.23535 11.9617 6.23535C14.999 6.23535 17.4617 8.69798 17.4617 11.7354C17.4617 14.7727 14.999 17.2354 11.9617 17.2354C8.92429 17.2354 6.46167 14.7727 6.46167 11.7354ZM8.52417 11.7354C8.52417 13.6301 10.0669 15.1729 11.9617 15.1729C13.8564 15.1729 15.3992 13.6301 15.3992 11.7354C15.3992 9.83923 13.8564 8.29785 11.9617 8.29785C10.0669 8.29785 8.52417 9.83923 8.52417 11.7354Z" fill="white"/>
<circle cx="17.8742" cy="5.82272" r="0.732875" fill="white"/>
</svg>
