<svg width="48" height="48" viewBox="0 0 48 48" fill="none" xmlns="http://www.w3.org/2000/svg">
<g id="Social Media / Instagram">
<g id="Group 15">
<path id="Vector" d="M20.0054 24.0615C20.0054 21.8505 21.7968 20.0576 24.0072 20.0576C26.2176 20.0576 28.0099 21.8505 28.0099 24.0615C28.0099 26.2725 26.2176 28.0654 24.0072 28.0654C21.7968 28.0654 20.0054 26.2725 20.0054 24.0615ZM17.8416 24.0615C17.8416 27.4677 20.602 30.2288 24.0072 30.2288C27.4124 30.2288 30.1728 27.4677 30.1728 24.0615C30.1728 20.6553 27.4124 17.8942 24.0072 17.8942C20.602 17.8942 17.8416 20.6553 17.8416 24.0615ZM28.976 17.6496C28.9759 17.9347 29.0603 18.2134 29.2185 18.4505C29.3767 18.6875 29.6017 18.8724 29.8649 18.9816C30.1281 19.0908 30.4178 19.1194 30.6974 19.0639C30.9769 19.0084 31.2337 18.8712 31.4353 18.6698C31.6369 18.4683 31.7742 18.2115 31.8299 17.932C31.8856 17.6524 31.8572 17.3626 31.7482 17.0992C31.6393 16.8358 31.4547 16.6106 31.2178 16.4522C30.9809 16.2937 30.7024 16.209 30.4174 16.2089H30.4168C30.0349 16.2091 29.6686 16.3609 29.3984 16.6311C29.1282 16.9012 28.9763 17.2675 28.976 17.6496ZM19.1563 33.8379C17.9856 33.7846 17.3494 33.5895 16.9265 33.4247C16.3659 33.2064 15.9659 32.9464 15.5454 32.5263C15.1249 32.1063 14.8645 31.7065 14.6473 31.1458C14.4824 30.723 14.2874 30.0863 14.2342 28.9154C14.176 27.6493 14.1644 27.269 14.1644 24.0616C14.1644 20.8542 14.177 20.4749 14.2342 19.2079C14.2875 18.0369 14.484 17.4015 14.6473 16.9774C14.8655 16.4167 15.1254 16.0166 15.5454 15.5959C15.9654 15.1752 16.365 14.9149 16.9265 14.6975C17.3492 14.5326 17.9856 14.3376 19.1563 14.2843C20.4219 14.2261 20.8021 14.2145 24.0072 14.2145C27.2123 14.2145 27.5928 14.2271 28.8596 14.2843C30.0302 14.3377 30.6654 14.5342 31.0893 14.6975C31.6499 14.9149 32.0499 15.1758 32.4705 15.5959C32.891 16.016 33.1503 16.4167 33.3686 16.9774C33.5334 17.4002 33.7284 18.0369 33.7816 19.2079C33.8398 20.4749 33.8515 20.8542 33.8515 24.0616C33.8515 27.269 33.8398 27.6483 33.7816 28.9154C33.7283 30.0863 33.5324 30.7228 33.3686 31.1458C33.1503 31.7065 32.8904 32.1066 32.4705 32.5263C32.0505 32.946 31.6499 33.2064 31.0893 33.4247C30.6667 33.5896 30.0302 33.7847 28.8596 33.8379C27.5939 33.8961 27.2137 33.9078 24.0072 33.9078C20.8007 33.9078 20.4216 33.8961 19.1563 33.8379ZM19.0569 12.1236C17.7786 12.1818 16.9052 12.3845 16.1424 12.6815C15.3524 12.9881 14.6837 13.3994 14.0154 14.0668C13.3471 14.7342 12.9369 15.4042 12.6304 16.1944C12.3336 16.9579 12.1309 17.8311 12.0727 19.1098C12.0135 20.3904 12 20.7998 12 24.0615C12 27.3232 12.0135 27.7326 12.0727 29.0133C12.1309 30.292 12.3336 31.1651 12.6304 31.9286C12.9369 32.7183 13.3472 33.3891 14.0154 34.0562C14.6836 34.7233 15.3524 35.1341 16.1424 35.4416C16.9066 35.7385 17.7786 35.9412 19.0569 35.9994C20.3378 36.0577 20.7464 36.0722 24.0072 36.0722C27.268 36.0722 27.6773 36.0586 28.9575 35.9994C30.2359 35.9412 31.1087 35.7385 31.872 35.4416C32.6615 35.1341 33.3307 34.7236 33.999 34.0562C34.6673 33.3888 35.0766 32.7183 35.384 31.9286C35.6808 31.1651 35.8844 30.2919 35.9417 29.0133C35.9999 27.7317 36.0134 27.3232 36.0134 24.0615C36.0134 20.7998 35.9999 20.3904 35.9417 19.1098C35.8835 17.831 35.6808 16.9574 35.384 16.1944C35.0766 15.4047 34.6662 14.7353 33.999 14.0668C33.3318 13.3983 32.6615 12.9881 31.873 12.6815C31.1087 12.3845 30.2358 12.1808 28.9585 12.1236C27.6782 12.0654 27.2689 12.0508 24.0082 12.0508C20.7474 12.0508 20.3378 12.0644 19.0569 12.1236Z" fill="white"/>
</g>
</g>
</svg>
