<svg width="48" height="48" viewBox="0 0 48 48" fill="none" xmlns="http://www.w3.org/2000/svg">
<g id="Social Media / Telegram">
<path id="Vector" d="M13.3537 23.1498C13.3537 23.1498 23.1191 19.0367 26.506 17.5884C27.8043 17.0092 32.2072 15.1553 32.2072 15.1553C32.2072 15.1553 34.2393 14.3443 34.07 16.314C34.0135 17.125 33.5619 19.9636 33.1104 23.0339C32.433 27.3788 31.6992 32.129 31.6992 32.129C31.6992 32.129 31.5863 33.4615 30.6267 33.6932C29.6671 33.9249 28.0865 32.8822 27.8043 32.6504C27.5784 32.4767 23.5707 29.8698 22.1031 28.5953C21.7079 28.2477 21.2564 27.5526 22.1595 26.7415C24.1916 24.8298 26.6188 22.4547 28.0865 20.9485C28.7639 20.2533 29.4412 18.6312 26.6188 20.6008C22.6111 23.4395 18.6598 26.1043 18.6598 26.1043C18.6598 26.1043 17.7566 26.6835 16.0632 26.1622C14.3697 25.6409 12.394 24.9456 12.394 24.9456C12.394 24.9456 11.0394 24.0767 13.3537 23.1498Z" fill="white"/>
</g>
</svg>
