<svg width="23" height="19" viewBox="0 0 23 19" fill="none" xmlns="http://www.w3.org/2000/svg">
<path d="M22.9617 2.85148C22.1435 3.21035 21.2718 3.44823 20.3629 3.56373C21.2979 3.00548 22.0115 2.12823 22.347 1.07085C21.4753 1.5906 20.5128 1.95773 19.487 2.1626C18.6593 1.28123 17.4795 0.735352 16.1925 0.735352C13.6955 0.735352 11.6853 2.7621 11.6853 5.24673C11.6853 5.60423 11.7155 5.94798 11.7898 6.27523C8.04017 6.09235 4.72229 4.29523 2.49342 1.5576C2.10429 2.23273 1.87604 3.00548 1.87604 3.83735C1.87604 5.39935 2.68042 6.78398 3.87942 7.5856C3.15479 7.57185 2.44392 7.36148 1.84167 7.0301C1.84167 7.04385 1.84167 7.06173 1.84167 7.0796C1.84167 9.27135 3.40505 11.0919 5.45517 11.5112C5.08805 11.6116 4.68792 11.6597 4.27267 11.6597C3.98392 11.6597 3.69242 11.6432 3.41879 11.5827C4.00317 13.3689 5.66142 14.682 7.63317 14.7246C6.09867 15.925 4.1503 16.6482 2.04104 16.6482C1.67117 16.6482 1.31642 16.6317 0.96167 16.5864C2.95954 17.8747 5.3273 18.6104 7.88067 18.6104C16.1802 18.6104 20.7177 11.7354 20.7177 5.7761C20.7177 5.57673 20.7108 5.38423 20.7012 5.1931C21.5963 4.55785 22.3484 3.76448 22.9617 2.85148Z" fill="white"/>
</svg>
