<svg width="101" height="29" viewBox="0 0 101 29" fill="none" xmlns="http://www.w3.org/2000/svg">
<g clip-path="url(#clip0_4713_11541)">
<path d="M28.7017 11.369C28.3088 11.2716 27.8471 11.1742 27.3166 11.0768C26.7861 10.96 26.2163 10.9015 25.6073 10.9015C25.3322 10.9015 24.9982 10.9307 24.6052 10.9892C24.2319 11.0281 23.947 11.0768 23.7506 11.1353V22.8807H19.3594V8.3304C20.1453 8.0577 21.0687 7.80448 22.1297 7.57074C23.2103 7.31753 24.4088 7.19092 25.7251 7.19092C25.9609 7.19092 26.2458 7.2104 26.5798 7.24935C26.9138 7.26883 27.2478 7.30779 27.5818 7.36622C27.9158 7.40518 28.2498 7.46361 28.5838 7.54153C28.9178 7.59996 29.2027 7.67787 29.4385 7.77527L28.7017 11.369Z" fill="white"/>
<path d="M35.6529 19.7542C36.4584 19.7542 37.0282 19.6762 37.3622 19.5204C37.6962 19.3646 37.8632 19.0627 37.8632 18.6147C37.8632 18.2641 37.6471 17.9622 37.2148 17.7089C36.7826 17.4362 36.1244 17.1343 35.2403 16.8032C34.5526 16.55 33.9239 16.287 33.3541 16.0143C32.804 15.7416 32.3325 15.4202 31.9395 15.0502C31.5466 14.6606 31.242 14.2029 31.0259 13.6769C30.8098 13.151 30.7017 12.518 30.7017 11.7778C30.7017 10.3364 31.242 9.19694 32.3226 8.35938C33.4032 7.52181 34.8866 7.10303 36.7728 7.10303C37.7158 7.10303 38.6196 7.19068 39.4841 7.36598C40.3486 7.52181 41.0363 7.69711 41.5471 7.8919L40.7808 11.2811C40.27 11.1058 39.7101 10.95 39.101 10.8136C38.5116 10.6773 37.8436 10.6091 37.097 10.6091C35.7216 10.6091 35.034 10.9889 35.034 11.7486C35.034 11.9239 35.0634 12.0797 35.1224 12.2161C35.1813 12.3524 35.2992 12.4888 35.476 12.6251C35.6529 12.742 35.8886 12.8783 36.1833 13.0342C36.4977 13.1705 36.8907 13.3263 37.3622 13.5016C38.3249 13.8522 39.1206 14.2029 39.7494 14.5535C40.3781 14.8846 40.8693 15.2547 41.2229 15.6637C41.5962 16.0533 41.8516 16.4916 41.9892 16.9785C42.1463 17.4655 42.2249 18.0303 42.2249 18.6731C42.2249 20.1924 41.6453 21.3416 40.4861 22.1208C39.3466 22.8999 37.7257 23.2895 35.6234 23.2895C34.2481 23.2895 33.0987 23.1726 32.1753 22.9389C31.2715 22.7051 30.6427 22.5103 30.2891 22.3545L31.0259 18.8192C31.7725 19.1114 32.5388 19.3451 33.3246 19.5204C34.1105 19.6762 34.8866 19.7542 35.6529 19.7542Z" fill="white"/>
<path d="M60.3539 2.63281V6.51873H54.1945V22.8805H49.597V6.51873H43.4375V2.63281H60.3539Z" fill="white"/>
<path d="M69.7252 11.369C69.3322 11.2716 68.8705 11.1742 68.34 11.0768C67.8095 10.96 67.2398 10.9015 66.6307 10.9015C66.3556 10.9015 66.0216 10.9307 65.6287 10.9892C65.2554 11.0281 64.9705 11.0768 64.774 11.1353V22.8807H60.3828V8.3304C61.1687 8.0577 62.0921 7.80448 63.1531 7.57074C64.2337 7.31753 65.4322 7.19092 66.7486 7.19092C66.9843 7.19092 67.2692 7.2104 67.6032 7.24935C67.9372 7.26883 68.2712 7.30779 68.6053 7.36622C68.9393 7.40518 69.2733 7.46361 69.6073 7.54153C69.9413 7.59996 70.2262 7.67787 70.4619 7.77527L69.7252 11.369Z" fill="white"/>
<path d="M76.6223 22.8805H72.2311V7.51217H76.6223V22.8805ZM77.0349 3.07113C77.0349 3.86974 76.7697 4.50278 76.2392 4.97026C75.7284 5.41826 75.1193 5.64226 74.412 5.64226C73.7047 5.64226 73.0858 5.41826 72.5553 4.97026C72.0445 4.50278 71.7891 3.86974 71.7891 3.07113C71.7891 2.27252 72.0445 1.64922 72.5553 1.20122C73.0858 0.733739 73.7047 0.5 74.412 0.5C75.1193 0.5 75.7284 0.733739 76.2392 1.20122C76.7697 1.64922 77.0349 2.27252 77.0349 3.07113Z" fill="white"/>
<path d="M90.088 15.3133C90.088 13.9693 89.7835 12.898 89.1744 12.0994C88.5653 11.2813 87.6616 10.8722 86.4631 10.8722C86.0701 10.8722 85.7066 10.8917 85.3726 10.9307C85.0386 10.9501 84.7636 10.9794 84.5475 11.0183V18.8778C84.8225 19.0531 85.1762 19.1992 85.6084 19.3161C86.0603 19.4329 86.5122 19.4914 86.9641 19.4914C89.0467 19.4914 90.088 18.0987 90.088 15.3133ZM94.5676 15.1964C94.5676 16.3846 94.4203 17.4656 94.1256 18.4395C93.8309 19.4134 93.3986 20.251 92.8288 20.9522C92.2591 21.6534 91.5518 22.1988 90.7069 22.5884C89.8621 22.978 88.8895 23.1728 87.7893 23.1728C87.1802 23.1728 86.6104 23.1143 86.08 22.9974C85.5495 22.8806 85.0386 22.715 84.5475 22.5008V28.2858H80.1562V8.03814C80.5492 7.92127 81.0011 7.81414 81.5119 7.71675C82.0228 7.59988 82.5532 7.50249 83.1034 7.42458C83.6731 7.34666 84.2429 7.28823 84.8127 7.24927C85.4021 7.19084 85.9621 7.16162 86.4925 7.16162C87.7696 7.16162 88.9092 7.3564 89.9112 7.74597C90.9132 8.11606 91.7581 8.65171 92.4457 9.35293C93.1334 10.0347 93.654 10.8722 94.0077 11.8656C94.381 12.859 94.5676 13.9693 94.5676 15.1964Z" fill="white"/>
<path d="M100.763 20.5723C100.763 21.4488 100.478 22.1208 99.9082 22.5883C99.3581 23.0363 98.7294 23.2603 98.0221 23.2603C97.3148 23.2603 96.6762 23.0363 96.1064 22.5883C95.5563 22.1208 95.2812 21.4488 95.2812 20.5723C95.2812 19.6958 95.5563 19.0335 96.1064 18.5855C96.6762 18.118 97.3148 17.8843 98.0221 17.8843C98.7294 17.8843 99.3581 18.118 99.9082 18.5855C100.478 19.0335 100.763 19.6958 100.763 20.5723Z" fill="white"/>
<path d="M100.763 20.5723C100.763 21.4488 100.478 22.1208 99.9082 22.5883C99.3581 23.0363 98.7294 23.2603 98.0221 23.2603C97.3148 23.2603 96.6762 23.0363 96.1064 22.5883C95.5563 22.1208 95.2812 21.4488 95.2812 20.5723C95.2812 19.6958 95.5563 19.0335 96.1064 18.5855C96.6762 18.118 97.3148 17.8843 98.0221 17.8843C98.7294 17.8843 99.3581 18.118 99.9082 18.5855C100.478 19.0335 100.763 19.6958 100.763 20.5723Z" fill="white"/>
<path d="M60.3539 2.63281V6.51873H54.1945V22.8805H49.597V6.51873H43.4375V2.63281H60.3539Z" fill="white"/>
<path d="M2.83565 20.5433C4.58427 22.3742 7.11879 23.2897 10.4392 23.2897C11.9913 23.2897 13.3568 23.1339 14.5357 22.8222C15.7145 22.5106 16.6281 22.16 17.2765 21.7704L17.2372 18.1182C16.2943 18.4476 14.729 18.7619 14.0641 18.8779C13.6516 18.9753 13.18 19.0629 12.6495 19.1408C12.1191 19.2187 11.5198 19.2577 10.8518 19.2577C9.79084 19.2577 8.88706 19.0921 8.14045 18.761C7.39385 18.4104 6.78478 17.9429 6.31324 17.3586C5.86135 16.7742 5.52735 16.0827 5.31123 15.2841C5.11475 14.466 5.01652 13.5895 5.01652 12.6546C5.01652 11.4859 5.17369 10.4925 5.48805 9.6744C5.80241 8.85631 6.21501 8.19405 6.72584 7.68761C7.25632 7.1617 7.85557 6.78187 8.52358 6.54814C9.21124 6.3144 9.90872 6.19753 10.616 6.19753C11.677 6.19753 12.6201 6.3144 13.4453 6.54814C14.2901 6.78187 15.0269 7.06431 15.6556 7.39544L16.9818 3.71405C16.8246 3.61666 16.5692 3.48031 16.2155 3.30501C15.8619 3.1297 15.4198 2.96414 14.8893 2.80831C14.3589 2.63301 13.74 2.48692 13.0327 2.37005C12.3254 2.2337 11.5395 2.16553 10.675 2.16553C9.18177 2.16553 7.79662 2.39927 6.51954 2.86674C5.24246 3.33422 4.14221 4.0257 3.21878 4.94118C2.29534 5.83718 1.56839 6.94744 1.03791 8.27196C0.507427 9.577 0.242188 11.0671 0.242188 12.7422C0.242188 16.112 1.10667 18.7123 2.83565 20.5433Z" fill="white"/>
</g>
<defs>
<clipPath id="clip0_4713_11541">
<rect width="101" height="28" fill="white" transform="translate(0 0.5)"/>
</clipPath>
</defs>
</svg>
