<svg width="118" height="32" viewBox="0 0 118 32" fill="none" xmlns="http://www.w3.org/2000/svg">
<g clip-path="url(#clip0_4778_29452)">
<path d="M33.5254 12.4214C33.0663 12.3101 32.5269 12.1988 31.9071 12.0875C31.2874 11.954 30.6217 11.8872 29.9101 11.8872C29.5887 11.8872 29.1985 11.9206 28.7394 11.9874C28.3033 12.0319 27.9704 12.0875 27.7409 12.1543V25.5776H22.6106V8.94875C23.5288 8.63709 24.6076 8.3477 25.8472 8.08057C27.1097 7.79118 28.5099 7.64648 30.0478 7.64648C30.3233 7.64648 30.6561 7.66875 31.0463 7.71327C31.4366 7.73553 31.8268 7.78005 32.217 7.84683C32.6072 7.89135 32.9975 7.95814 33.3877 8.04718C33.7779 8.11396 34.1108 8.20301 34.3862 8.31431L33.5254 12.4214Z" fill="#1C0E07"/>
<path d="M41.6497 22.0048C42.5908 22.0048 43.2565 21.9158 43.6467 21.7377C44.0369 21.5596 44.2321 21.2146 44.2321 20.7026C44.2321 20.3019 43.9796 19.9568 43.4746 19.6674C42.9696 19.3558 42.2006 19.0107 41.1676 18.6323C40.3642 18.3429 39.6297 18.0424 38.964 17.7307C38.3213 17.4191 37.7704 17.0518 37.3113 16.6288C36.8522 16.1836 36.4964 15.6605 36.2439 15.0594C35.9914 14.4584 35.8651 13.7349 35.8651 12.889C35.8651 11.2417 36.4964 9.93943 37.7589 8.98221C39.0214 8.025 40.7545 7.54639 42.9581 7.54639C44.0599 7.54639 45.1158 7.64656 46.1258 7.84691C47.1358 8.025 47.9392 8.22534 48.536 8.44795L47.6408 12.3213C47.044 12.121 46.3898 11.9429 45.6782 11.7871C44.9895 11.6313 44.2091 11.5533 43.3368 11.5533C41.73 11.5533 40.9266 11.9874 40.9266 12.8556C40.9266 13.056 40.9611 13.234 41.0299 13.3899C41.0988 13.5457 41.2365 13.7015 41.4431 13.8573C41.6497 13.9909 41.9251 14.1467 42.2695 14.3248C42.6367 14.4806 43.0958 14.6587 43.6467 14.8591C44.7715 15.2598 45.7011 15.6605 46.4357 16.0612C47.1702 16.4396 47.7441 16.8626 48.1573 17.33C48.5934 17.7753 48.8918 18.2761 49.0525 18.8326C49.2361 19.3892 49.3279 20.0347 49.3279 20.7693C49.3279 22.5057 48.6508 23.8191 47.2965 24.7095C45.9651 25.6 44.0714 26.0452 41.6152 26.0452C40.0084 26.0452 38.6656 25.9116 37.5868 25.6445C36.5308 25.3773 35.7962 25.1547 35.3831 24.9766L36.2439 20.9363C37.1162 21.2702 38.0114 21.5373 38.9296 21.7377C39.8478 21.9158 40.7545 22.0048 41.6497 22.0048Z" fill="#1C0E07"/>
<path d="M70.5163 2.4375V6.87854H63.3201V25.5777H57.9488V6.87854H50.7526V2.4375H70.5163Z" fill="#1C0E07"/>
<path d="M81.4627 12.4214C81.0036 12.3101 80.4642 12.1988 79.8444 12.0875C79.2246 11.954 78.5589 11.8872 77.8473 11.8872C77.526 11.8872 77.1358 11.9206 76.6767 11.9874C76.2405 12.0319 75.9077 12.0875 75.6782 12.1543V25.5776H70.5479V8.94875C71.466 8.63709 72.5449 8.3477 73.7844 8.08057C75.0469 7.79118 76.4471 7.64648 77.9851 7.64648C78.2605 7.64648 78.5934 7.66875 78.9836 7.71327C79.3738 7.73553 79.764 7.78005 80.1543 7.84683C80.5445 7.89135 80.9347 7.95814 81.3249 8.04718C81.7152 8.11396 82.048 8.20301 82.3235 8.31431L81.4627 12.4214Z" fill="#1C0E07"/>
<path d="M89.5163 25.5777H84.386V8.01391H89.5163V25.5777ZM89.9983 2.93843C89.9983 3.85113 89.6884 4.57461 89.0687 5.10887C88.4719 5.62087 87.7603 5.87687 86.9339 5.87687C86.1076 5.87687 85.3845 5.62087 84.7647 5.10887C84.1679 4.57461 83.8695 3.85113 83.8695 2.93843C83.8695 2.02574 84.1679 1.31339 84.7647 0.801391C85.3845 0.26713 86.1076 0 86.9339 0C87.7603 0 88.4719 0.26713 89.0687 0.801391C89.6884 1.31339 89.9983 2.02574 89.9983 2.93843Z" fill="#1C0E07"/>
<path d="M105.255 16.9295C105.255 15.3935 104.899 14.1691 104.187 13.2564C103.476 12.3215 102.42 11.854 101.02 11.854C100.561 11.854 100.136 11.8762 99.7456 11.9208C99.3554 11.943 99.0341 11.9764 98.7816 12.0209V21.0032C99.1029 21.2035 99.5161 21.3705 100.021 21.5041C100.549 21.6376 101.077 21.7044 101.605 21.7044C104.038 21.7044 105.255 20.1128 105.255 16.9295ZM110.488 16.7959C110.488 18.1538 110.316 19.3893 109.972 20.5023C109.628 21.6154 109.123 22.5726 108.457 23.374C107.791 24.1754 106.965 24.7987 105.978 25.2439C104.991 25.6891 103.854 25.9117 102.569 25.9117C101.857 25.9117 101.192 25.8449 100.572 25.7114C99.9522 25.5778 99.3554 25.3886 98.7816 25.1437V31.7552H93.6512V8.61502C94.1103 8.48145 94.6383 8.35902 95.2351 8.24772C95.8319 8.11415 96.4517 8.00285 97.0944 7.9138C97.7601 7.82476 98.4258 7.75798 99.0914 7.71346C99.7801 7.64667 100.434 7.61328 101.054 7.61328C102.546 7.61328 103.877 7.83589 105.048 8.28111C106.219 8.70406 107.206 9.31624 108.009 10.1176C108.813 10.8968 109.421 11.854 109.834 12.9893C110.27 14.1246 110.488 15.3935 110.488 16.7959Z" fill="#1C0E07"/>
<path d="M117.726 22.9397C117.726 23.9414 117.393 24.7094 116.727 25.2437C116.085 25.7557 115.35 26.0117 114.524 26.0117C113.697 26.0117 112.951 25.7557 112.286 25.2437C111.643 24.7094 111.322 23.9414 111.322 22.9397C111.322 21.9379 111.643 21.1811 112.286 20.6691C112.951 20.1348 113.697 19.8677 114.524 19.8677C115.35 19.8677 116.085 20.1348 116.727 20.6691C117.393 21.1811 117.726 21.9379 117.726 22.9397Z" fill="#1C0E07"/>
<path d="M117.726 22.9397C117.726 23.9414 117.393 24.7094 116.727 25.2437C116.085 25.7557 115.35 26.0117 114.524 26.0117C113.697 26.0117 112.951 25.7557 112.286 25.2437C111.643 24.7094 111.322 23.9414 111.322 22.9397C111.322 21.9379 111.643 21.1811 112.286 20.6691C112.951 20.1348 113.697 19.8677 114.524 19.8677C115.35 19.8677 116.085 20.1348 116.727 20.6691C117.393 21.1811 117.726 21.9379 117.726 22.9397Z" fill="#FF5A00"/>
<path d="M70.5163 2.4375V6.87854H63.3201V25.5777H57.9488V6.87854H50.7526V2.4375H70.5163Z" fill="#FF5A00"/>
<path d="M3.31856 22.9065C5.36151 24.999 8.32262 26.0452 12.2019 26.0452C14.0153 26.0452 15.6106 25.8671 16.9879 25.511C18.3652 25.1548 19.4326 24.7541 20.1901 24.3089L20.1441 20.135C19.0425 20.5114 17.2137 20.8706 16.437 21.0031C15.955 21.1144 15.4041 21.2146 14.7843 21.3037C14.1645 21.3927 13.4644 21.4372 12.684 21.4372C11.4444 21.4372 10.3885 21.248 9.51625 20.8696C8.64398 20.4689 7.9324 19.9346 7.38149 19.2668C6.85354 18.599 6.46332 17.8087 6.21082 16.896C5.98127 15.9611 5.8665 14.9593 5.8665 13.8908C5.8665 12.5551 6.05014 11.4198 6.41741 10.4849C6.78468 9.54993 7.26672 8.79306 7.86353 8.21428C8.4833 7.61323 9.18341 7.17915 9.96386 6.91202C10.7673 6.64489 11.5821 6.51132 12.4085 6.51132C13.648 6.51132 14.7499 6.64489 15.7139 6.91202C16.701 7.17915 17.5618 7.50193 18.2963 7.88036L19.8457 3.67306C19.6621 3.56176 19.3637 3.40593 18.9505 3.20558C18.5373 3.00523 18.0209 2.81602 17.4011 2.63793C16.7813 2.43758 16.0583 2.27062 15.2319 2.13706C14.4055 1.98123 13.4874 1.90332 12.4774 1.90332C10.7328 1.90332 9.11455 2.17045 7.62251 2.70471C6.13048 3.23897 4.84503 4.02923 3.76617 5.07549C2.68731 6.09949 1.838 7.36836 1.21823 8.8821C0.598458 10.3736 0.288574 12.0765 0.288574 13.991C0.288574 17.8421 1.29857 20.8139 3.31856 22.9065Z" fill="#FF5A00"/>
</g>
<defs>
<clipPath id="clip0_4778_29452">
<rect width="118" height="32" fill="white"/>
</clipPath>
</defs>
</svg>
