<svg width="24" height="24" viewBox="0 0 24 24" fill="none" xmlns="http://www.w3.org/2000/svg">
<path d="M12.5025 6.9C14.2825 6.9 14.9425 7.75 15.0025 9H17.2125C17.1425 7.28 16.0925 5.7 14.0025 5.19V3H11.0025V5.16C10.4725 5.28 9.9725 5.46 9.5225 5.7L10.9925 7.17C11.4025 7 11.9025 6.9 12.5025 6.9ZM5.3325 4.06L4.0625 5.33L7.5025 8.77C7.5025 10.85 9.0625 11.98 11.4125 12.68L14.9225 16.19C14.5825 16.67 13.8725 17.1 12.5025 17.1C10.4425 17.1 9.6325 16.18 9.5225 15H7.3225C7.4425 17.19 9.0825 18.42 11.0025 18.83V21H14.0025V18.85C14.9625 18.67 15.8225 18.3 16.4525 17.73L18.6725 19.95L19.9425 18.68L5.3325 4.06Z" fill="#FF5A00"/>
</svg>
