<svg width="24" height="25" viewBox="0 0 24 25" fill="none" xmlns="http://www.w3.org/2000/svg">
<g id="headset-mic">
<path id="Vector" d="M11.4 1.51999C6.62 1.82999 3 6.01999 3 10.81V17.5C3 19.16 4.34 20.5 6 20.5H7C8.1 20.5 9 19.6 9 18.5V14.5C9 13.4 8.1 12.5 7 12.5H5V10.79C5 6.94999 7.96 3.60999 11.79 3.49999C15.76 3.38999 19 6.55999 19 10.5V12.5H17C15.9 12.5 15 13.4 15 14.5V18.5C15 19.6 15.9 20.5 17 20.5H19V21.5H13C12.45 21.5 12 21.95 12 22.5C12 23.05 12.45 23.5 13 23.5H18C19.66 23.5 21 22.16 21 20.5V10.5C21 5.32999 16.64 1.17999 11.4 1.51999Z" fill="#FF5A00"/>
</g>
</svg>
