<svg width="25" height="24" viewBox="0 0 25 24" fill="none" xmlns="http://www.w3.org/2000/svg">
<path d="M20.55 10.63L15.88 8.62L14.84 8.18C14.68 8.1 14.54 7.89 14.54 7.71V4.65C14.54 3.69 13.83 2.55 12.97 2.11C12.67 1.96 12.31 1.96 12.01 2.11C11.16 2.55 10.45 3.7 10.45 4.66V7.72C10.45 7.9 10.31 8.11 10.15 8.19L4.45 10.64C3.82 10.9 3.31 11.69 3.31 12.37V13.69C3.31 14.54 3.95 14.96 4.74 14.62L9.75 12.46C10.14 12.29 10.46 12.5 10.46 12.93V14.04V15.84C10.46 16.07 10.33 16.4 10.17 16.56L7.85 18.89C7.61 19.13 7.5 19.6 7.61 19.94L8.06 21.3C8.24 21.89 8.91 22.17 9.46 21.89L11.84 19.89C12.2 19.58 12.79 19.58 13.15 19.89L15.53 21.89C16.08 22.16 16.75 21.89 16.95 21.3L17.4 19.94C17.51 19.61 17.4 19.13 17.16 18.89L14.84 16.56C14.67 16.4 14.54 16.07 14.54 15.84V12.93C14.54 12.5 14.85 12.3 15.25 12.46L20.26 14.62C21.05 14.96 21.69 14.54 21.69 13.69V12.37C21.69 11.69 21.18 10.9 20.55 10.63Z" fill="#307FF8"/>
</svg>
