<svg width="24" height="24" viewBox="0 0 24 24" fill="none" xmlns="http://www.w3.org/2000/svg">
<path d="M10.6301 20.05L8.62006 15.38L8.18006 14.34C8.10006 14.18 7.89006 14.04 7.71006 14.04H4.65006C3.69006 14.04 2.55006 13.33 2.11006 12.47C1.96006 12.17 1.96006 11.81 2.11006 11.51C2.55006 10.66 3.70006 9.95 4.66006 9.95H7.72006C7.90006 9.95 8.11006 9.81 8.19006 9.65L10.6401 3.95C10.9001 3.32 11.6901 2.81 12.3701 2.81L13.6901 2.81C14.5401 2.81 14.9601 3.45 14.6201 4.24L12.4601 9.25C12.2901 9.64 12.5001 9.96 12.9301 9.96H14.0401H15.8401C16.0701 9.96 16.4001 9.83 16.5601 9.67L18.8901 7.35C19.1301 7.11 19.6001 7 19.9401 7.11L21.3001 7.56C21.8901 7.74 22.1701 8.41 21.8901 8.96L19.8901 11.34C19.5801 11.7 19.5801 12.29 19.8901 12.65L21.8901 15.03C22.1601 15.58 21.8901 16.25 21.3001 16.45L19.9401 16.9C19.6101 17.01 19.1301 16.9 18.8901 16.66L16.5601 14.34C16.4001 14.17 16.0701 14.04 15.8401 14.04H12.9301C12.5001 14.04 12.3001 14.35 12.4601 14.75L14.6201 19.76C14.9601 20.55 14.5401 21.19 13.6901 21.19H12.3701C11.6901 21.19 10.9001 20.68 10.6301 20.05Z" fill="#938F96"/>
</svg>
