<svg width="40" height="40" viewBox="0 0 40 40" fill="none" xmlns="http://www.w3.org/2000/svg">
<path d="M17.9167 7.73333L10.5333 4.08333C6.55 2.13333 3.28333 4.11666 3.28333 8.48333V33.2167C3.28333 35.1167 4.86667 36.6667 6.8 36.6667H19.1667C20.0833 36.6667 20.8333 35.9167 20.8333 35V12.35C20.8333 10.6 19.5167 8.51666 17.9167 7.73333ZM14.95 22.9167H9.16667C8.48333 22.9167 7.91667 22.35 7.91667 21.6667C7.91667 20.9833 8.48333 20.4167 9.16667 20.4167H14.95C15.6333 20.4167 16.2 20.9833 16.2 21.6667C16.2 22.35 15.65 22.9167 14.95 22.9167ZM14.95 16.25H9.16667C8.48333 16.25 7.91667 15.6833 7.91667 15C7.91667 14.3167 8.48333 13.75 9.16667 13.75H14.95C15.6333 13.75 16.2 14.3167 16.2 15C16.2 15.6833 15.65 16.25 14.95 16.25Z" fill="#0A77FF"/>
<path d="M36.6667 30.0667V32.5C36.6667 34.8 34.8 36.6667 32.5 36.6667H24.95C24.05 36.6667 23.3333 35.95 23.3333 35.05V31.45C25.1167 31.6667 27 31.15 28.35 30.0667C29.4833 30.9833 30.9333 31.5333 32.5167 31.5333C34.0667 31.5333 35.5167 30.9833 36.6667 30.0667Z" fill="#0A77FF"/>
<path d="M36.6667 25.0833V25.1C36.5333 27.2833 34.75 29.0333 32.5167 29.0333C30.2 29.0333 28.35 27.15 28.35 24.8667C28.35 27.4167 26 29.4667 23.3333 28.95V20C23.3333 18.9333 24.3167 18.1333 25.3667 18.3667L28.35 19.0333L29.15 19.2167L32.55 19.9833C33.3667 20.15 34.1167 20.4333 34.7667 20.85C34.7667 20.8667 34.7833 20.8667 34.7833 20.8667C34.95 20.9833 35.1167 21.1167 35.2667 21.2667C36.0333 22.0333 36.5333 23.15 36.65 24.7833C36.65 24.8833 36.6667 24.9833 36.6667 25.0833Z" fill="#0A77FF"/>
</svg>
