<svg width="25" height="24" viewBox="0 0 25 24" fill="none" xmlns="http://www.w3.org/2000/svg">
<path d="M13 22.0001H4.57997C3.41997 22.0001 2.46997 21.0701 2.46997 19.9301V5.09011C2.46997 2.47011 4.41997 1.2801 6.80997 2.4501L11.25 4.63011C12.21 5.10011 13 6.3501 13 7.4101V22.0001Z" stroke="#1D1B20" stroke-width="1.5" stroke-linecap="round" stroke-linejoin="round"/>
<path d="M22.47 15.0601V18.8401C22.47 21.0001 21.47 22.0001 19.31 22.0001H13V10.4201L13.47 10.5201L17.97 11.5301L20 11.9801C21.32 12.2701 22.4 12.9501 22.46 14.8701C22.47 14.9301 22.47 14.9901 22.47 15.0601Z" stroke="#1D1B20" stroke-width="1.5" stroke-linecap="round" stroke-linejoin="round"/>
<path d="M5.99997 9.00012H9.46997" stroke="#1D1B20" stroke-width="1.5" stroke-linecap="round" stroke-linejoin="round"/>
<path d="M5.99997 13.0001H9.46997" stroke="#1D1B20" stroke-width="1.5" stroke-linecap="round" stroke-linejoin="round"/>
<path d="M17.97 11.5301V14.7501C17.97 15.9901 16.96 17.0001 15.72 17.0001C14.48 17.0001 13.47 15.9901 13.47 14.7501V10.5201L17.97 11.5301Z" stroke="#1D1B20" stroke-width="1.5" stroke-linecap="round" stroke-linejoin="round"/>
<path d="M22.46 14.8701C22.4 16.0501 21.42 17.0001 20.22 17.0001C18.98 17.0001 17.97 15.9901 17.97 14.7501V11.5301L20 11.9801C21.32 12.2701 22.4 12.9501 22.46 14.8701Z" stroke="#1D1B20" stroke-width="1.5" stroke-linecap="round" stroke-linejoin="round"/>
</svg>
