<svg width="40" height="40" viewBox="0 0 40 40" fill="none" xmlns="http://www.w3.org/2000/svg">
<path d="M36.6667 35.4167C36.6667 36.1 36.1 36.6667 35.4167 36.6667H4.58334C3.90001 36.6667 3.33334 36.1 3.33334 35.4167C3.33334 34.7334 3.90001 34.1667 4.58334 34.1667H35.4167C36.1 34.1667 36.6667 34.7334 36.6667 35.4167Z" fill="#307FF8"/>
<path d="M25.65 7.53331L7.75 25.4333C7.06667 26.1166 5.96667 26.1166 5.3 25.4333H5.28334C2.96667 23.1 2.96667 19.3333 5.28334 17.0166L17.2 5.09998C19.5333 2.76664 23.3 2.76664 25.6333 5.09998C26.3167 5.74998 26.3167 6.86664 25.65 7.53331Z" fill="#307FF8"/>
<path d="M34.7 14.15L29.6167 9.06664C28.9334 8.3833 27.8333 8.3833 27.1667 9.06664L9.26668 26.9666C8.58335 27.6333 8.58335 28.7333 9.26668 29.4166L14.35 34.5166C16.6833 36.8333 20.45 36.8333 22.7833 34.5166L34.6833 22.6C37.05 20.2666 37.05 16.4833 34.7 14.15ZM21.2667 29.2L19.25 31.2333C18.8333 31.65 18.15 31.65 17.7167 31.2333C17.3 30.8166 17.3 30.1333 17.7167 29.7L19.75 27.6666C20.15 27.2666 20.85 27.2666 21.2667 27.6666C21.6833 28.0833 21.6833 28.8 21.2667 29.2ZM27.8834 22.5833L23.8167 26.6666C23.4 27.0666 22.7167 27.0666 22.2833 26.6666C21.8667 26.25 21.8667 25.5666 22.2833 25.1333L26.3667 21.05C26.7667 20.65 27.4667 20.65 27.8834 21.05C28.3 21.4833 28.3 22.1666 27.8834 22.5833Z" fill="#307FF8"/>
</svg>
