<svg width="40" height="40" viewBox="0 0 40 40" fill="none" xmlns="http://www.w3.org/2000/svg">
<path d="M35.8833 18.1167L33.35 15.5833C32.9167 15.15 32.5667 14.3 32.5667 13.7V10.1C32.5667 8.63334 31.3667 7.43334 29.9 7.43334H26.3167C25.7167 7.43334 24.8667 7.08334 24.4333 6.65001L21.9 4.11667C20.8667 3.08334 19.1667 3.08334 18.1333 4.11667L15.5667 6.65001C15.15 7.08334 14.3 7.43334 13.6833 7.43334H10.1C8.63334 7.43334 7.43334 8.63334 7.43334 10.1V13.6833C7.43334 14.2833 7.08334 15.1333 6.65001 15.5667L4.11667 18.1C3.08334 19.1333 3.08334 20.8333 4.11667 21.8667L6.65001 24.4C7.08334 24.8333 7.43334 25.6833 7.43334 26.2833V29.8667C7.43334 31.3333 8.63334 32.5333 10.1 32.5333H13.6833C14.2833 32.5333 15.1333 32.8833 15.5667 33.3167L18.1 35.85C19.1333 36.8833 20.8333 36.8833 21.8667 35.85L24.4 33.3167C24.8333 32.8833 25.6833 32.5333 26.2833 32.5333H29.8667C31.3333 32.5333 32.5333 31.3333 32.5333 29.8667V26.2833C32.5333 25.6833 32.8833 24.8333 33.3167 24.4L35.85 21.8667C36.9333 20.85 36.9333 19.15 35.8833 18.1167ZM13.3333 15C13.3333 14.0833 14.0833 13.3333 15 13.3333C15.9167 13.3333 16.6667 14.0833 16.6667 15C16.6667 15.9167 15.9333 16.6667 15 16.6667C14.0833 16.6667 13.3333 15.9167 13.3333 15ZM15.8833 25.8833C15.6333 26.1333 15.3167 26.25 15 26.25C14.6833 26.25 14.3667 26.1333 14.1167 25.8833C13.6333 25.4 13.6333 24.6 14.1167 24.1167L24.1167 14.1167C24.6 13.6333 25.4 13.6333 25.8833 14.1167C26.3667 14.6 26.3667 15.4 25.8833 15.8833L15.8833 25.8833ZM25 26.6667C24.0667 26.6667 23.3167 25.9167 23.3167 25C23.3167 24.0833 24.0667 23.3333 24.9833 23.3333C25.9 23.3333 26.65 24.0833 26.65 25C26.65 25.9167 25.9167 26.6667 25 26.6667Z" fill="#0A77FF"/>
</svg>
