<svg width="40" height="40" viewBox="0 0 40 40" fill="none" xmlns="http://www.w3.org/2000/svg">
<path d="M19.9833 3.33331C10.7833 3.33331 3.33334 10.8 3.33334 20C3.33334 29.2 10.7833 36.6666 19.9833 36.6666C29.2 36.6666 36.6667 29.2 36.6667 20C36.6667 10.8 29.2 3.33331 19.9833 3.33331ZM14.1667 13.3333C15.55 13.3333 16.6667 14.45 16.6667 15.8333C16.6667 17.2166 15.55 18.3333 14.1667 18.3333C12.7833 18.3333 11.6667 17.2166 11.6667 15.8333C11.6667 14.45 12.7833 13.3333 14.1667 13.3333ZM20 30C16.2 30 12.9667 27.2333 11.6667 23.3333H28.3333C27.0333 27.2333 23.8 30 20 30ZM25.8333 18.3333C24.45 18.3333 23.3333 17.2166 23.3333 15.8333C23.3333 14.45 24.45 13.3333 25.8333 13.3333C27.2167 13.3333 28.3333 14.45 28.3333 15.8333C28.3333 17.2166 27.2167 18.3333 25.8333 18.3333Z" fill="#307FF8"/>
</svg>
