<svg width="40" height="40" viewBox="0 0 40 40" fill="none" xmlns="http://www.w3.org/2000/svg">
<path d="M19 1.70001C11.0333 2.21668 5 9.20002 5 17.1833V28.3333C5 31.1 7.23333 33.3333 10 33.3333H11.6667C13.5 33.3333 15 31.8333 15 30V23.3333C15 21.5 13.5 20 11.6667 20H8.33333V17.15C8.33333 10.75 13.2667 5.18335 19.65 5.00001C26.2667 4.81668 31.6667 10.1 31.6667 16.6667V20H28.3333C26.5 20 25 21.5 25 23.3333V30C25 31.8333 26.5 33.3333 28.3333 33.3333H31.6667V35H21.6667C20.75 35 20 35.75 20 36.6667C20 37.5833 20.75 38.3333 21.6667 38.3333H30C32.7667 38.3333 35 36.1 35 33.3333V16.6667C35 8.05001 27.7333 1.13335 19 1.70001Z" fill="#307FF8"/>
</svg>
