<svg width="40" height="40" viewBox="0 0 40 40" fill="none" xmlns="http://www.w3.org/2000/svg">
<path d="M25 15H15V25H25V15ZM21.6667 21.6667H18.3333V18.3333H21.6667V21.6667ZM35 18.3333V15H31.6667V11.6667C31.6667 9.83333 30.1667 8.33333 28.3333 8.33333H25V5H21.6667V8.33333H18.3333V5H15V8.33333H11.6667C9.83333 8.33333 8.33333 9.83333 8.33333 11.6667V15H5V18.3333H8.33333V21.6667H5V25H8.33333V28.3333C8.33333 30.1667 9.83333 31.6667 11.6667 31.6667H15V35H18.3333V31.6667H21.6667V35H25V31.6667H28.3333C30.1667 31.6667 31.6667 30.1667 31.6667 28.3333V25H35V21.6667H31.6667V18.3333H35ZM28.3333 28.3333H11.6667V11.6667H28.3333V28.3333Z" fill="#307FF8"/>
</svg>
