<svg width="40" height="40" viewBox="0 0 40 40" fill="none" xmlns="http://www.w3.org/2000/svg">
<path d="M21.1295 33.2617C21.5874 33.3683 21.6294 33.968 21.1834 34.1167L18.55 34.9833C11.9334 37.1167 8.45002 35.3333 6.30002 28.7167L4.16669 22.1333C2.03335 15.5167 3.80002 12.0167 10.4167 9.88334L11.9673 9.36981C12.3702 9.23639 12.7553 9.63774 12.6274 10.0424C12.4574 10.5803 12.3007 11.1607 12.15 11.7833L10.5167 18.7667C8.68335 26.6167 11.3667 30.95 19.2167 32.8167L21.1295 33.2617Z" fill="#0A77FF"/>
<path d="M28.6166 5.35L25.8333 4.7C20.2666 3.38334 16.95 4.46667 15 8.5C14.5 9.51667 14.1 10.75 13.7666 12.1667L12.1333 19.15C10.5 26.1167 12.65 29.55 19.6 31.2L22.4 31.8667C23.3666 32.1 24.2666 32.25 25.1 32.3167C30.3 32.8167 33.0666 30.3833 34.4666 24.3667L36.1 17.4C37.7333 10.4333 35.6 6.98334 28.6166 5.35ZM25.4833 22.2167C25.3333 22.7833 24.8333 23.15 24.2666 23.15C24.1666 23.15 24.0666 23.1333 23.95 23.1167L19.1 21.8833C18.4333 21.7167 18.0333 21.0333 18.2 20.3667C18.3666 19.7 19.05 19.3 19.7166 19.4667L24.5666 20.7C25.25 20.8667 25.65 21.55 25.4833 22.2167ZM30.3666 16.5833C30.2166 17.15 29.7166 17.5167 29.15 17.5167C29.05 17.5167 28.95 17.5 28.8333 17.4833L20.75 15.4333C20.0833 15.2667 19.6833 14.5833 19.85 13.9167C20.0166 13.25 20.7 12.85 21.3666 13.0167L29.45 15.0667C30.1333 15.2167 30.5333 15.9 30.3666 16.5833Z" fill="#0A77FF"/>
</svg>
