<svg width="40" height="40" viewBox="0 0 40 40" fill="none" xmlns="http://www.w3.org/2000/svg">
<path d="M3.33333 11.6666V35C3.33333 36.3833 4.9 37.1666 6 36.3333L8.85 34.2C9.51667 33.7 10.45 33.7666 11.05 34.3666L13.8167 37.15C14.4667 37.8 15.5333 37.8 16.1833 37.15L18.9833 34.35C19.5667 33.7666 20.5 33.7 21.15 34.2L24 36.3333C25.1 37.15 26.6667 36.3666 26.6667 35V6.66665C26.6667 4.83331 28.1667 3.33331 30 3.33331H11.6667H10C5 3.33331 3.33333 6.31665 3.33333 9.99998V11.6666Z" fill="#307FF8"/>
<path d="M30.0167 3.33331V5.83331C31.1167 5.83331 32.1667 6.28331 32.9333 7.03331C33.7333 7.84998 34.1667 8.89998 34.1667 9.99998V14.0333C34.1667 15.2666 33.6167 15.8333 32.3667 15.8333H29.1667V6.68331C29.1667 6.21665 29.55 5.83331 30.0167 5.83331V3.33331ZM30.0167 3.33331C28.1667 3.33331 26.6667 4.83331 26.6667 6.68331V18.3333H32.3667C35 18.3333 36.6667 16.6666 36.6667 14.0333V9.99998C36.6667 8.16665 35.9167 6.49998 34.7167 5.28331C33.5 4.08331 31.85 3.34998 30.0167 3.33331C30.0333 3.33331 30.0167 3.33331 30.0167 3.33331Z" fill="#307FF8"/>
</svg>
