<svg width="40" height="40" viewBox="0 0 40 40" fill="none" xmlns="http://www.w3.org/2000/svg">
<path d="M30.9 6.86667L21.7334 3.43334C20.7834 3.08334 19.2334 3.08334 18.2834 3.43334L9.11669 6.86667C7.35002 7.53334 5.91669 9.6 5.91669 11.4833V24.9833C5.91669 26.3333 6.80002 28.1167 7.88335 28.9167L17.05 35.7667C18.6667 36.9833 21.3167 36.9833 22.9334 35.7667L32.1 28.9167C33.1834 28.1 34.0667 26.3333 34.0667 24.9833V11.4833C34.0834 9.6 32.65 7.53334 30.9 6.86667ZM25.8 16.2L18.6334 23.3667C18.3834 23.6167 18.0667 23.7333 17.75 23.7333C17.4334 23.7333 17.1167 23.6167 16.8667 23.3667L14.2 20.6667C13.7167 20.1833 13.7167 19.3833 14.2 18.9C14.6834 18.4167 15.4834 18.4167 15.9667 18.9L17.7667 20.7L24.05 14.4167C24.5334 13.9333 25.3334 13.9333 25.8167 14.4167C26.3 14.9 26.3 15.7167 25.8 16.2Z" fill="#0A77FF"/>
</svg>
