<svg width="24" height="24" viewBox="0 0 24 24" fill="none" xmlns="http://www.w3.org/2000/svg">
<path d="M17.01 7.99997L11 7.99997C10.45 7.99997 9.99999 8.44997 9.99999 8.99997C9.99999 9.54997 10.45 9.99997 11 9.99997L17.01 9.99997V11.79C17.01 12.24 17.55 12.46 17.86 12.14L20.64 9.34997C20.83 9.14997 20.83 8.83997 20.64 8.63997L17.86 5.84997C17.55 5.52997 17.01 5.75997 17.01 6.19997V7.99997ZM3.34999 15.35L6.13999 18.14C6.44999 18.46 6.98999 18.24 6.98999 17.79V16H13C13.55 16 14 15.55 14 15C14 14.45 13.55 14 13 14H6.98999V12.21C6.98999 11.76 6.44999 11.54 6.13999 11.86L3.34999 14.65C3.15999 14.84 3.15999 15.16 3.34999 15.35Z" fill="#514037"/>
</svg>
