<svg width="17" height="16" viewBox="0 0 17 16" fill="none" xmlns="http://www.w3.org/2000/svg">
<g id="Group 5542">
<path id="Path 1212" d="M7.7961 1.20133C7.91569 0.988185 8.0899 0.810744 8.3008 0.687248C8.5117 0.563752 8.7517 0.498657 8.9961 0.498657C9.2405 0.498657 9.48049 0.563752 9.69139 0.687248C9.9023 0.810744 10.0765 0.988185 10.1961 1.20133L16.8021 13.3533C16.9287 13.5677 16.9969 13.8115 16.9999 14.0604C17.0029 14.3094 16.9406 14.5547 16.8192 14.7721C16.6978 14.9894 16.5215 15.1711 16.3079 15.2991C16.0944 15.427 15.851 15.4968 15.6021 15.5013H2.3961C2.14718 15.4968 1.90381 15.427 1.69026 15.2991C1.47671 15.1711 1.30043 14.9894 1.17901 14.7721C1.05759 14.5547 0.995274 14.3094 0.998272 14.0604C1.00127 13.8115 1.06948 13.5677 1.1961 13.3533L7.7961 1.20133Z" fill="#EE0035"/>
<path id="Rectangle 2204" d="M9.99805 5.50232C9.99805 4.95003 9.55033 4.50232 8.99805 4.50232C8.44576 4.50232 7.99805 4.95003 7.99805 5.50232V9.50232C7.99805 10.0546 8.44576 10.5023 8.99805 10.5023C9.55033 10.5023 9.99805 10.0546 9.99805 9.50232V5.50232Z" fill="white"/>
<path id="Rectangle 2205" d="M9.99805 12.8344C9.99805 12.2821 9.55033 11.8344 8.99805 11.8344C8.44576 11.8344 7.99805 12.2821 7.99805 12.8344C7.99805 13.3866 8.44576 13.8344 8.99805 13.8344C9.55033 13.8344 9.99805 13.3866 9.99805 12.8344Z" fill="white"/>
</g>
</svg>
