<svg width="19" height="20" viewBox="0 0 19 20" fill="none" xmlns="http://www.w3.org/2000/svg">
<path fill-rule="evenodd" clip-rule="evenodd" d="M13.1889 1.76442C14.3166 0.599577 16.18 0.584508 17.3265 1.73096C18.4415 2.846 18.4623 4.64734 17.3732 5.78778L15.0577 8.21258C14.9606 8.31417 14.9116 8.36599 14.878 8.40541C14.877 8.40653 14.8761 8.4076 14.8752 8.40864C14.8755 8.40997 14.8757 8.41136 14.876 8.41282C14.8847 8.46386 14.9005 8.53346 14.9321 8.67033L16.372 14.91C16.3761 14.9279 16.3804 14.9463 16.3849 14.9651C16.4323 15.1677 16.4921 15.4226 16.4721 15.6827C16.4547 15.9078 16.3919 16.1269 16.2873 16.3269C16.1664 16.5581 15.9807 16.7426 15.833 16.8892C15.8193 16.9029 15.8059 16.9162 15.7929 16.9292L15.4596 17.2625C15.228 17.4941 15.0154 17.7067 14.8272 17.8634C14.6332 18.0248 14.3689 18.2119 14.0236 18.2729C13.5722 18.3528 13.1078 18.2432 12.7397 17.9698C12.4582 17.7608 12.3054 17.4753 12.2041 17.2442C12.1058 17.0198 12.0108 16.7346 11.9072 16.4238L10.6479 12.6461L8.8136 14.4804C8.72457 14.5694 8.67991 14.6144 8.64905 14.6487C8.64821 14.6496 8.6474 14.6505 8.64663 14.6514C8.6467 14.6525 8.64676 14.6537 8.64684 14.655C8.64956 14.701 8.65631 14.764 8.67021 14.8892L8.8233 16.267C8.82507 16.2829 8.82693 16.2992 8.82885 16.3159C8.84952 16.4969 8.87554 16.7248 8.83923 16.9524C8.80779 17.1495 8.74117 17.3395 8.64256 17.5131C8.52872 17.7135 8.36608 17.8751 8.23687 18.0035C8.22492 18.0154 8.21326 18.027 8.20195 18.0383L8.03737 18.2029L8.01618 18.2241C7.83743 18.4029 7.66722 18.5731 7.51295 18.7026C7.34706 18.8418 7.13097 18.9947 6.8479 19.0684C6.46366 19.1686 6.05629 19.1283 5.69914 18.9547C5.43603 18.8268 5.25412 18.6346 5.11876 18.4655C4.99289 18.3083 4.85939 18.108 4.71919 17.8977L3.39559 15.9123C3.36593 15.8678 3.3514 15.8461 3.34048 15.8305C3.34023 15.8302 3.33998 15.8298 3.33974 15.8295C3.3394 15.8292 3.33905 15.829 3.33868 15.8287C3.3231 15.8178 3.30141 15.8033 3.25691 15.7736L1.27153 14.45C1.06118 14.3098 0.860871 14.1763 0.703672 14.0504C0.53462 13.9151 0.34235 13.7332 0.214496 13.4701C0.0409457 13.1129 0.000607837 12.7055 0.100746 12.3213C0.174518 12.0382 0.327379 11.8221 0.4666 11.6562C0.596065 11.502 0.766307 11.3318 0.945084 11.153L1.13089 10.9672C1.14219 10.9559 1.15377 10.9443 1.16564 10.9323C1.29407 10.8031 1.45572 10.6405 1.65614 10.5266C1.82974 10.428 2.01965 10.3614 2.21682 10.33C2.44443 10.2937 2.67227 10.3197 2.85327 10.3404C2.87 10.3423 2.88633 10.3441 2.90222 10.3459L4.28004 10.499C4.40518 10.5129 4.46824 10.5196 4.51423 10.5224C4.51548 10.5224 4.51669 10.5225 4.51785 10.5226C4.51871 10.5218 4.51961 10.521 4.52054 10.5201C4.55476 10.4893 4.59978 10.4446 4.68881 10.3556L6.52314 8.52126L2.74537 7.26201C2.43456 7.15843 2.14937 7.06339 1.92499 6.96507C1.6939 6.8638 1.40838 6.71099 1.19935 6.42948C0.926046 6.06142 0.816419 5.59703 0.896266 5.14559C0.957335 4.80033 1.14438 4.53596 1.30578 4.34204C1.46249 4.15375 1.67508 3.9412 1.90675 3.70956C1.91482 3.7015 1.9229 3.69342 1.93101 3.68531L2.23998 3.37633C2.25299 3.36333 2.26632 3.34991 2.27997 3.33616C2.4266 3.18851 2.61105 3.00278 2.84225 2.8819C3.04227 2.77733 3.26144 2.71447 3.48648 2.69714C3.7466 2.67711 4.00145 2.73685 4.20404 2.78434C4.22291 2.78876 4.24132 2.79308 4.25924 2.79722L10.4752 4.23166C10.6132 4.26351 10.6836 4.27945 10.7353 4.28834C10.7368 4.28861 10.7383 4.28885 10.7397 4.28909C10.7407 4.28813 10.7418 4.28713 10.743 4.28607C10.7815 4.25052 10.832 4.19885 10.9305 4.0971L13.1889 1.76442ZM16.1479 2.90947C15.6598 2.42135 14.8665 2.42777 14.3863 2.92372L12.1279 5.2564C12.1153 5.2694 12.1024 5.28281 12.0892 5.29654C11.9475 5.44389 11.7694 5.62909 11.5454 5.75257C11.334 5.8691 11.0998 5.93831 10.859 5.95543C10.6039 5.97358 10.3538 5.91495 10.1547 5.86831C10.1362 5.86396 10.1181 5.85972 10.1004 5.85565L3.88448 4.4212C3.74403 4.38879 3.67244 4.3726 3.61994 4.36363C3.61843 4.36337 3.61699 4.36313 3.6156 4.3629C3.61455 4.36382 3.61345 4.3648 3.61231 4.36582C3.57254 4.40125 3.52042 4.45292 3.4185 4.55484L3.10952 4.86382C2.84546 5.12787 2.68862 5.28589 2.5868 5.40823C2.58094 5.41527 2.57554 5.42188 2.57057 5.42806C2.57778 5.43137 2.58557 5.43487 2.59396 5.43855C2.73974 5.50243 2.95069 5.57362 3.30496 5.69171L8.32936 7.36651C8.60335 7.45784 8.81052 7.68453 8.87688 7.96562C8.94323 8.24671 8.85931 8.54212 8.65509 8.74634L5.86732 11.5341C5.85602 11.5454 5.84443 11.5571 5.83256 11.569C5.70413 11.6982 5.54248 11.8609 5.34207 11.9747C5.16846 12.0733 4.97855 12.1399 4.78139 12.1714C4.55377 12.2077 4.32594 12.1817 4.14493 12.161C4.12821 12.1591 4.11188 12.1572 4.09599 12.1555L2.71817 12.0024C2.59302 11.9885 2.52997 11.9817 2.48398 11.979C2.48272 11.9789 2.48152 11.9788 2.48036 11.9788C2.4795 11.9796 2.4786 11.9804 2.47766 11.9812C2.44345 12.0121 2.39843 12.0567 2.3094 12.1458L2.14481 12.3103C1.93708 12.5181 1.82005 12.6362 1.74325 12.7277C1.73971 12.7319 1.73641 12.7359 1.73333 12.7396C1.73709 12.7427 1.74111 12.746 1.74541 12.7494C1.83866 12.8241 1.97658 12.917 2.22101 13.0799L4.18142 14.3869C4.18699 14.3906 4.19273 14.3944 4.1986 14.3983C4.26347 14.4414 4.34521 14.4957 4.422 14.5613C4.48878 14.6183 4.55094 14.6804 4.60792 14.7472C4.67345 14.824 4.72778 14.9057 4.77092 14.9706C4.77482 14.9765 4.77862 14.9822 4.78234 14.9878L6.08928 16.9482C6.25223 17.1926 6.34507 17.3305 6.41975 17.4238C6.42319 17.4281 6.42646 17.4321 6.42955 17.4359C6.43332 17.4328 6.43731 17.4295 6.44153 17.4259C6.53304 17.3491 6.65112 17.2321 6.85885 17.0244L7.02344 16.8598C7.11247 16.7708 7.15714 16.7257 7.18799 16.6915C7.18883 16.6906 7.18964 16.6897 7.19041 16.6888C7.19035 16.6877 7.19028 16.6865 7.1902 16.6852C7.18749 16.6392 7.18074 16.5762 7.16683 16.451L7.01374 15.0732C7.01197 15.0573 7.01011 15.041 7.0082 15.0243C6.98753 14.8433 6.96151 14.6154 6.99781 14.3878C7.02926 14.1906 7.09587 14.0007 7.19449 13.8271C7.30833 13.6267 7.47097 13.4651 7.60019 13.3366C7.61213 13.3248 7.62378 13.3132 7.63509 13.3019L10.4229 10.5141C10.6271 10.3099 10.9225 10.226 11.2036 10.2923C11.4847 10.3587 11.7114 10.5658 11.8027 10.8398L13.4775 15.8642C13.5956 16.2185 13.6668 16.4295 13.7307 16.5752C13.7343 16.5836 13.7378 16.5914 13.7411 16.5986C13.7473 16.5937 13.7539 16.5883 13.761 16.5824C13.8833 16.4806 14.0413 16.3237 14.3054 16.0597L14.6144 15.7507C14.7163 15.6488 14.768 15.5967 14.8034 15.5569C14.8044 15.5557 14.8054 15.5546 14.8063 15.5536C14.8061 15.5522 14.8058 15.5508 14.8056 15.5493C14.7966 15.4968 14.7804 15.4252 14.748 15.2847L13.3081 9.04509C13.3041 9.02765 13.2999 9.00972 13.2956 8.99136C13.2493 8.79383 13.191 8.54533 13.2088 8.29111C13.2243 8.07112 13.2832 7.85637 13.3822 7.65931C13.4966 7.43159 13.6735 7.2476 13.8141 7.10136C13.8272 7.08776 13.8399 7.07449 13.8523 7.06154L16.1679 4.63674C16.6315 4.15118 16.6227 3.38422 16.1479 2.90947Z" fill="#1D1B20"/>
</svg>
