<svg width="24" height="24" viewBox="0 0 24 24" fill="none" xmlns="http://www.w3.org/2000/svg">
<path d="M13.3699 20.0501L15.3799 15.3801L15.8199 14.3401C15.8999 14.1801 16.1099 14.0401 16.2899 14.0401H19.3499C20.3099 14.0401 21.4499 13.3301 21.8899 12.4701C22.0399 12.1701 22.0399 11.8101 21.8899 11.5101C21.4499 10.6601 20.2999 9.95006 19.3399 9.95006H16.2799C16.0999 9.95006 15.8899 9.81006 15.8099 9.65006L13.3599 3.95006C13.0999 3.32006 12.3099 2.81006 11.6299 2.81006L10.3099 2.81006C9.45994 2.81006 9.03994 3.45006 9.37994 4.24006L11.5399 9.25006C11.7099 9.64006 11.4999 9.96006 11.0699 9.96006H9.95994H8.15994C7.92994 9.96006 7.59994 9.83006 7.43994 9.67006L5.10994 7.35006C4.86994 7.11006 4.39994 7.00006 4.05994 7.11006L2.69994 7.56006C2.10994 7.74006 1.82994 8.41006 2.10994 8.96006L4.10994 11.3401C4.41994 11.7001 4.41994 12.2901 4.10994 12.6501L2.10994 15.0301C1.83994 15.5801 2.10994 16.2501 2.69994 16.4501L4.05994 16.9001C4.38994 17.0101 4.86994 16.9001 5.10994 16.6601L7.43994 14.3401C7.59994 14.1701 7.92994 14.0401 8.15994 14.0401H11.0699C11.4999 14.0401 11.6999 14.3501 11.5399 14.7501L9.37994 19.7601C9.03994 20.5501 9.45994 21.1901 10.3099 21.1901H11.6299C12.3099 21.1901 13.0999 20.6801 13.3699 20.0501Z" fill="#7D8590"/>
</svg>
