<svg width="18" height="14" viewBox="0 0 18 14" fill="none" xmlns="http://www.w3.org/2000/svg">
<path d="M14.01 2.99997L8.00002 2.99997C7.45002 2.99997 7.00002 3.44997 7.00002 3.99997C7.00002 4.54997 7.45002 4.99997 8.00002 4.99997L14.01 4.99997V6.78997C14.01 7.23997 14.55 7.45997 14.86 7.13997L17.64 4.34997C17.83 4.14997 17.83 3.83997 17.64 3.63997L14.86 0.84997C14.55 0.52997 14.01 0.759971 14.01 1.19997V2.99997ZM0.35002 10.35L3.14002 13.14C3.45002 13.46 3.99002 13.24 3.99002 12.79V11H10C10.55 11 11 10.55 11 9.99997C11 9.44997 10.55 8.99997 10 8.99997H3.99002V7.20997C3.99002 6.75997 3.45002 6.53997 3.14002 6.85997L0.35002 9.64997C0.16002 9.83997 0.16002 10.16 0.35002 10.35Z" fill="#514037"/>
</svg>
