<svg width="20" height="20" viewBox="0 0 20 20" fill="none" xmlns="http://www.w3.org/2000/svg">
<path d="M9.99935 18.9584C5.05768 18.9584 1.04102 14.9417 1.04102 10.0001C1.04102 5.05841 5.05768 1.04175 9.99935 1.04175C14.941 1.04175 18.9577 5.05841 18.9577 10.0001C18.9577 14.9417 14.941 18.9584 9.99935 18.9584ZM9.99935 2.29175C5.74935 2.29175 2.29102 5.75008 2.29102 10.0001C2.29102 14.2501 5.74935 17.7084 9.99935 17.7084C14.2493 17.7084 17.7077 14.2501 17.7077 10.0001C17.7077 5.75008 14.2493 2.29175 9.99935 2.29175Z" fill="#605D64"/>
<path d="M13.0909 13.275C12.9826 13.275 12.8742 13.25 12.7742 13.1833L10.1909 11.6416C9.54922 11.2583 9.07422 10.4166 9.07422 9.67497V6.2583C9.07422 5.91663 9.35755 5.6333 9.69922 5.6333C10.0409 5.6333 10.3242 5.91663 10.3242 6.2583V9.67497C10.3242 9.97497 10.5742 10.4166 10.8326 10.5666L13.4159 12.1083C13.7159 12.2833 13.8076 12.6666 13.6326 12.9666C13.5076 13.1666 13.2992 13.275 13.0909 13.275Z" fill="#605D64"/>
</svg>
