<svg width="24" height="24" viewBox="0 0 24 24" fill="none" xmlns="http://www.w3.org/2000/svg">
<g clip-path="url(#clip0_5472_35176)">
<path d="M5.51888 9.53262L5.51856 9.53265C3.23086 9.76931 1.51001 11.6966 1.51001 14C1.51001 16.4861 3.52387 18.5 6.01001 18.5H19.01C20.9362 18.5 22.51 16.9261 22.51 15C22.51 13.1842 21.0838 11.6697 19.2656 11.5413C19.2654 11.5413 19.2653 11.5412 19.2652 11.5412L18.1257 11.4588L17.9004 10.3327C17.3438 7.52758 14.8576 5.5 12.01 5.5C9.76386 5.5 7.72263 6.7435 6.69642 8.73928L6.32234 9.45002L5.51888 9.53262ZM5.40304 8.53718L5.66962 8.50874L5.79347 8.27097C6.96054 6.03019 9.31321 4.5 12.01 4.5C15.4062 4.5 18.2354 6.91632 18.8797 10.1381L18.9546 10.5123L19.3353 10.5388C21.6678 10.7009 23.51 12.6272 23.51 15C23.51 17.4839 21.4939 19.5 19.01 19.5H6.01001C2.97615 19.5 0.51001 17.0339 0.51001 14C0.51001 11.1673 2.65551 8.83025 5.40304 8.53718Z" fill="#605D64" stroke="#605D64"/>
</g>
<defs>
<clipPath id="clip0_5472_35176">
<rect width="24" height="24" fill="white"/>
</clipPath>
</defs>
</svg>
