<svg width="25" height="24" viewBox="0 0 25 24" fill="none" xmlns="http://www.w3.org/2000/svg">
<path d="M15.3307 9H9.33075V15H15.3307V9ZM13.3307 13H11.3307V11H13.3307V13ZM21.3307 11V9H19.3307V7C19.3307 5.9 18.4307 5 17.3307 5H15.3307V3H13.3307V5H11.3307V3H9.33075V5H7.33075C6.23075 5 5.33075 5.9 5.33075 7V9H3.33075V11H5.33075V13H3.33075V15H5.33075V17C5.33075 18.1 6.23075 19 7.33075 19H9.33075V21H11.3307V19H13.3307V21H15.3307V19H17.3307C18.4307 19 19.3307 18.1 19.3307 17V15H21.3307V13H19.3307V11H21.3307ZM17.3307 17H7.33075V7H17.3307V17Z" fill="white"/>
</svg>
