<svg width="28" height="28" viewBox="0 0 28 28" fill="none" xmlns="http://www.w3.org/2000/svg">
<path d="M22.575 11.7133C21.7817 7.68829 18.2467 4.66663 14 4.66663C10.6283 4.66663 7.7 6.57996 6.24167 9.37996C2.73 9.75329 0 12.7283 0 16.3333C0 20.195 3.13833 23.3333 7 23.3333H22.1667C25.3867 23.3333 28 20.72 28 17.5C28 14.42 25.6083 11.9233 22.575 11.7133ZM22.1667 21H7C4.42167 21 2.33333 18.9116 2.33333 16.3333C2.33333 13.9416 4.11833 11.9466 6.48667 11.7016L7.735 11.5733L8.31833 10.465C9.42667 8.32996 11.5967 6.99996 14 6.99996C17.0567 6.99996 19.6933 9.16996 20.2883 12.1683L20.6383 13.9183L22.4233 14.0466C24.2433 14.1633 25.6667 15.6916 25.6667 17.5C25.6667 19.425 24.0917 21 22.1667 21ZM15.6917 11.6666H12.3083V15.1666H9.33333L14 19.8333L18.6667 15.1666H15.6917V11.6666Z" fill="#307FF8"/>
</svg>
