<svg width="20" height="20" viewBox="0 0 20 20" fill="none" xmlns="http://www.w3.org/2000/svg">
<g clip-path="url(#clip0_4826_15002)">
<path fill-rule="evenodd" clip-rule="evenodd" d="M14.83 1.49426C15.8458 0.478473 17.4927 0.478475 18.5085 1.49427C19.5243 2.51006 19.5243 4.15699 18.5085 5.17278L10.5396 13.1417C10.5231 13.1582 10.5067 13.1746 10.4905 13.1908C10.251 13.4308 10.0398 13.6424 9.78516 13.7985C9.56148 13.9355 9.31762 14.0365 9.06253 14.0978C8.77216 14.1675 8.4732 14.1672 8.13412 14.1669C8.11117 14.1669 8.08803 14.1669 8.0647 14.1669H6.66925C6.20901 14.1669 5.83592 13.7938 5.83592 13.3335V11.9381C5.83592 11.9148 5.83589 11.8916 5.83587 11.8687C5.83556 11.5296 5.83528 11.2306 5.90499 10.9403C5.96623 10.6852 6.06725 10.4413 6.20432 10.2176C6.36035 9.96301 6.57194 9.75182 6.81193 9.51227C6.82817 9.49606 6.84455 9.47971 6.86104 9.46322L14.83 1.49426ZM17.33 2.67278C16.9651 2.30786 16.3734 2.30786 16.0085 2.67278L8.03956 10.6417C7.72325 10.958 7.66493 11.0239 7.62538 11.0885C7.57969 11.163 7.54602 11.2443 7.52561 11.3293C7.50794 11.4029 7.50258 11.4908 7.50258 11.9381V12.5002H8.0647C8.51202 12.5002 8.59985 12.4948 8.67345 12.4772C8.75848 12.4567 8.83977 12.4231 8.91433 12.3774C8.97887 12.3378 9.04476 12.2795 9.36106 11.9632L17.33 3.99427C17.6949 3.62935 17.6949 3.0377 17.33 2.67278ZM5.63486 2.50019L9.16927 2.50019C9.62951 2.50019 10.0026 2.87329 10.0026 3.33352C10.0026 3.79376 9.62951 4.16686 9.16927 4.16686H5.66927C4.95546 4.16686 4.47021 4.1675 4.09514 4.19815C3.72979 4.228 3.54295 4.2821 3.41262 4.34851C3.09902 4.5083 2.84405 4.76327 2.68426 5.07687C2.61785 5.20721 2.56375 5.39404 2.5339 5.75939C2.50325 6.13446 2.5026 6.61971 2.5026 7.33352V14.3335C2.5026 15.0473 2.50325 15.5326 2.5339 15.9077C2.56375 16.273 2.61785 16.4598 2.68426 16.5902C2.84405 16.9038 3.09902 17.1587 3.41262 17.3185C3.54295 17.3849 3.72979 17.439 4.09514 17.4689C4.47021 17.4995 4.95545 17.5002 5.66927 17.5002H12.6693C13.3831 17.5002 13.8683 17.4995 14.2434 17.4689C14.6088 17.439 14.7956 17.3849 14.9259 17.3185C15.2395 17.1587 15.4945 16.9038 15.6543 16.5902C15.7207 16.4598 15.7748 16.273 15.8046 15.9077C15.8353 15.5326 15.8359 15.0473 15.8359 14.3335V10.8335C15.8359 10.3733 16.209 10.0002 16.6693 10.0002C17.1295 10.0002 17.5026 10.3733 17.5026 10.8335V14.368C17.5026 15.0388 17.5026 15.5924 17.4658 16.0434C17.4275 16.5118 17.3454 16.9424 17.1393 17.3468C16.8197 17.974 16.3098 18.484 15.6826 18.8035C15.2781 19.0096 14.8475 19.0918 14.3791 19.13C13.9281 19.1669 13.3745 19.1669 12.7037 19.1669H5.63483C4.96404 19.1669 4.41041 19.1669 3.95942 19.13C3.491 19.0918 3.06042 19.0096 2.65597 18.8035C2.02876 18.484 1.51883 17.974 1.19925 17.3468C0.993174 16.9424 0.911037 16.5118 0.872766 16.0434C0.835918 15.5924 0.835927 15.0387 0.835938 14.3679V7.29911C0.835927 6.6283 0.835918 6.07466 0.872766 5.62367C0.911037 5.15525 0.993174 4.72467 1.19925 4.32022C1.51883 3.69301 2.02876 3.18308 2.65597 2.8635C3.06042 2.65743 3.491 2.57529 3.95942 2.53702C4.41041 2.50017 4.96405 2.50018 5.63486 2.50019Z" fill="black"/>
</g>
<defs>
<clipPath id="clip0_4826_15002">
<rect width="20" height="20" fill="white"/>
</clipPath>
</defs>
</svg>
