<svg width="20" height="20" viewBox="0 0 20 20" fill="none" xmlns="http://www.w3.org/2000/svg">
<path d="M12.7164 18.5417H7.28307C3.19141 18.5417 1.44141 16.7917 1.44141 12.7001V12.5917C1.44141 8.89173 2.89974 7.1084 6.16641 6.80006C6.49974 6.77506 6.81641 7.02506 6.84974 7.36673C6.88307 7.7084 6.63307 8.01673 6.28307 8.05006C3.66641 8.29173 2.69141 9.52506 2.69141 12.6001V12.7084C2.69141 16.1001 3.89141 17.3001 7.28307 17.3001H12.7164C16.1081 17.3001 17.3081 16.1001 17.3081 12.7084V12.6001C17.3081 9.5084 16.3164 8.27506 13.6497 8.05006C13.3081 8.01673 13.0497 7.71673 13.0831 7.37506C13.1164 7.0334 13.4081 6.77506 13.7581 6.8084C17.0747 7.09173 18.5581 8.8834 18.5581 12.6084V12.7167C18.5581 16.7917 16.8081 18.5417 12.7164 18.5417Z" fill="#605D64"/>
<path d="M10 13.1249C9.65833 13.1249 9.375 12.8416 9.375 12.4999V3.0166C9.375 2.67493 9.65833 2.3916 10 2.3916C10.3417 2.3916 10.625 2.67493 10.625 3.0166V12.4999C10.625 12.8416 10.3417 13.1249 10 13.1249Z" fill="#605D64"/>
<path d="M12.7922 5.50003C12.6339 5.50003 12.4755 5.4417 12.3505 5.3167L10.0005 2.9667L7.65052 5.3167C7.40885 5.55837 7.00885 5.55837 6.76719 5.3167C6.52552 5.07503 6.52552 4.67503 6.76719 4.43337L9.55885 1.6417C9.80052 1.40003 10.2005 1.40003 10.4422 1.6417L13.2339 4.43337C13.4755 4.67503 13.4755 5.07503 13.2339 5.3167C13.1172 5.4417 12.9505 5.50003 12.7922 5.50003Z" fill="#605D64"/>
</svg>
