<svg width="24" height="24" viewBox="0 0 24 24" fill="none" xmlns="http://www.w3.org/2000/svg">
<g clip-path="url(#clip0_4903_3979)">
<rect width="24" height="24" rx="12" fill="white"/>
<path fill-rule="evenodd" clip-rule="evenodd" d="M-4 0V24H28V0H-4Z" fill="#F7FCFF"/>
<mask id="mask0_4903_3979" style="mask-type:luminance" maskUnits="userSpaceOnUse" x="-4" y="0" width="32" height="24">
<path fill-rule="evenodd" clip-rule="evenodd" d="M-4 0V24H28V0H-4Z" fill="white"/>
</mask>
<g mask="url(#mask0_4903_3979)">
<path fill-rule="evenodd" clip-rule="evenodd" d="M-4 0V8H28V0H-4Z" fill="#5EAA22"/>
<path fill-rule="evenodd" clip-rule="evenodd" d="M-4 16V24H28V16H-4Z" fill="#E31D1C"/>
<path fill-rule="evenodd" clip-rule="evenodd" d="M0.600676 16.3916V17.0255H-1.73009V16.3916H0.600676ZM-3.4343 17.9838H-3.64127V17.7306H-3.18658V18.6177H-2.60708V18.6245H-2.04564V16.7829H-2.40437V17.9906H-2.45976V16.6869H-2.81849V17.9838H-2.82785V17.7306V16.6869H-3.18658V17.0967H-4V18.6177H-3.82064H-3.4343V17.9838ZM-1.93347 18.3392H-1.57475V17.7107H-1.17475V18.6243H-0.0493345V17.0778H-0.626465V17.7117H-0.408063V17.9905H-0.816017V17.0768H-1.93347V18.3392ZM0.358489 17.9838H0.565462V18.6177H0.179125H-0.000239611V17.0967H0.813182V16.6869H1.17191V17.7306V17.9838H1.18127V16.6869H1.54V17.9906H1.59539V16.7829H1.95412V18.6245H1.39268V18.6177H0.813182V17.7306H0.358489V17.9838ZM4.60044 16.3916V17.0255H2.26967V16.3916H4.60044ZM2.06629 18.3392H2.42502V17.7107H2.82501V18.6243H3.95043V17.0778H3.3733V17.7117H3.5917V17.9905H3.18374V17.0768H2.06629V18.3392ZM4.42967 17.9838H4.63665V18.6177H4.25031H4.07094V17.0967H4.88437V16.6869H5.2431V17.7306V17.9838H5.25246V16.6869H5.61119V17.9906H5.66658V16.7829H6.02531V18.6245H5.46386V18.6177H4.88437V17.7306H4.42967V17.9838ZM8.67162 16.3916V17.0255H6.34086V16.3916H8.67162ZM6.13747 18.3392H6.4962V17.7107H6.8962V18.6243H8.02161V17.0778H7.44448V17.7117H7.66288V17.9905H7.25493V17.0768H6.13747V18.3392ZM8.42943 17.9838H8.63641V18.6177H8.25007H8.07071V17.0967H8.88413V16.6869H9.24286V17.7306V17.9838H9.25222V16.6869H9.61095V17.9906H9.66634V16.7829H10.0251V18.6245H9.46362V18.6177H8.88413V17.7306H8.42943V17.9838ZM12.6714 16.3916V17.0255H10.3406V16.3916H12.6714ZM10.1372 18.3392H10.496V17.7107H10.896V18.6243H12.0214V17.0778H11.4442V17.7117H11.6626V17.9905H11.2547V17.0768H10.1372V18.3392ZM12.4292 17.9838H12.6362V18.6177H12.2498H12.0705V17.0967H12.8839V16.6869H13.2426V17.7306V17.9838H13.252V16.6869H13.6107V17.9906H13.6661V16.7829H14.0248V18.6245H13.4634V18.6177H12.8839V17.7306H12.4292V17.9838ZM16.6711 16.3916V17.0255H14.3404V16.3916H16.6711ZM14.137 18.3392H14.4957V17.7107H14.8957V18.6243H16.0211V17.0778H15.444V17.7117H15.6624V17.9905H15.2544V17.0768H14.137V18.3392ZM16.5004 17.9838H16.7074V18.6177H16.321H16.1417V17.0967H16.9551V16.6869H17.3138V17.7306V17.9838H17.3232V16.6869H17.6819V17.9906H17.7373V16.7829H18.096V18.6245H17.5346V18.6177H16.9551V17.7306H16.5004V17.9838ZM20.7423 16.3916V17.0255H18.4116V16.3916H20.7423ZM18.2082 18.3392H18.5669V17.7107H18.9669V18.6243H20.0923V17.0778H19.5152V17.7117H19.7336V17.9905H19.3256V17.0768H18.2082V18.3392ZM20.5716 17.9838H20.7785V18.6177H20.3922H20.2128V17.0967H21.0263V16.6869H21.385V17.7306V17.9838H21.3944V16.6869H21.7531V17.9906H21.8085V16.7829H22.1672V18.6245H21.6058V18.6177H21.0263V17.7306H20.5716V17.9838ZM24.8135 16.3916V17.0255H22.4827V16.3916H24.8135ZM22.2794 18.3392H22.6381V17.7107H23.0381V18.6243H24.1635V17.0778H23.5864V17.7117H23.8048V17.9905H23.3968V17.0768H22.2794V18.3392ZM24.6427 17.9838H24.8497V18.6177H24.4634H24.284V17.0967H25.0974V16.6869H25.4562V17.7306V17.9838H25.4655V16.6869H25.8243V17.9906H25.8797V16.7829H26.2384V18.6245H25.6769V18.6177H25.0974V17.7306H24.6427V17.9838ZM28.8847 16.3916V17.0255H26.5539V16.3916H28.8847ZM26.3505 18.3392H26.7093V17.7107H27.1093V18.6243H28.2347V17.0778H27.6576V17.7117H27.876V17.9905H27.468V17.0768H26.3505V18.3392ZM28.6425 17.9838H28.8495V18.6177H28.4631H28.2838V17.0967H29.0972V16.6869H29.4559V17.7306V17.9838H29.4653V16.6869H29.824V17.9906H29.8794V16.7829H30.2381V18.6245H29.6767V18.6177H29.0972V17.7306H28.6425V17.9838ZM32.8845 16.3916V17.0255H30.5537V16.3916H32.8845ZM30.3503 18.3392H30.709V17.7107H31.109V18.6243H32.2344V17.0778H31.6573V17.7117H31.8757V17.9905H31.4678V17.0768H30.3503V18.3392ZM32.8565 17.9838H33.0635V18.6177H32.6772H32.4978V17.0967H33.3112V16.6869H33.67V17.7306V17.9838H33.6793V16.6869H34.0381V17.9906H34.0934V16.7829H34.4522V18.6245H33.8907V18.6177H33.3112V17.7306H32.8565V17.9838ZM37.0985 16.3916V17.0255H34.7677V16.3916H37.0985ZM34.5643 18.3392H34.9231V17.7107H35.3231V18.6243H36.4485V17.0778H35.8713V17.7117H36.0897V17.9905H35.6818V17.0768H34.5643V18.3392Z" fill="#F7FCFF"/>
<path fill-rule="evenodd" clip-rule="evenodd" d="M-3.51553 5.3916V6.02548H-5.8463V5.3916H-3.51553ZM-7.55051 6.98384H-7.75748V6.7306H-7.30279V7.61772H-6.72329V7.62452H-6.16185V5.78293H-6.52058V6.99064H-6.57597V5.68693H-6.9347V6.98384H-6.94406V6.7306V5.68693H-7.30279V6.09672H-8.11621V7.61772H-7.93685H-7.55051V6.98384ZM-6.04968 7.33915H-5.69096V6.7107H-5.29096V7.62435H-4.16555V6.07783H-4.74268V6.71171H-4.52427V6.99047H-4.93223V6.07682H-6.04968V7.33915ZM-3.75772 6.98384H-3.55075V7.61772H-3.93709H-4.11645V6.09672H-3.30303V5.68693H-2.9443V6.7306V6.98384H-2.93494V5.68693H-2.57621V6.99064H-2.52082V5.78293H-2.16209V7.62452H-2.72353V7.61772H-3.30303V6.7306H-3.75772V6.98384ZM0.484225 5.3916V6.02548H-1.84654V5.3916H0.484225ZM-2.04992 7.33915H-1.6912V6.7107H-1.2912V7.62435H-0.165785V6.07783H-0.742915V6.71171H-0.524513V6.99047H-0.932467V6.07682H-2.04992V7.33915ZM0.313462 6.98384H0.520435V7.61772H0.134098H-0.0452662V6.09672H0.768156V5.68693H1.12688V6.7306V6.98384H1.13625V5.68693H1.49498V6.99064H1.55037V5.78293H1.9091V7.62452H1.34765V7.61772H0.768156V6.7306H0.313462V6.98384ZM4.55541 5.3916V6.02548H2.22465V5.3916H4.55541ZM2.02126 7.33915H2.37999V6.7107H2.77999V7.62435H3.9054V6.07783H3.32827V6.71171H3.54667V6.99047H3.13872V6.07682H2.02126V7.33915ZM4.31322 6.98384H4.5202V7.61772H4.13386H3.95449V6.09672H4.76792V5.68693H5.12665V6.7306V6.98384H5.13601V5.68693H5.49474V6.99064H5.55013V5.78293H5.90886V7.62452H5.34741V7.61772H4.76792V6.7306H4.31322V6.98384ZM8.55517 5.3916V6.02548H6.22441V5.3916H8.55517ZM6.02102 7.33915H6.37975V6.7107H6.77975V7.62435H7.90516V6.07783H7.32803V6.71171H7.54643V6.99047H7.13848V6.07682H6.02102V7.33915ZM8.31298 6.98384H8.51996V7.61772H8.13362H7.95425V6.09672H8.76768V5.68693H9.1264V6.7306V6.98384H9.13577V5.68693H9.4945V6.99064H9.54989V5.78293H9.90862V7.62452H9.34717V7.61772H8.76768V6.7306H8.31298V6.98384ZM12.5549 5.3916V6.02548H10.2242V5.3916H12.5549ZM10.0208 7.33915H10.3795V6.7107H10.7795V7.62435H11.9049V6.07783H11.3278V6.71171H11.5462V6.99047H11.1382V6.07682H10.0208V7.33915ZM12.3842 6.98384H12.5911V7.61772H12.2048H12.0254V6.09672H12.8389V5.68693H13.1976V6.7306V6.98384H13.207V5.68693H13.5657V6.99064H13.6211V5.78293H13.9798V7.62452H13.4184V7.61772H12.8389V6.7306H12.3842V6.98384ZM16.6261 5.3916V6.02548H14.2954V5.3916H16.6261ZM14.092 7.33915H14.4507V6.7107H14.8507V7.62435H15.9761V6.07783H15.399V6.71171H15.6174V6.99047H15.2094V6.07682H14.092V7.33915ZM16.4554 6.98384H16.6623V7.61772H16.276H16.0966V6.09672H16.91V5.68693H17.2688V6.7306V6.98384H17.2781V5.68693H17.6369V6.99064H17.6923V5.78293H18.051V7.62452H17.4895V7.61772H16.91V6.7306H16.4554V6.98384ZM20.6973 5.3916V6.02548H18.3665V5.3916H20.6973ZM18.1632 7.33915H18.5219V6.7107H18.9219V7.62435H20.0473V6.07783H19.4702V6.71171H19.6886V6.99047H19.2806V6.07682H18.1632V7.33915ZM20.5265 6.98384H20.7335V7.61772H20.3472H20.1678V6.09672H20.9812V5.68693H21.34V6.7306V6.98384H21.3493V5.68693H21.7081V6.99064H21.7634V5.78293H22.1222V7.62452H21.5607V7.61772H20.9812V6.7306H20.5265V6.98384ZM24.7685 5.3916V6.02548H22.4377V5.3916H24.7685ZM22.2343 7.33915H22.5931V6.7107H22.9931V7.62435H24.1185V6.07783H23.5413V6.71171H23.7597V6.99047H23.3518V6.07682H22.2343V7.33915ZM24.5263 6.98384H24.7333V7.61772H24.3469H24.1676V6.09672H24.981V5.68693H25.3397V6.7306V6.98384H25.3491V5.68693H25.7078V6.99064H25.7632V5.78293H26.1219V7.62452H25.5605V7.61772H24.981V6.7306H24.5263V6.98384ZM28.7682 5.3916V6.02548H26.4375V5.3916H28.7682ZM26.2341 7.33915H26.5928V6.7107H26.9928V7.62435H28.1182V6.07783H27.5411V6.71171H27.7595V6.99047H27.3516V6.07682H26.2341V7.33915ZM28.7403 6.98384H28.9473V7.61772H28.561H28.3816V6.09672H29.195V5.68693H29.5538V6.7306V6.98384H29.5631V5.68693H29.9218V6.99064H29.9772V5.78293H30.336V7.62452H29.7745V7.61772H29.195V6.7306H28.7403V6.98384ZM32.9823 5.3916V6.02548H30.6515V5.3916H32.9823ZM30.4481 7.33915H30.8069V6.7107H31.2069V7.62435H32.3323V6.07783H31.7551V6.71171H31.9735V6.99047H31.5656V6.07682H30.4481V7.33915Z" fill="#F7FCFF"/>
<path fill-rule="evenodd" clip-rule="evenodd" d="M10.6059 8.25C10.6059 8.25 11.0333 8.475 11.4707 8.475C11.908 8.475 12.3481 8.25 12.3481 8.25V8.55C12.3481 8.55 11.8677 8.775 11.4422 8.775C11.0167 8.775 10.6059 8.55 10.6059 8.55V8.25ZM7.45605 11.7906C7.45605 10.0126 9.89804 8.85 9.89804 8.85C9.89804 8.85 8.48662 9.60621 8.48662 11.7161C8.48662 13.826 9.21932 14.7397 9.21932 14.7397C9.21932 14.7397 7.45605 13.5686 7.45605 11.7906ZM15.6937 11.6925C15.6937 9.91448 13.254 8.85 13.254 8.85C13.254 8.85 14.6655 9.60621 14.6655 11.7161C14.6655 13.826 13.9328 14.7397 13.9328 14.7397C13.9328 14.7397 15.6937 13.4705 15.6937 11.6925ZM9.12316 12.1776C9.03011 10.402 10.5072 8.81052 10.5072 8.81052C10.5072 8.81052 9.96957 9.54185 10.08 11.6488C10.1179 12.3723 10.4029 13.4486 10.7619 14.0832V8.925H12.2619V14.1279C12.6214 13.5352 12.8983 12.5246 12.9368 11.7906C13.0472 9.68361 12.5354 8.81052 12.5354 8.81052C12.5354 8.81052 14.0125 10.402 13.9194 12.1776C13.864 13.2351 13.0503 14.3534 12.4012 15.0851C12.7166 15.1554 13.1394 15.2411 13.7205 15.3559C13.7329 15.4202 13.6034 15.4172 13.3461 15.4113C13.062 15.4047 12.6221 15.3946 12.0453 15.4675C11.7801 15.7393 11.5955 15.9004 11.5955 15.9004C11.5955 15.9004 11.5664 15.861 11.5213 15.8064C11.4762 15.861 11.447 15.9004 11.447 15.9004C11.447 15.9004 11.2625 15.7393 10.9973 15.4675C10.4205 15.3946 9.9806 15.4047 9.69649 15.4113C9.43918 15.4172 9.30968 15.4202 9.32208 15.3559C9.90322 15.2411 10.326 15.1554 10.6414 15.0851C9.99228 14.3534 9.17858 13.2351 9.12316 12.1776Z" fill="#E31D1C"/>
</g>
</g>
<defs>
<clipPath id="clip0_4903_3979">
<rect width="24" height="24" rx="12" fill="white"/>
</clipPath>
</defs>
</svg>
