<svg width="25" height="24" viewBox="0 0 25 24" fill="none" xmlns="http://www.w3.org/2000/svg">
<path d="M12.0615 1.01999C7.28147 1.32999 3.66147 5.51999 3.66147 10.31V17C3.66147 18.66 5.00147 20 6.66147 20H7.66147C8.76147 20 9.66147 19.1 9.66147 18V14C9.66147 12.9 8.76147 12 7.66147 12H5.66147V10.29C5.66147 6.44999 8.62147 3.10999 12.4515 2.99999C16.4215 2.88999 19.6615 6.05999 19.6615 9.99999V12H17.6615C16.5615 12 15.6615 12.9 15.6615 14V18C15.6615 19.1 16.5615 20 17.6615 20H19.6615V21H13.6615C13.1115 21 12.6615 21.45 12.6615 22C12.6615 22.55 13.1115 23 13.6615 23H18.6615C20.3215 23 21.6615 21.66 21.6615 20V9.99999C21.6615 4.82999 17.3015 0.67999 12.0615 1.01999Z" fill="white"/>
</svg>
