<svg width="24" height="24" viewBox="0 0 24 24" fill="none" xmlns="http://www.w3.org/2000/svg">
<g clip-path="url(#clip0_6617_16822)">
<rect width="24" height="24" rx="12" fill="white"/>
<path fill-rule="evenodd" clip-rule="evenodd" d="M-4 0V24H28V0H-4Z" fill="#F7FCFF"/>
<mask id="mask0_6617_16822" style="mask-type:luminance" maskUnits="userSpaceOnUse" x="-4" y="0" width="32" height="24">
<path fill-rule="evenodd" clip-rule="evenodd" d="M-4 0V24H28V0H-4Z" fill="white"/>
</mask>
<g mask="url(#mask0_6617_16822)">
<path fill-rule="evenodd" clip-rule="evenodd" d="M-4 0V8H28V0H-4Z" fill="#5EAA22"/>
<path fill-rule="evenodd" clip-rule="evenodd" d="M-4 16V24H28V16H-4Z" fill="#E31D1C"/>
<path fill-rule="evenodd" clip-rule="evenodd" d="M0.600676 16.3919V17.0258H-1.73009V16.3919H0.600676ZM-3.4343 17.9842H-3.64127V17.7309H-3.18658V18.6181H-2.60708V18.6249H-2.04564V16.7833H-2.40437V17.991H-2.45976V16.6873H-2.81849V17.9842H-2.82785V17.7309V16.6873H-3.18658V17.0971H-4V18.6181H-3.82064H-3.4343V17.9842ZM-1.93347 18.3395H-1.57475V17.711H-1.17475V18.6247H-0.0493345V17.0782H-0.626465V17.712H-0.408063V17.9908H-0.816017V17.0772H-1.93347V18.3395ZM0.358489 17.9842H0.565462V18.6181H0.179125H-0.000239611V17.0971H0.813182V16.6873H1.17191V17.7309V17.9842H1.18127V16.6873H1.54V17.991H1.59539V16.7833H1.95412V18.6249H1.39268V18.6181H0.813182V17.7309H0.358489V17.9842ZM4.60044 16.3919V17.0258H2.26967V16.3919H4.60044ZM2.06629 18.3395H2.42502V17.711H2.82501V18.6247H3.95043V17.0782H3.3733V17.712H3.5917V17.9908H3.18374V17.0772H2.06629V18.3395ZM4.42967 17.9842H4.63665V18.6181H4.25031H4.07094V17.0971H4.88437V16.6873H5.2431V17.7309V17.9842H5.25246V16.6873H5.61119V17.991H5.66658V16.7833H6.02531V18.6249H5.46386V18.6181H4.88437V17.7309H4.42967V17.9842ZM8.67162 16.3919V17.0258H6.34086V16.3919H8.67162ZM6.13747 18.3395H6.4962V17.711H6.8962V18.6247H8.02161V17.0782H7.44448V17.712H7.66288V17.9908H7.25493V17.0772H6.13747V18.3395ZM8.42943 17.9842H8.63641V18.6181H8.25007H8.07071V17.0971H8.88413V16.6873H9.24286V17.7309V17.9842H9.25222V16.6873H9.61095V17.991H9.66634V16.7833H10.0251V18.6249H9.46362V18.6181H8.88413V17.7309H8.42943V17.9842ZM12.6714 16.3919V17.0258H10.3406V16.3919H12.6714ZM10.1372 18.3395H10.496V17.711H10.896V18.6247H12.0214V17.0782H11.4442V17.712H11.6626V17.9908H11.2547V17.0772H10.1372V18.3395ZM12.4292 17.9842H12.6362V18.6181H12.2498H12.0705V17.0971H12.8839V16.6873H13.2426V17.7309V17.9842H13.252V16.6873H13.6107V17.991H13.6661V16.7833H14.0248V18.6249H13.4634V18.6181H12.8839V17.7309H12.4292V17.9842ZM16.6711 16.3919V17.0258H14.3404V16.3919H16.6711ZM14.137 18.3395H14.4957V17.711H14.8957V18.6247H16.0211V17.0782H15.444V17.712H15.6624V17.9908H15.2544V17.0772H14.137V18.3395ZM16.5004 17.9842H16.7074V18.6181H16.321H16.1417V17.0971H16.9551V16.6873H17.3138V17.7309V17.9842H17.3232V16.6873H17.6819V17.991H17.7373V16.7833H18.096V18.6249H17.5346V18.6181H16.9551V17.7309H16.5004V17.9842ZM20.7423 16.3919V17.0258H18.4116V16.3919H20.7423ZM18.2082 18.3395H18.5669V17.711H18.9669V18.6247H20.0923V17.0782H19.5152V17.712H19.7336V17.9908H19.3256V17.0772H18.2082V18.3395ZM20.5716 17.9842H20.7785V18.6181H20.3922H20.2128V17.0971H21.0263V16.6873H21.385V17.7309V17.9842H21.3944V16.6873H21.7531V17.991H21.8085V16.7833H22.1672V18.6249H21.6058V18.6181H21.0263V17.7309H20.5716V17.9842ZM24.8135 16.3919V17.0258H22.4827V16.3919H24.8135ZM22.2794 18.3395H22.6381V17.711H23.0381V18.6247H24.1635V17.0782H23.5864V17.712H23.8048V17.9908H23.3968V17.0772H22.2794V18.3395ZM24.6427 17.9842H24.8497V18.6181H24.4634H24.284V17.0971H25.0974V16.6873H25.4562V17.7309V17.9842H25.4655V16.6873H25.8243V17.991H25.8797V16.7833H26.2384V18.6249H25.6769V18.6181H25.0974V17.7309H24.6427V17.9842ZM28.8847 16.3919V17.0258H26.5539V16.3919H28.8847ZM26.3505 18.3395H26.7093V17.711H27.1093V18.6247H28.2347V17.0782H27.6576V17.712H27.876V17.9908H27.468V17.0772H26.3505V18.3395ZM28.6425 17.9842H28.8495V18.6181H28.4631H28.2838V17.0971H29.0972V16.6873H29.4559V17.7309V17.9842H29.4653V16.6873H29.824V17.991H29.8794V16.7833H30.2381V18.6249H29.6767V18.6181H29.0972V17.7309H28.6425V17.9842ZM32.8845 16.3919V17.0258H30.5537V16.3919H32.8845ZM30.3503 18.3395H30.709V17.711H31.109V18.6247H32.2344V17.0782H31.6573V17.712H31.8757V17.9908H31.4678V17.0772H30.3503V18.3395ZM32.8565 17.9842H33.0635V18.6181H32.6772H32.4978V17.0971H33.3112V16.6873H33.67V17.7309V17.9842H33.6793V16.6873H34.0381V17.991H34.0934V16.7833H34.4522V18.6249H33.8907V18.6181H33.3112V17.7309H32.8565V17.9842ZM37.0985 16.3919V17.0258H34.7677V16.3919H37.0985ZM34.5643 18.3395H34.9231V17.711H35.3231V18.6247H36.4485V17.0782H35.8713V17.712H36.0897V17.9908H35.6818V17.0772H34.5643V18.3395Z" fill="#F7FCFF"/>
<path fill-rule="evenodd" clip-rule="evenodd" d="M-3.51541 5.39194V6.02582H-5.84617V5.39194H-3.51541ZM-7.55039 6.98417H-7.75736V6.73094H-7.30267V7.61805H-6.72317V7.62485H-6.16173V5.78327H-6.52046V6.99097H-6.57585V5.68727H-6.93457V6.98417H-6.94394V6.73094V5.68727H-7.30267V6.09706H-8.11609V7.61805H-7.93672H-7.55039V6.98417ZM-6.04956 7.33949H-5.69083V6.71103H-5.29083V7.62468H-4.16542V6.07817H-4.74255V6.71205H-4.52415V6.9908H-4.93211V6.07715H-6.04956V7.33949ZM-3.7576 6.98417H-3.55063V7.61805H-3.93696H-4.11633V6.09706H-3.30291V5.68727H-2.94418V6.73094V6.98417H-2.93481V5.68727H-2.57609V6.99097H-2.5207V5.78327H-2.16197V7.62485H-2.72341V7.61805H-3.30291V6.73094H-3.7576V6.98417ZM0.484347 5.39194V6.02582H-1.84641V5.39194H0.484347ZM-2.0498 7.33949H-1.69107V6.71103H-1.29107V7.62468H-0.165663V6.07817H-0.742793V6.71205H-0.524391V6.9908H-0.932345V6.07715H-2.0498V7.33949ZM0.313584 6.98417H0.520557V7.61805H0.13422H-0.0451441V6.09706H0.768278V5.68727H1.12701V6.73094V6.98417H1.13637V5.68727H1.4951V6.99097H1.55049V5.78327H1.90922V7.62485H1.34777V7.61805H0.768278V6.73094H0.313584V6.98417ZM4.55553 5.39194V6.02582H2.22477V5.39194H4.55553ZM2.02138 7.33949H2.38011V6.71103H2.78011V7.62468H3.90552V6.07817H3.32839V6.71205H3.54679V6.9908H3.13884V6.07715H2.02138V7.33949ZM4.31334 6.98417H4.52032V7.61805H4.13398H3.95462V6.09706H4.76804V5.68727H5.12677V6.73094V6.98417H5.13613V5.68727H5.49486V6.99097H5.55025V5.78327H5.90898V7.62485H5.34753V7.61805H4.76804V6.73094H4.31334V6.98417ZM8.55529 5.39194V6.02582H6.22453V5.39194H8.55529ZM6.02114 7.33949H6.37987V6.71103H6.77987V7.62468H7.90528V6.07817H7.32815V6.71205H7.54655V6.9908H7.1386V6.07715H6.02114V7.33949ZM8.3131 6.98417H8.52008V7.61805H8.13374H7.95438V6.09706H8.7678V5.68727H9.12653V6.73094V6.98417H9.13589V5.68727H9.49462V6.99097H9.55001V5.78327H9.90874V7.62485H9.34729V7.61805H8.7678V6.73094H8.3131V6.98417ZM12.5551 5.39194V6.02582H10.2243V5.39194H12.5551ZM10.0209 7.33949H10.3796V6.71103H10.7796V7.62468H11.905V6.07817H11.3279V6.71205H11.5463V6.9908H11.1384V6.07715H10.0209V7.33949ZM12.3843 6.98417H12.5913V7.61805H12.2049H12.0256V6.09706H12.839V5.68727H13.1977V6.73094V6.98417H13.2071V5.68727H13.5658V6.99097H13.6212V5.78327H13.9799V7.62485H13.4185V7.61805H12.839V6.73094H12.3843V6.98417ZM16.6262 5.39194V6.02582H14.2955V5.39194H16.6262ZM14.0921 7.33949H14.4508V6.71103H14.8508V7.62468H15.9762V6.07817H15.3991V6.71205H15.6175V6.9908H15.2095V6.07715H14.0921V7.33949ZM16.4555 6.98417H16.6624V7.61805H16.2761H16.0967V6.09706H16.9102V5.68727H17.2689V6.73094V6.98417H17.2783V5.68727H17.637V6.99097H17.6924V5.78327H18.0511V7.62485H17.4897V7.61805H16.9102V6.73094H16.4555V6.98417ZM20.6974 5.39194V6.02582H18.3667V5.39194H20.6974ZM18.1633 7.33949H18.522V6.71103H18.922V7.62468H20.0474V6.07817H19.4703V6.71205H19.6887V6.9908H19.2807V6.07715H18.1633V7.33949ZM20.5267 6.98417H20.7336V7.61805H20.3473H20.1679V6.09706H20.9814V5.68727H21.3401V6.73094V6.98417H21.3494V5.68727H21.7082V6.99097H21.7636V5.78327H22.1223V7.62485H21.5608V7.61805H20.9814V6.73094H20.5267V6.98417ZM24.7686 5.39194V6.02582H22.4378V5.39194H24.7686ZM22.2345 7.33949H22.5932V6.71103H22.9932V7.62468H24.1186V6.07817H23.5415V6.71205H23.7599V6.9908H23.3519V6.07715H22.2345V7.33949ZM24.5264 6.98417H24.7334V7.61805H24.3471H24.1677V6.09706H24.9811V5.68727H25.3398V6.73094V6.98417H25.3492V5.68727H25.7079V6.99097H25.7633V5.78327H26.1221V7.62485H25.5606V7.61805H24.9811V6.73094H24.5264V6.98417ZM28.7684 5.39194V6.02582H26.4376V5.39194H28.7684ZM26.2342 7.33949H26.5929V6.71103H26.9929V7.62468H28.1184V6.07817H27.5412V6.71205H27.7596V6.9908H27.3517V6.07715H26.2342V7.33949ZM28.7405 6.98417H28.9474V7.61805H28.5611H28.3817V6.09706H29.1951V5.68727H29.5539V6.73094V6.98417H29.5632V5.68727H29.922V6.99097H29.9774V5.78327H30.3361V7.62485H29.7746V7.61805H29.1951V6.73094H28.7405V6.98417ZM32.9824 5.39194V6.02582H30.6516V5.39194H32.9824ZM30.4482 7.33949H30.807V6.71103H31.207V7.62468H32.3324V6.07817H31.7553V6.71205H31.9737V6.9908H31.5657V6.07715H30.4482V7.33949Z" fill="#F7FCFF"/>
<path fill-rule="evenodd" clip-rule="evenodd" d="M10.6063 8.25C10.6063 8.25 11.0336 8.475 11.471 8.475C11.9084 8.475 12.3484 8.25 12.3484 8.25V8.55C12.3484 8.55 11.868 8.775 11.4425 8.775C11.017 8.775 10.6063 8.55 10.6063 8.55V8.25ZM7.45639 11.7906C7.45639 10.0126 9.89838 8.85 9.89838 8.85C9.89838 8.85 8.48695 9.60621 8.48695 11.7161C8.48695 13.826 9.21966 14.7397 9.21966 14.7397C9.21966 14.7397 7.45639 13.5686 7.45639 11.7906ZM15.6941 11.6925C15.6941 9.91448 13.2544 8.85 13.2544 8.85C13.2544 8.85 14.6658 9.60621 14.6658 11.7161C14.6658 13.826 13.9331 14.7397 13.9331 14.7397C13.9331 14.7397 15.6941 13.4705 15.6941 11.6925ZM9.1235 12.1776C9.03045 10.402 10.5075 8.81052 10.5075 8.81052C10.5075 8.81052 9.9699 9.54185 10.0803 11.6488C10.1182 12.3723 10.4032 13.4486 10.7622 14.0832V8.925H12.2622V14.1279C12.6217 13.5352 12.8987 12.5246 12.9371 11.7906C13.0476 9.68361 12.5357 8.81052 12.5357 8.81052C12.5357 8.81052 14.0128 10.402 13.9198 12.1776C13.8643 13.2351 13.0506 14.3534 12.4015 15.0851C12.7169 15.1554 13.1397 15.2411 13.7208 15.3559C13.7332 15.4202 13.6037 15.4172 13.3464 15.4113C13.0623 15.4047 12.6224 15.3946 12.0456 15.4675C11.7804 15.7393 11.5959 15.9004 11.5959 15.9004C11.5959 15.9004 11.5667 15.861 11.5216 15.8064C11.4766 15.861 11.4474 15.9004 11.4474 15.9004C11.4474 15.9004 11.2628 15.7393 10.9976 15.4675C10.4209 15.3946 9.98093 15.4047 9.69682 15.4113C9.43952 15.4172 9.31002 15.4202 9.32242 15.3559C9.90356 15.2411 10.3263 15.1554 10.6417 15.0851C9.99262 14.3534 9.17892 13.2351 9.1235 12.1776Z" fill="#E31D1C"/>
</g>
</g>
<defs>
<clipPath id="clip0_6617_16822">
<rect width="24" height="24" rx="12" fill="white"/>
</clipPath>
</defs>
</svg>
