<svg width="20" height="20" viewBox="0 0 20 20" fill="none" xmlns="http://www.w3.org/2000/svg">
<path d="M13.7505 15.2084H12.4922C12.1505 15.2084 11.8672 14.9251 11.8672 14.5834C11.8672 14.2417 12.1505 13.9584 12.4922 13.9584H13.7505C15.9339 13.9584 17.7089 12.1834 17.7089 10.0001C17.7089 7.81675 15.9339 6.04175 13.7505 6.04175H12.5005C12.1589 6.04175 11.8755 5.75841 11.8755 5.41675C11.8755 5.07508 12.1505 4.79175 12.5005 4.79175H13.7505C16.6255 4.79175 18.9589 7.12508 18.9589 10.0001C18.9589 12.8751 16.6255 15.2084 13.7505 15.2084Z" fill="#1D1B20"/>
<path d="M7.49935 15.2084H6.24935C3.37435 15.2084 1.04102 12.8751 1.04102 10.0001C1.04102 7.12508 3.37435 4.79175 6.24935 4.79175H7.49935C7.84102 4.79175 8.12435 5.07508 8.12435 5.41675C8.12435 5.75841 7.84102 6.04175 7.49935 6.04175H6.24935C4.06602 6.04175 2.29102 7.81675 2.29102 10.0001C2.29102 12.1834 4.06602 13.9584 6.24935 13.9584H7.49935C7.84102 13.9584 8.12435 14.2417 8.12435 14.5834C8.12435 14.9251 7.84102 15.2084 7.49935 15.2084Z" fill="#1D1B20"/>
<path d="M13.3327 10.625H6.66602C6.32435 10.625 6.04102 10.3417 6.04102 10C6.04102 9.65833 6.32435 9.375 6.66602 9.375H13.3327C13.6743 9.375 13.9577 9.65833 13.9577 10C13.9577 10.3417 13.6743 10.625 13.3327 10.625Z" fill="#1D1B20"/>
</svg>
