<svg width="16" height="16" viewBox="0 0 16 16" fill="none" xmlns="http://www.w3.org/2000/svg">
<path d="M13.6493 2.34999C12.0193 0.719992 9.70929 -0.220008 7.16929 0.0399922C3.49929 0.409992 0.479289 3.38999 0.0692889 7.05999C-0.480711 11.91 3.26929 16 7.99929 16C11.1893 16 13.9293 14.13 15.2093 11.44C15.5293 10.77 15.0493 9.99999 14.3093 9.99999C13.9393 9.99999 13.5893 10.2 13.4293 10.53C12.2993 12.96 9.58929 14.5 6.62929 13.84C4.40929 13.35 2.61929 11.54 2.14929 9.31999C1.30929 5.43999 4.25929 1.99999 7.99929 1.99999C9.65929 1.99999 11.1393 2.68999 12.2193 3.77999L10.7093 5.28999C10.0793 5.91999 10.5193 6.99999 11.4093 6.99999H14.9993C15.5493 6.99999 15.9993 6.54999 15.9993 5.99999V2.40999C15.9993 1.51999 14.9193 1.06999 14.2893 1.69999L13.6493 2.34999Z" fill="#514037"/>
</svg>
