<svg width="18" height="18" viewBox="0 0 18 18" fill="none" xmlns="http://www.w3.org/2000/svg">
<path d="M12.5006 10.9999H11.7106L11.4306 10.7299C12.6306 9.32989 13.2506 7.41989 12.9106 5.38989C12.4406 2.60989 10.1206 0.389893 7.32063 0.0498932C3.09063 -0.470107 -0.469374 3.08989 0.0506256 7.31989C0.390626 10.1199 2.61063 12.4399 5.39063 12.9099C7.42063 13.2499 9.33063 12.6299 10.7306 11.4299L11.0006 11.7099V12.4999L15.2506 16.7499C15.6606 17.1599 16.3306 17.1599 16.7406 16.7499C17.1506 16.3399 17.1506 15.6699 16.7406 15.2599L12.5006 10.9999ZM6.50063 10.9999C4.01063 10.9999 2.00063 8.98989 2.00063 6.49989C2.00063 4.00989 4.01063 1.99989 6.50063 1.99989C8.99063 1.99989 11.0006 4.00989 11.0006 6.49989C11.0006 8.98989 8.99063 10.9999 6.50063 10.9999Z" fill="#A69F9B"/>
</svg>
