<svg width="20" height="20" viewBox="0 0 20 20" fill="none" xmlns="http://www.w3.org/2000/svg">
<path d="M4.50764 18.125C3.57431 18.125 2.98264 17.8083 2.60764 17.4333C1.87431 16.7 1.35764 15.1416 3.00764 11.8333L3.73264 10.3916C3.82431 10.2 3.82431 9.79996 3.73264 9.60829L3.00764 8.16663C1.34931 4.85829 1.87431 3.29162 2.60764 2.56662C3.33264 1.83329 4.89931 1.30829 8.19931 2.96662L15.3326 6.53329C17.1076 7.41662 18.0826 8.64996 18.0826 9.99996C18.0826 11.35 17.1076 12.5833 15.341 13.4666L8.20764 17.0333C6.59097 17.8416 5.39097 18.125 4.50764 18.125ZM4.50764 3.12496C4.05764 3.12496 3.70764 3.23329 3.49097 3.44996C2.88264 4.04996 3.12431 5.60829 4.12431 7.59996L4.84931 9.04996C5.11597 9.59162 5.11597 10.4083 4.84931 10.95L4.12431 12.3916C3.12431 14.3916 2.88264 15.9416 3.49097 16.5416C4.09097 17.15 5.64931 16.9083 7.64931 15.9083L14.7826 12.3416C16.091 11.6916 16.8326 10.8333 16.8326 9.99162C16.8326 9.14996 16.0826 8.29162 14.7743 7.64162L7.64097 4.08329C6.37431 3.44996 5.28264 3.12496 4.50764 3.12496Z" fill="#1D1B20"/>
<path d="M9.0332 10.625H4.5332C4.19154 10.625 3.9082 10.3417 3.9082 10C3.9082 9.65833 4.19154 9.375 4.5332 9.375H9.0332C9.37487 9.375 9.6582 9.65833 9.6582 10C9.6582 10.3417 9.37487 10.625 9.0332 10.625Z" fill="#1D1B20"/>
</svg>
