<svg width="20" height="20" viewBox="0 0 20 20" fill="none" xmlns="http://www.w3.org/2000/svg">
<path d="M15.7337 3.125H8.01706C7.67539 3.125 7.40039 2.84167 7.40039 2.5C7.40039 2.15833 7.68372 1.875 8.02539 1.875H15.7337C16.0754 1.875 16.3587 2.15833 16.3587 2.5C16.3587 2.84167 16.0754 3.125 15.7337 3.125Z" fill="#1D1B20"/>
<path d="M11.9842 18.125H4.26758C3.92591 18.125 3.64258 17.8417 3.64258 17.5C3.64258 17.1583 3.92591 16.875 4.26758 16.875H11.9759C12.3176 16.875 12.6009 17.1583 12.6009 17.5C12.6009 17.8417 12.3259 18.125 11.9842 18.125Z" fill="#1D1B20"/>
<path d="M8.12476 18.125C8.07476 18.125 8.02476 18.1167 7.97476 18.1083C7.64142 18.025 7.43309 17.6833 7.51642 17.35L11.2664 2.35C11.3498 2.01667 11.6831 1.80833 12.0248 1.89167C12.3581 1.975 12.5664 2.31667 12.4831 2.65L8.73309 17.65C8.65809 17.9333 8.40809 18.125 8.12476 18.125Z" fill="#1D1B20"/>
</svg>
