<svg width="20" height="20" viewBox="0 0 20 20" fill="none" xmlns="http://www.w3.org/2000/svg">
<path d="M9.99974 10.6249H4.06641C3.72474 10.6249 3.44141 10.3416 3.44141 9.99992V3.74992C3.44141 2.48325 4.46641 1.45825 5.73307 1.45825H9.99974C12.5247 1.45825 14.5831 3.51659 14.5831 6.04159C14.5831 8.56659 12.5247 10.6249 9.99974 10.6249ZM4.68307 9.37492H9.99974C11.8414 9.37492 13.3331 7.88325 13.3331 6.04159C13.3331 4.19992 11.8414 2.70825 9.99974 2.70825H5.73307C5.15807 2.70825 4.69141 3.17492 4.69141 3.74992V9.37492H4.68307Z" fill="#1D1B20"/>
<path d="M11.9831 18.5417H5.73307C4.46641 18.5417 3.44141 17.5167 3.44141 16.25V10C3.44141 9.65833 3.72474 9.375 4.06641 9.375H11.9831C14.5081 9.375 16.5664 11.4333 16.5664 13.9583C16.5664 16.4833 14.5081 18.5417 11.9831 18.5417ZM4.68307 10.625V16.25C4.68307 16.825 5.14974 17.2917 5.72474 17.2917H11.9747C13.8164 17.2917 15.3081 15.8 15.3081 13.9583C15.3081 12.1167 13.8164 10.625 11.9747 10.625H4.68307Z" fill="#1D1B20"/>
</svg>
