<svg width="24" height="24" viewBox="0 0 24 24" fill="none" xmlns="http://www.w3.org/2000/svg">
<path d="M17.19 4.96C17.19 4.97 17.19 4.97 17.19 4.98C16.94 4.97 16.69 4.96 16.42 4.96H8.71997L9.78997 3.9C10.77 2.91 11.85 2 13.1 2C14.36 2 15.44 2.91 16.42 3.9L16.98 4.46C17.12 4.59 17.19 4.77 17.19 4.96Z" fill="#2D81FF"/>
<path d="M20.84 13.17C21.23 13.17 21.54 12.85 21.54 12.45V11.57C21.54 7.64001 20.34 6.45001 16.42 6.45001H10.12H7.58002C3.66002 6.45001 2.46002 7.65001 2.46002 11.57V12C2.46002 12.4 2.77002 12.71 3.16002 12.71C4.00002 12.71 4.67002 13.39 4.67002 14.22C4.67002 15.05 4.00002 15.74 3.16002 15.74C2.77002 15.74 2.46002 16.05 2.46002 16.45V16.88C2.46002 20.81 3.66002 22 7.58002 22H10.11H16.41C20.33 22 21.53 20.8 21.53 16.88C21.53 16.49 21.22 16.17 20.83 16.17C19.99 16.17 19.32 15.5 19.32 14.67C19.33 13.84 20 13.17 20.84 13.17ZM10.82 18.86C10.82 19.25 10.5 19.57 10.11 19.57C9.72002 19.57 9.40002 19.25 9.40002 18.86V16.18C9.40002 15.79 9.72002 15.47 10.11 15.47C10.5 15.47 10.82 15.79 10.82 16.18V18.86ZM10.82 12.27C10.82 12.66 10.5 12.98 10.11 12.98C9.72002 12.98 9.40002 12.66 9.40002 12.27V9.59001C9.40002 9.20001 9.72002 8.88001 10.11 8.88001C10.5 8.88001 10.82 9.20001 10.82 9.59001V12.27Z" fill="#2D81FF"/>
</svg>
