<svg width="24" height="24" viewBox="0 0 24 24" fill="none" xmlns="http://www.w3.org/2000/svg">
<path d="M12 7.5C12.2739 7.5 12.5 7.72614 12.5 8V12C12.5 12.2739 12.2739 12.5 12 12.5C11.7261 12.5 11.5 12.2739 11.5 12V8C11.5 7.72614 11.7261 7.5 12 7.5ZM2.5 12C2.5 6.75549 6.74679 2.5 11.99 2.5C17.2442 2.5 21.5 6.75647 21.5 12C21.5 17.2435 17.2442 21.5 11.99 21.5C6.74679 21.5 2.5 17.2445 2.5 12ZM3.5 12C3.5 16.6961 7.30386 20.5 12 20.5C16.6961 20.5 20.5 16.6961 20.5 12C20.5 7.30386 16.6961 3.5 12 3.5C7.30386 3.5 3.5 7.30386 3.5 12ZM11.5 16.5V15.5H12.5V16.5H11.5Z" fill="white" stroke="white"/>
</svg>
