<svg width="12" height="12" viewBox="0 0 12 12" fill="none" xmlns="http://www.w3.org/2000/svg">
<path d="M7.76628 5.99961L11.5996 2.16628C12.0829 1.68294 12.0829 0.882943 11.5996 0.399609C11.1163 -0.0837239 10.3163 -0.0837239 9.83294 0.399609L5.99961 4.23294L2.16628 0.399609C1.68294 -0.0837239 0.882943 -0.0837239 0.399609 0.399609C-0.0837239 0.882943 -0.0837239 1.68294 0.399609 2.16628L4.23294 5.99961L0.399609 9.83294C-0.0837239 10.3163 -0.0837239 11.1163 0.399609 11.5996C0.649609 11.8496 0.966276 11.9663 1.28294 11.9663C1.59961 11.9663 1.91628 11.8496 2.16628 11.5996L5.99961 7.76628L9.83294 11.5996C10.0829 11.8496 10.3996 11.9663 10.7163 11.9663C11.0329 11.9663 11.3496 11.8496 11.5996 11.5996C12.0829 11.1163 12.0829 10.3163 11.5996 9.83294L7.76628 5.99961Z" fill="#1E2A38"/>
</svg>
