<svg width="96" height="96" viewBox="0 0 96 96" fill="none" xmlns="http://www.w3.org/2000/svg">
<path opacity="0.4" d="M59.6 8H36.4C33.68 8 29.84 9.60002 27.92 11.52L11.52 27.92C9.60002 29.84 8 33.68 8 36.4V59.6C8 62.32 9.60002 66.16 11.52 68.08L27.92 84.48C29.84 86.4 33.68 88 36.4 88H59.6C62.32 88 66.16 86.4 68.08 84.48L84.48 68.08C86.4 66.16 88 62.32 88 59.6V36.4C88 33.68 86.4 29.84 84.48 27.92L68.08 11.52C66.16 9.60002 62.32 8 59.6 8Z" fill="#EE0035"/>
<path d="M52.24 48L64.12 36.12C65.28 34.96 65.28 33.04 64.12 31.88C62.96 30.72 61.04 30.72 59.88 31.88L48 43.76L36.12 31.88C34.96 30.72 33.04 30.72 31.88 31.88C30.72 33.04 30.72 34.96 31.88 36.12L43.76 48L31.88 59.88C30.72 61.04 30.72 62.96 31.88 64.12C32.48 64.72 33.24 65 34 65C34.76 65 35.52 64.72 36.12 64.12L48 52.24L59.88 64.12C60.48 64.72 61.24 65 62 65C62.76 65 63.52 64.72 64.12 64.12C65.28 62.96 65.28 61.04 64.12 59.88L52.24 48Z" fill="#EE0035"/>
</svg>
