<svg width="96" height="96" viewBox="0 0 96 96" fill="none" xmlns="http://www.w3.org/2000/svg">
<path opacity="0.4" d="M43 9.80003C45.76 7.44003 50.28 7.44003 53.08 9.80003L59.4 15.24C60.6 16.28 62.84 17.12 64.44 17.12H71.24C75.48 17.12 78.96 20.6 78.96 24.84V31.64C78.96 33.2 79.8 35.48 80.84 36.68L86.28 43C88.64 45.76 88.64 50.28 86.28 53.08L80.84 59.4C79.8 60.6 78.96 62.84 78.96 64.44V71.24C78.96 75.48 75.48 78.96 71.24 78.96H64.44C62.88 78.96 60.6 79.8 59.4 80.84L53.08 86.28C50.32 88.64 45.8 88.64 43 86.28L36.68 80.84C35.48 79.8 33.24 78.96 31.64 78.96H24.72C20.48 78.96 17 75.48 17 71.24V64.4C17 62.84 16.16 60.6 15.16 59.4L9.76002 53.04C7.44002 50.28 7.44002 45.8 9.76002 43.04L15.16 36.68C16.16 35.48 17 33.24 17 31.68V24.8C17 20.56 20.48 17.08 24.72 17.08H31.64C33.2 17.08 35.48 16.24 36.68 15.2L43 9.80003Z" fill="#28A745"/>
<path d="M43.16 60.68C42.36 60.68 41.6 60.36 41.04 59.8L31.36 50.12C30.2 48.96 30.2 47.04 31.36 45.88C32.52 44.72 34.44 44.72 35.6 45.88L43.16 53.44L60.36 36.24C61.52 35.08 63.44 35.08 64.6 36.24C65.76 37.4 65.76 39.32 64.6 40.48L45.28 59.8C44.72 60.36 43.96 60.68 43.16 60.68Z" fill="#28A745"/>
</svg>
