<svg width="32" height="32" viewBox="0 0 32 32" fill="none" xmlns="http://www.w3.org/2000/svg">
<rect width="32" height="32" rx="4" transform="matrix(-1 0 0 1 32 0)" fill="white"/>
<path d="M23 17.0002H11.83L16.71 21.8802C17.1 22.2702 17.1 22.9102 16.71 23.3002C16.32 23.6902 15.69 23.6902 15.3 23.3002L8.71 16.7102C8.32 16.3202 8.32 15.6902 8.71 15.3002L15.29 8.70021C15.68 8.31021 16.31 8.31021 16.7 8.70021C17.09 9.09021 17.09 9.72022 16.7 10.1102L11.83 15.0002H23C23.55 15.0002 24 15.4502 24 16.0002C24 16.5502 23.55 17.0002 23 17.0002Z" fill="#5B4A42"/>
</svg>
