<svg width="40" height="40" viewBox="0 0 40 40" fill="none" xmlns="http://www.w3.org/2000/svg">
<path d="M10 29.2595L11.435 23.924C10.2777 21.8455 9.91003 19.4202 10.3994 17.0929C10.8888 14.7657 12.2024 12.6927 14.0992 11.2543C15.996 9.81594 18.3487 9.1087 20.7256 9.26236C23.1026 9.41602 25.3443 10.4203 27.0394 12.0908C28.7346 13.7614 29.7694 15.9862 29.9541 18.357C30.1387 20.7279 29.4608 23.0856 28.0447 24.9977C26.6286 26.9098 24.5694 28.248 22.2448 28.7666C19.9202 29.2853 17.4863 28.9496 15.3896 27.8213L10 29.2595ZM15.6494 25.8247L15.9827 26.0221C17.5014 26.9207 19.2752 27.2926 21.0277 27.0798C22.7802 26.8669 24.413 26.0813 25.6715 24.8453C26.9301 23.6093 27.7437 21.9924 27.9857 20.2466C28.2277 18.5007 27.8844 16.724 27.0093 15.1933C26.1342 13.6625 24.7765 12.4638 23.1478 11.7838C21.5191 11.1039 19.7108 10.9809 18.0047 11.4341C16.2986 11.8873 14.7907 12.8912 13.7158 14.2893C12.6409 15.6874 12.0594 17.4013 12.062 19.1638C12.0606 20.6251 12.4654 22.0583 13.2315 23.3036L13.4405 23.6476L12.6383 26.6256L15.6494 25.8247Z" fill="#1C0E07"/>
<path fill-rule="evenodd" clip-rule="evenodd" d="M23.7384 20.5344C23.543 20.377 23.3142 20.2663 23.0695 20.2106C22.8247 20.1549 22.5705 20.1556 22.3261 20.2129C21.9588 20.3652 21.7216 20.9404 21.4843 21.2281C21.4343 21.297 21.3607 21.3454 21.2775 21.3641C21.1943 21.3828 21.1071 21.3705 21.0323 21.3296C19.688 20.8039 18.5611 19.8399 17.8348 18.5942C17.7728 18.5164 17.7435 18.4177 17.753 18.3188C17.7625 18.22 17.81 18.1286 17.8856 18.064C18.1502 17.8025 18.3446 17.4785 18.4506 17.1221C18.4741 16.729 18.3839 16.3374 18.1907 15.9941C18.0413 15.5128 17.7571 15.0841 17.3715 14.7589C17.1726 14.6696 16.9522 14.6397 16.7366 14.6727C16.5211 14.7058 16.3198 14.8003 16.1569 14.9451C15.8741 15.1886 15.6497 15.4924 15.5001 15.834C15.3505 16.1757 15.2796 16.5464 15.2925 16.9191C15.2934 17.1283 15.32 17.3367 15.3716 17.5395C15.5028 18.0267 15.7045 18.4922 15.9705 18.9213C16.1623 19.25 16.3716 19.5681 16.5975 19.8745C17.3317 20.8806 18.2546 21.7349 19.3149 22.3899C19.847 22.7228 20.4157 22.9934 21.0097 23.1965C21.6268 23.4757 22.3082 23.5829 22.9814 23.5067C23.365 23.4487 23.7284 23.2975 24.0397 23.0664C24.351 22.8353 24.6006 22.5313 24.7666 22.1813C24.8641 21.9698 24.8937 21.7334 24.8514 21.5044C24.7497 21.0363 24.1226 20.76 23.7384 20.5344Z" fill="#1C0E07"/>
</svg>
