<svg width="40" height="40" viewBox="0 0 40 40" fill="none" xmlns="http://www.w3.org/2000/svg">
<path d="M10 29.2595L11.435 23.924C10.2777 21.8455 9.91003 19.4202 10.3994 17.0929C10.8888 14.7657 12.2024 12.6927 14.0992 11.2543C15.996 9.81594 18.3487 9.1087 20.7256 9.26236C23.1026 9.41602 25.3443 10.4203 27.0394 12.0908C28.7346 13.7614 29.7694 15.9862 29.9541 18.357C30.1387 20.7279 29.4608 23.0856 28.0447 24.9977C26.6286 26.9098 24.5694 28.248 22.2448 28.7666C19.9202 29.2853 17.4863 28.9496 15.3896 27.8213L10 29.2595ZM15.6494 25.8247L15.9827 26.0221C17.5014 26.9207 19.2752 27.2926 21.0277 27.0798C22.7802 26.8669 24.413 26.0813 25.6715 24.8453C26.9301 23.6093 27.7437 21.9924 27.9857 20.2466C28.2277 18.5007 27.8844 16.724 27.0093 15.1933C26.1342 13.6625 24.7765 12.4638 23.1478 11.7838C21.5191 11.1039 19.7108 10.9809 18.0047 11.4341C16.2986 11.8873 14.7907 12.8912 13.7158 14.2893C12.6409 15.6874 12.0594 17.4013 12.062 19.1638C12.0606 20.6251 12.4654 22.0583 13.2315 23.3036L13.4405 23.6476L12.6383 26.6256L15.6494 25.8247Z" fill="white"/>
<path fill-rule="evenodd" clip-rule="evenodd" d="M23.7389 20.5344C23.5435 20.377 23.3147 20.2663 23.07 20.2106C22.8252 20.1549 22.5709 20.1556 22.3265 20.2129C21.9593 20.3652 21.7221 20.9404 21.4848 21.2281C21.4347 21.297 21.3612 21.3454 21.278 21.3641C21.1948 21.3828 21.1076 21.3705 21.0328 21.3296C19.6884 20.8039 18.5616 19.8399 17.8353 18.5942C17.7733 18.5164 17.744 18.4177 17.7535 18.3188C17.7629 18.22 17.8105 18.1286 17.8861 18.064C18.1507 17.8025 18.345 17.4785 18.451 17.1221C18.4746 16.729 18.3844 16.3374 18.1912 15.9941C18.0418 15.5128 17.7576 15.0841 17.372 14.7589C17.1731 14.6696 16.9526 14.6397 16.7371 14.6727C16.5216 14.7058 16.3203 14.8003 16.1574 14.9451C15.8746 15.1886 15.6502 15.4924 15.5006 15.834C15.351 16.1757 15.28 16.5464 15.293 16.9191C15.2939 17.1283 15.3204 17.3367 15.3721 17.5395C15.5033 18.0267 15.705 18.4922 15.9709 18.9213C16.1628 19.25 16.3721 19.5681 16.598 19.8745C17.3322 20.8806 18.2551 21.7349 19.3154 22.3899C19.8475 22.7228 20.4162 22.9934 21.0102 23.1965C21.6273 23.4757 22.3087 23.5829 22.9819 23.5067C23.3655 23.4487 23.7289 23.2975 24.0402 23.0664C24.3515 22.8353 24.6011 22.5313 24.7671 22.1813C24.8646 21.9698 24.8942 21.7334 24.8518 21.5044C24.7502 21.0363 24.1231 20.76 23.7389 20.5344Z" fill="white"/>
</svg>
