<svg width="24" height="24" viewBox="0 0 24 24" fill="none" xmlns="http://www.w3.org/2000/svg">
<g id="Frame 48096650">
<path id="Rectangle 6268 (Stroke)" fill-rule="evenodd" clip-rule="evenodd" d="M14.2592 2L20 7V21C20 21.5523 19.5523 22 19 22H5C4.44772 22 4 21.5523 4 21V3C4 2.44772 4.44772 2 5 2H14.2592ZM19 7.45515V21H5V3H13.8848L19 7.45515Z" fill="#FF0000"/>
<path id="Vector 305" d="M13.8 7.5H20L13.8 2.5V7.5Z" fill="#FF0000"/>
<path id="Rectangle 6269" d="M2 13.5C2 13.2239 2.22386 13 2.5 13H21.5C21.7761 13 22 13.2239 22 13.5V18.5C22 18.7761 21.7761 19 21.5 19H2.5C2.22386 19 2 18.7761 2 18.5V13.5Z" fill="#FF0000"/>
<g id="PDF">
<path id="Vector" d="M14.332 14.6562V17.5H13.7461V14.6562H14.332ZM15.4648 15.8711V16.3281H14.1719V15.8711H15.4648ZM15.6016 14.6562V15.1152H14.1719V14.6562H15.6016Z" fill="white"/>
<path id="Vector_2" d="M12.0176 17.5H11.3984L11.4023 17.043H12.0176C12.1712 17.043 12.3008 17.0085 12.4062 16.9395C12.5117 16.8691 12.5911 16.7669 12.6445 16.6328C12.6992 16.4987 12.7266 16.3366 12.7266 16.1465V16.0078C12.7266 15.862 12.7109 15.7337 12.6797 15.623C12.6497 15.5124 12.6048 15.4193 12.5449 15.3437C12.485 15.2682 12.4115 15.2116 12.3242 15.1738C12.237 15.1348 12.1367 15.1152 12.0234 15.1152H11.3867V14.6562H12.0234C12.2135 14.6562 12.3874 14.6888 12.5449 14.7539C12.7038 14.8177 12.8411 14.9095 12.957 15.0293C13.0729 15.1491 13.1621 15.2923 13.2246 15.459C13.2884 15.6243 13.3203 15.8086 13.3203 16.0117V16.1465C13.3203 16.3483 13.2884 16.5326 13.2246 16.6992C13.1621 16.8659 13.0729 17.0091 12.957 17.1289C12.8424 17.2474 12.7051 17.3392 12.5449 17.4043C12.3861 17.4681 12.2103 17.5 12.0176 17.5ZM11.7305 14.6562V17.5H11.1445V14.6562H11.7305Z" fill="white"/>
<path id="Vector_3" d="M9.67383 16.4863H8.94922V16.0293H9.67383C9.78581 16.0293 9.87695 16.0111 9.94727 15.9746C10.0176 15.9368 10.069 15.8848 10.1016 15.8184C10.1341 15.752 10.1504 15.6771 10.1504 15.5937C10.1504 15.5091 10.1341 15.4303 10.1016 15.3574C10.069 15.2845 10.0176 15.2259 9.94727 15.1816C9.87695 15.1374 9.78581 15.1152 9.67383 15.1152H9.15234V17.5H8.56641V14.6562H9.67383C9.89648 14.6562 10.0872 14.6966 10.2461 14.7773C10.4062 14.8568 10.5286 14.9668 10.6133 15.1074C10.6979 15.248 10.7402 15.4089 10.7402 15.5898C10.7402 15.7734 10.6979 15.9323 10.6133 16.0664C10.5286 16.2005 10.4062 16.304 10.2461 16.377C10.0872 16.4499 9.89648 16.4863 9.67383 16.4863Z" fill="white"/>
</g>
</g>
</svg>
