<svg width="32" height="32" viewBox="0 0 32 32" fill="none" xmlns="http://www.w3.org/2000/svg">
<g id="close">
<path id="Vector" d="M24.4009 7.61329C23.8809 7.09329 23.0409 7.09329 22.5209 7.61329L16.0009 14.12L9.48094 7.59996C8.96094 7.07996 8.12094 7.07996 7.60094 7.59996C7.08094 8.11996 7.08094 8.95996 7.60094 9.47996L14.1209 16L7.60094 22.52C7.08094 23.04 7.08094 23.88 7.60094 24.4C8.12094 24.92 8.96094 24.92 9.48094 24.4L16.0009 17.88L22.5209 24.4C23.0409 24.92 23.8809 24.92 24.4009 24.4C24.9209 23.88 24.9209 23.04 24.4009 22.52L17.8809 16L24.4009 9.47996C24.9076 8.97329 24.9076 8.11996 24.4009 7.61329Z" fill="#514037"/>
</g>
</svg>
