<svg width="32" height="32" viewBox="0 0 32 32" fill="none" xmlns="http://www.w3.org/2000/svg">
<g id="2">
<path id="3" d="M31.9997 15.9999C31.9997 24.8364 24.8364 31.9997 15.9999 31.9997C7.16339 31.9997 0 24.8364 0 15.9999C0 7.16339 7.16339 0 15.9999 0C24.8364 0 31.9997 7.16339 31.9997 15.9999ZM4.78439 15.9999C4.78439 22.194 9.80573 27.2154 15.9999 27.2154C22.194 27.2154 27.2154 22.194 27.2154 15.9999C27.2154 9.80573 22.194 4.78439 15.9999 4.78439C9.80573 4.78439 4.78439 9.80573 4.78439 15.9999Z" fill="url(#paint0_angular_914_66792)"/>
<circle id="Ellipse 1" cx="15.6693" cy="29.6663" r="2.33331" fill="#FF5A00"/>
</g>
<defs>
<radialGradient id="paint0_angular_914_66792" cx="0" cy="0" r="1" gradientUnits="userSpaceOnUse" gradientTransform="translate(15.9999 15.9999) rotate(90) scale(15.9999)">
<stop stop-color="#FF5A00"/>
<stop offset="0.175675" stop-color="#FF5A00"/>
<stop offset="1" stop-color="white" stop-opacity="0"/>
</radialGradient>
</defs>
</svg>
