<svg width="20" height="20" viewBox="0 0 20 20" fill="none" xmlns="http://www.w3.org/2000/svg">
<g id="sort">
<path id="Vector" d="M6.66667 14.5H3.33333C3.15114 14.5 3 14.3489 3 14.1667C3 13.9845 3.15114 13.8333 3.33333 13.8333H6.66667C6.84886 13.8333 7 13.9845 7 14.1667C7 14.3489 6.84886 14.5 6.66667 14.5ZM3.33333 6.16667C3.15114 6.16667 3 6.01552 3 5.83333C3 5.65114 3.15114 5.5 3.33333 5.5H16.6667C16.8489 5.5 17 5.65114 17 5.83333C17 6.01552 16.8489 6.16667 16.6667 6.16667H3.33333ZM11.6667 10.3333H3.33333C3.15114 10.3333 3 10.1822 3 10C3 9.81781 3.15114 9.66667 3.33333 9.66667H11.6667C11.8489 9.66667 12 9.81781 12 10C12 10.1822 11.8489 10.3333 11.6667 10.3333Z" fill="black" fill-opacity="0.54" stroke="#515D7A"/>
</g>
</svg>
