<svg width="24" height="24" viewBox="0 0 24 24" fill="none" xmlns="http://www.w3.org/2000/svg">
<g id="wb-cloudy" clip-path="url(#clip0_1112_8509)">
<path id="Vector" d="M5.51863 9.53262L5.51832 9.53265C3.23061 9.76931 1.50977 11.6966 1.50977 14C1.50977 16.4861 3.52362 18.5 6.00977 18.5H19.0098C20.9359 18.5 22.5098 16.9261 22.5098 15C22.5098 13.1842 21.0836 11.6697 19.2653 11.5413C19.2652 11.5413 19.2651 11.5412 19.2649 11.5412L18.1254 11.4588L17.9002 10.3327C17.3435 7.52758 14.8573 5.5 12.0098 5.5C9.76362 5.5 7.72239 6.7435 6.69617 8.73928L6.3221 9.45002L5.51863 9.53262ZM5.4028 8.53718L5.66938 8.50874L5.79322 8.27097C6.96029 6.03019 9.31297 4.5 12.0098 4.5C15.4059 4.5 18.2351 6.91632 18.8795 10.1381L18.9543 10.5123L19.3351 10.5388C21.6676 10.7009 23.5098 12.6272 23.5098 15C23.5098 17.4839 21.4936 19.5 19.0098 19.5H6.00977C2.97591 19.5 0.509766 17.0339 0.509766 14C0.509766 11.1673 2.65526 8.83025 5.4028 8.53718Z" fill="black" fill-opacity="0.54" stroke="#7D8590"/>
</g>
<defs>
<clipPath id="clip0_1112_8509">
<rect width="24" height="24" fill="white"/>
</clipPath>
</defs>
</svg>
