<svg width="329" height="92" viewBox="0 0 329 92" fill="none" xmlns="http://www.w3.org/2000/svg">
<path d="M93.4828 35.712C92.2028 35.392 90.6988 35.072 88.9708 34.752C87.2428 34.368 85.3868 34.176 83.4028 34.176C82.5068 34.176 81.4188 34.272 80.1388 34.464C78.9228 34.592 77.9948 34.752 77.3548 34.944V73.536H63.0508V25.728C65.6108 24.832 68.6188 24 72.0748 23.232C75.5948 22.4 79.4988 21.984 83.7868 21.984C84.5548 21.984 85.4828 22.048 86.5708 22.176C87.6588 22.24 88.7468 22.368 89.8348 22.56C90.9228 22.688 92.0108 22.88 93.0988 23.136C94.1868 23.328 95.1148 23.584 95.8828 23.904L93.4828 35.712Z" fill="#1C0E07"/>
<path d="M116.127 63.264C118.751 63.264 120.607 63.008 121.695 62.496C122.783 61.984 123.327 60.992 123.327 59.52C123.327 58.368 122.623 57.376 121.215 56.544C119.807 55.648 117.663 54.656 114.783 53.568C112.543 52.736 110.495 51.872 108.639 50.976C106.847 50.08 105.311 49.024 104.031 47.808C102.751 46.528 101.759 45.024 101.055 43.296C100.351 41.568 99.9988 39.488 99.9988 37.056C99.9988 32.32 101.759 28.576 105.279 25.824C108.799 23.072 113.631 21.696 119.775 21.696C122.847 21.696 125.791 21.984 128.607 22.56C131.423 23.072 133.663 23.648 135.327 24.288L132.831 35.424C131.167 34.848 129.343 34.336 127.359 33.888C125.439 33.44 123.263 33.216 120.831 33.216C116.351 33.216 114.111 34.464 114.111 36.96C114.111 37.536 114.207 38.048 114.399 38.496C114.591 38.944 114.975 39.392 115.551 39.84C116.127 40.224 116.895 40.672 117.855 41.184C118.879 41.632 120.159 42.144 121.695 42.72C124.831 43.872 127.423 45.024 129.471 46.176C131.519 47.264 133.119 48.48 134.271 49.824C135.487 51.104 136.319 52.544 136.767 54.144C137.279 55.744 137.535 57.6 137.535 59.712C137.535 64.704 135.647 68.48 131.871 71.04C128.159 73.6 122.879 74.88 116.031 74.88C111.551 74.88 107.807 74.496 104.799 73.728C101.855 72.96 99.8068 72.32 98.6548 71.808L101.055 60.192C103.487 61.152 105.983 61.92 108.543 62.496C111.103 63.008 113.631 63.264 116.127 63.264Z" fill="#1C0E07"/>
<path d="M196.609 7.008V19.776H176.545V73.536H161.569V19.776H141.505V7.008H196.609Z" fill="#1C0E07"/>
<path d="M227.129 35.712C225.849 35.392 224.345 35.072 222.617 34.752C220.889 34.368 219.033 34.176 217.049 34.176C216.153 34.176 215.065 34.272 213.785 34.464C212.569 34.592 211.641 34.752 211.001 34.944V73.536H196.697V25.728C199.257 24.832 202.265 24 205.721 23.232C209.241 22.4 213.145 21.984 217.433 21.984C218.201 21.984 219.129 22.048 220.217 22.176C221.305 22.24 222.393 22.368 223.481 22.56C224.569 22.688 225.657 22.88 226.745 23.136C227.833 23.328 228.761 23.584 229.529 23.904L227.129 35.712Z" fill="#1C0E07"/>
<path d="M249.581 73.536H235.277V23.04H249.581V73.536ZM250.925 8.448C250.925 11.072 250.061 13.152 248.333 14.688C246.669 16.16 244.685 16.896 242.381 16.896C240.077 16.896 238.061 16.16 236.333 14.688C234.669 13.152 233.837 11.072 233.837 8.448C233.837 5.824 234.669 3.776 236.333 2.304C238.061 0.768 240.077 0 242.381 0C244.685 0 246.669 0.768 248.333 2.304C250.061 3.776 250.925 5.824 250.925 8.448Z" fill="#1C0E07"/>
<path d="M293.459 48.672C293.459 44.256 292.467 40.736 290.483 38.112C288.499 35.424 285.555 34.08 281.651 34.08C280.371 34.08 279.187 34.144 278.099 34.272C277.011 34.336 276.115 34.432 275.411 34.56V60.384C276.307 60.96 277.459 61.44 278.867 61.824C280.339 62.208 281.811 62.4 283.283 62.4C290.067 62.4 293.459 57.824 293.459 48.672ZM308.051 48.288C308.051 52.192 307.571 55.744 306.611 58.944C305.651 62.144 304.243 64.896 302.387 67.2C300.531 69.504 298.227 71.296 295.475 72.576C292.723 73.856 289.555 74.496 285.971 74.496C283.987 74.496 282.131 74.304 280.403 73.92C278.675 73.536 277.011 72.992 275.411 72.288V91.296H261.107V24.768C262.387 24.384 263.859 24.032 265.523 23.712C267.187 23.328 268.915 23.008 270.707 22.752C272.563 22.496 274.419 22.304 276.275 22.176C278.195 21.984 280.019 21.888 281.747 21.888C285.907 21.888 289.619 22.528 292.883 23.808C296.147 25.024 298.899 26.784 301.139 29.088C303.379 31.328 305.075 34.08 306.227 37.344C307.443 40.608 308.051 44.256 308.051 48.288Z" fill="#1C0E07"/>
<path d="M328.234 65.952C328.234 68.832 327.306 71.04 325.45 72.576C323.658 74.048 321.61 74.784 319.306 74.784C317.002 74.784 314.922 74.048 313.066 72.576C311.274 71.04 310.378 68.832 310.378 65.952C310.378 63.072 311.274 60.896 313.066 59.424C314.922 57.888 317.002 57.12 319.306 57.12C321.61 57.12 323.658 57.888 325.45 59.424C327.306 60.896 328.234 63.072 328.234 65.952Z" fill="#1C0E07"/>
<path d="M328.235 65.9511C328.235 68.8311 327.307 71.0391 325.451 72.5751C323.659 74.0471 321.611 74.7831 319.307 74.7831C317.003 74.7831 314.923 74.0471 313.067 72.5751C311.275 71.0391 310.379 68.8311 310.379 65.9511C310.379 63.0711 311.275 60.8951 313.067 59.4231C314.923 57.8871 317.003 57.1191 319.307 57.1191C321.611 57.1191 323.659 57.8871 325.451 59.4231C327.307 60.8951 328.235 63.0711 328.235 65.9511Z" fill="#FF5A00"/>
<path d="M196.609 7.008V19.776H176.545V73.536H161.569V19.776H141.505V7.008H196.609Z" fill="#FF5A00"/>
<path d="M9.24878 65.856C14.9448 71.872 23.2008 74.88 34.0168 74.88C39.0728 74.88 43.5208 74.368 47.3608 73.344C51.2008 72.32 54.1768 71.168 56.2888 69.888L56.1608 57.888C53.0894 58.9703 47.9904 60.003 45.8248 60.384C44.4808 60.704 42.9448 60.992 41.2168 61.248C39.4888 61.504 37.5368 61.632 35.3608 61.632C31.9048 61.632 28.9608 61.088 26.5288 60C24.0968 58.848 22.1128 57.312 20.5768 55.392C19.1048 53.472 18.0168 51.2 17.3128 48.576C16.6728 45.888 16.3528 43.008 16.3528 39.936C16.3528 36.096 16.8648 32.832 17.8888 30.144C18.9128 27.456 20.2568 25.28 21.9208 23.616C23.6488 21.888 25.6008 20.64 27.7768 19.872C30.0168 19.104 32.2888 18.72 34.5928 18.72C38.0488 18.72 41.1208 19.104 43.8088 19.872C46.5608 20.64 48.9608 21.568 51.0088 22.656L55.3288 10.56C54.8168 10.24 53.9848 9.792 52.8328 9.216C51.6808 8.64 50.2408 8.096 48.5128 7.584C46.7848 7.008 44.7688 6.528 42.4648 6.144C40.1608 5.696 37.6008 5.472 34.7848 5.472C29.9208 5.472 25.4088 6.24 21.2488 7.776C17.0888 9.312 13.5048 11.584 10.4968 14.592C7.48878 17.536 5.12078 21.184 3.39278 25.536C1.66478 29.824 0.800781 34.72 0.800781 40.224C0.800781 51.296 3.61678 59.84 9.24878 65.856Z" fill="#FF5A00"/>
</svg>
