<svg width="88" height="24" viewBox="0 0 88 24" fill="none" xmlns="http://www.w3.org/2000/svg">
<g clip-path="url(#clip0_4013_16182)">
<path d="M25.2192 9.31657C24.8808 9.23309 24.483 9.14961 24.0261 9.06613C23.5692 8.96596 23.0784 8.91587 22.5537 8.91587C22.3168 8.91587 22.0291 8.94092 21.6906 8.991C21.369 9.0244 21.1236 9.06613 20.9544 9.11622V19.1837H17.1719V6.71205C17.8488 6.47831 18.6443 6.26126 19.5582 6.06092C20.489 5.84387 21.5213 5.73535 22.6553 5.73535C22.8583 5.73535 23.1037 5.75205 23.3914 5.78544C23.6792 5.80213 23.9669 5.83553 24.2546 5.88561C24.5423 5.919 24.83 5.96909 25.1177 6.03587C25.4054 6.08596 25.6508 6.15274 25.8539 6.23622L25.2192 9.31657Z" fill="#1C0E07"/>
<path d="M31.2062 16.504C31.9001 16.504 32.3909 16.4372 32.6786 16.3036C32.9663 16.1701 33.1102 15.9113 33.1102 15.5273C33.1102 15.2268 32.924 14.968 32.5517 14.7509C32.1794 14.5172 31.6124 14.2584 30.8508 13.9746C30.2585 13.7575 29.7169 13.5322 29.2261 13.2984C28.7523 13.0647 28.3461 12.7892 28.0076 12.472C27.6691 12.1381 27.4068 11.7457 27.2206 11.2949C27.0345 10.8442 26.9413 10.3015 26.9413 9.66711C26.9413 8.43163 27.4068 7.45494 28.3376 6.73703C29.2684 6.01911 30.5462 5.66016 32.1709 5.66016C32.9833 5.66016 33.7618 5.73529 34.5064 5.88555C35.2511 6.01911 35.8434 6.16937 36.2834 6.33633L35.6234 9.24137C35.1834 9.09111 34.7011 8.95755 34.1764 8.84068C33.6687 8.72381 33.0933 8.66537 32.4502 8.66537C31.2655 8.66537 30.6731 8.99094 30.6731 9.64207C30.6731 9.79233 30.6985 9.9259 30.7493 10.0428C30.8001 10.1596 30.9016 10.2765 31.0539 10.3934C31.2062 10.4935 31.4093 10.6104 31.6632 10.744C31.934 10.8609 32.2725 10.9944 32.6786 11.1447C33.5079 11.4452 34.1933 11.7457 34.7349 12.0462C35.2765 12.3301 35.6996 12.6473 36.0042 12.9979C36.3258 13.3318 36.5458 13.7075 36.6642 14.1249C36.7996 14.5422 36.8673 15.0264 36.8673 15.5774C36.8673 16.8796 36.3681 17.8647 35.3696 18.5325C34.388 19.2003 32.9917 19.5342 31.1809 19.5342C29.9962 19.5342 29.0061 19.4341 28.2107 19.2337C27.4322 19.0334 26.8906 18.8664 26.5859 18.7329L27.2206 15.7026C27.8638 15.953 28.5238 16.1534 29.2007 16.3036C29.8777 16.4372 30.5462 16.504 31.2062 16.504Z" fill="#1C0E07"/>
<path d="M52.4934 1.82812V5.15891H47.1878V19.1833H43.2276V5.15891H37.9219V1.82812H52.4934Z" fill="#1C0E07"/>
<path d="M60.563 9.31657C60.2245 9.23309 59.8268 9.14961 59.3698 9.06613C58.9129 8.96596 58.4221 8.91587 57.8975 8.91587C57.6605 8.91587 57.3728 8.94092 57.0343 8.991C56.7128 9.0244 56.4674 9.06613 56.2981 9.11622V19.1837H52.5156V6.71205C53.1926 6.47831 53.988 6.26126 54.9019 6.06092C55.8327 5.84387 56.8651 5.73535 57.999 5.73535C58.2021 5.73535 58.4475 5.75205 58.7352 5.78544C59.0229 5.80213 59.3106 5.83553 59.5983 5.88561C59.886 5.919 60.1737 5.96909 60.4614 6.03587C60.7492 6.08596 60.9946 6.15274 61.1976 6.23622L60.563 9.31657Z" fill="#1C0E07"/>
<path d="M66.4992 19.1833H62.7167V6.01043H66.4992V19.1833ZM66.8546 2.20383C66.8546 2.88835 66.6262 3.43096 66.1692 3.83165C65.7292 4.21565 65.2046 4.40765 64.5953 4.40765C63.986 4.40765 63.4529 4.21565 62.996 3.83165C62.5559 3.43096 62.3359 2.88835 62.3359 2.20383C62.3359 1.5193 62.5559 0.985043 62.996 0.601043C63.4529 0.200348 63.986 0 64.5953 0C65.2046 0 65.7292 0.200348 66.1692 0.601043C66.6262 0.985043 66.8546 1.5193 66.8546 2.20383Z" fill="#1C0E07"/>
<path d="M78.102 12.6971C78.102 11.5451 77.8396 10.6268 77.315 9.94231C76.7904 9.24109 76.0118 8.89048 74.9795 8.89048C74.641 8.89048 74.3279 8.90718 74.0402 8.94057C73.7525 8.95726 73.5156 8.98231 73.3294 9.0157V15.7524C73.5663 15.9027 73.871 16.0279 74.2433 16.128C74.6325 16.2282 75.0218 16.2783 75.411 16.2783C77.205 16.2783 78.102 15.0846 78.102 12.6971ZM81.9606 12.5969C81.9606 13.6154 81.8337 14.542 81.5798 15.3767C81.326 16.2115 80.9537 16.9294 80.4629 17.5305C79.9721 18.1315 79.3628 18.599 78.6351 18.9329C77.9073 19.2668 77.0696 19.4338 76.1219 19.4338C75.5972 19.4338 75.1064 19.3837 74.6495 19.2835C74.1925 19.1834 73.7525 19.0414 73.3294 18.8578V23.8164H69.5469V6.46127C69.8854 6.36109 70.2746 6.26927 70.7146 6.18579C71.1547 6.08561 71.6116 6.00213 72.0855 5.93535C72.5763 5.86857 73.0671 5.81848 73.5579 5.78509C74.0656 5.735 74.5479 5.70996 75.0049 5.70996C76.1049 5.70996 77.0865 5.87692 77.9496 6.21083C78.8128 6.52805 79.5405 6.98718 80.1328 7.58822C80.7252 8.17257 81.1737 8.89048 81.4783 9.74196C81.7999 10.5934 81.9606 11.5451 81.9606 12.5969Z" fill="#1C0E07"/>
<path d="M87.2999 17.2044C87.2999 17.9557 87.0545 18.5317 86.5637 18.9324C86.0899 19.3164 85.5483 19.5084 84.939 19.5084C84.3298 19.5084 83.7797 19.3164 83.2889 18.9324C82.8151 18.5317 82.5781 17.9557 82.5781 17.2044C82.5781 16.4531 82.8151 15.8854 83.2889 15.5014C83.7797 15.1007 84.3298 14.9004 84.939 14.9004C85.5483 14.9004 86.0899 15.1007 86.5637 15.5014C87.0545 15.8854 87.2999 16.4531 87.2999 17.2044Z" fill="#1C0E07"/>
<path d="M87.2999 17.2044C87.2999 17.9557 87.0545 18.5317 86.5637 18.9324C86.0899 19.3164 85.5483 19.5084 84.939 19.5084C84.3298 19.5084 83.7797 19.3164 83.2889 18.9324C82.8151 18.5317 82.5781 17.9557 82.5781 17.2044C82.5781 16.4531 82.8151 15.8854 83.2889 15.5014C83.7797 15.1007 84.3298 14.9004 84.939 14.9004C85.5483 14.9004 86.0899 15.1007 86.5637 15.5014C87.0545 15.8854 87.2999 16.4531 87.2999 17.2044Z" fill="#307FF8"/>
<path d="M52.4934 1.82812V5.15891H47.1878V19.1833H43.2276V5.15891H37.9219V1.82812H52.4934Z" fill="#307FF8"/>
<path d="M2.94491 17.1801C4.45115 18.7495 6.63435 19.5342 9.4945 19.5342C10.8315 19.5342 12.0077 19.4006 13.0232 19.1335C14.0386 18.8663 14.8256 18.5658 15.3841 18.2319L15.3502 15.1015C14.538 15.3838 13.1897 15.6532 12.617 15.7526C12.2616 15.8361 11.8554 15.9112 11.3985 15.978C10.9415 16.0448 10.4253 16.0782 9.84991 16.0782C8.93601 16.0782 8.15751 15.9363 7.5144 15.6524C6.87128 15.3519 6.34664 14.9512 5.94046 14.4503C5.55121 13.9495 5.2635 13.3568 5.07734 12.6723C4.9081 11.971 4.82348 11.2197 4.82348 10.4183C4.82348 9.4166 4.95887 8.56513 5.22965 7.86391C5.50044 7.16269 5.85584 6.59504 6.29587 6.16095C6.75281 5.71017 7.269 5.3846 7.84441 5.18426C8.43675 4.98391 9.03756 4.88373 9.64682 4.88373C10.5607 4.88373 11.3731 4.98391 12.0839 5.18426C12.8116 5.3846 13.4463 5.62669 13.9878 5.91052L15.1302 2.75504C14.9948 2.67156 14.7748 2.55469 14.4702 2.40443C14.1655 2.25417 13.7847 2.11226 13.3278 1.97869C12.8708 1.82843 12.3377 1.70321 11.7285 1.60304C11.1192 1.48617 10.4423 1.42773 9.69759 1.42773C8.41137 1.42773 7.21823 1.62808 6.11816 2.02878C5.0181 2.42947 4.07036 3.02217 3.27493 3.80686C2.4795 4.57486 1.85331 5.52652 1.39636 6.66182C0.939411 7.78043 0.710938 9.05765 0.710938 10.4935C0.710938 13.3818 1.45559 15.6107 2.94491 17.1801Z" fill="#307FF8"/>
</g>
<defs>
<clipPath id="clip0_4013_16182">
<rect width="87" height="24" fill="white" transform="translate(0.5)"/>
</clipPath>
</defs>
</svg>
