<svg width="160" height="160" viewBox="0 0 160 160" fill="none" xmlns="http://www.w3.org/2000/svg">
<path d="M33.2992 71.9944C28.4778 71.9944 24.9365 69.2211 24.9365 65.1677C24.9365 61.0717 28.5205 58.2131 33.2992 58.2131H47.6352L53.3098 50.7891H33.2992C23.4005 50.7891 16.1045 56.4211 16.1045 64.7837C16.1045 73.0611 23.4005 79.3331 33.2992 79.3331H47.6352L53.3098 71.9944H33.2992Z" fill="#FF5A00"/>
<path d="M21.3214 82.7891L15.604 90.2131H29.0014V111.333H37.8334V90.2131H48.0307L53.7481 82.7891H21.3214Z" fill="#FF5A00"/>
<path d="M89.4305 105.786C87.4679 103.781 86.4012 102.757 85.4199 102.032C90.1132 101.093 92.8865 97.4237 92.8865 92.9864C92.8865 84.8371 84.6945 82.7891 78.2092 82.7891H59.8625L54.1025 90.2131H78.9345C81.9639 90.2131 83.7985 91.3224 83.7985 93.5411C83.7985 95.5037 81.6652 96.7411 78.9345 96.7411H54.1025V111.333H62.9345V103.781H76.5025L82.8599 111.333H94.6785L89.4305 105.786Z" fill="#FF5A00"/>
<path d="M104.418 82.7891H95.5864V111.333H104.418V82.7891Z" fill="#FF5A00"/>
<path d="M143.279 93.4984C143.279 87.1411 138.116 82.7891 129.284 82.7891H111.364L105.519 90.2131H130.095C132.826 90.2131 134.404 91.4504 134.404 93.4557C134.404 95.4184 132.826 96.7411 130.095 96.7411H105.519V111.333H114.308V104.037H129.242C138.116 104.037 143.279 99.8131 143.279 93.4984Z" fill="#FF5A00"/>
<path d="M89.4305 73.7864C87.4679 71.7811 86.4012 70.7571 85.4199 70.0317C90.1132 69.0931 92.8865 65.4237 92.8865 60.9864C92.8865 52.8371 84.6945 50.7891 78.2092 50.7891H59.8625L54.1025 58.2131H78.9345C81.9639 58.2131 83.7985 59.3224 83.7985 61.5411C83.7985 63.5037 81.6652 64.7411 78.9345 64.7411H54.1025V79.3331H62.9345V71.7811H76.5025L82.8599 79.3331H94.6785L89.4305 73.7864Z" fill="#FF5A00"/>
<path d="M117.736 62.1811C115.688 62.1811 114.707 61.6264 114.707 60.1757C114.707 58.7251 115.688 58.2131 117.736 58.2131H137.533L143.208 50.7891H118.419C109.757 50.7891 106.173 54.2877 106.173 59.6637C106.173 64.5704 109.544 67.8557 116.883 67.8557H132.413C134.504 67.8557 135.443 68.4531 135.443 69.9037C135.443 71.3971 134.504 71.9944 132.413 71.9944H110.824L105.149 79.3331H131.731C140.435 79.3331 143.976 75.8344 143.976 69.9891C143.976 64.7837 140.221 62.1811 133.267 62.1811H117.736Z" fill="#FF5A00"/>
<path d="M93.7307 83.3407C93.3274 83.3407 92.9054 83.2673 92.5208 83.1027C91.6588 82.736 90.9988 82.0207 90.7054 81.1227L89.8988 78.7027C89.5321 77.6027 89.8621 76.2273 90.6688 75.4027L94.8308 71.2227C94.8854 71.1673 94.9588 70.966 94.9588 70.874V66.346L86.5987 69.9573C85.4807 70.434 84.3441 70.3793 83.4821 69.8107C82.6208 69.2427 82.1074 68.216 82.1074 67.024V64.6593C82.1074 62.8626 83.3908 60.9376 85.0221 60.2959L94.9408 56.0059V50.7993C94.9408 48.5809 96.4988 46.0326 98.4788 45.0059C99.4321 44.5293 100.532 44.5293 101.467 45.0059C103.465 46.0326 105.024 48.5626 105.024 50.7809V55.9876L114.997 60.2776C116.629 60.9743 117.875 62.8443 117.875 64.6593V67.024C117.875 68.234 117.381 69.2427 116.501 69.8107C115.621 70.3793 114.502 70.434 113.384 69.976L105.024 66.364V70.8927C105.024 70.966 105.097 71.1493 105.152 71.204L109.332 75.4027C110.139 76.2093 110.469 77.6207 110.102 78.7027L109.295 81.1227C108.984 82.0207 108.324 82.736 107.444 83.084C106.582 83.4327 105.629 83.396 104.804 82.9927C104.712 82.9373 104.621 82.8827 104.529 82.8093L100.257 79.216C100.111 79.0873 99.8174 79.106 99.6888 79.216L95.4174 82.8093C95.3441 82.8827 95.2521 82.9373 95.1608 82.974C94.7208 83.2307 94.2254 83.3407 93.7307 83.3407ZM95.5274 63.3393C95.9488 63.3393 96.3521 63.4493 96.7008 63.6876C97.3421 64.1093 97.7088 64.8243 97.7088 65.6673V70.8927C97.7088 71.6807 97.3241 72.616 96.7741 73.166L92.6121 77.346C92.5388 77.4373 92.4654 77.7127 92.5021 77.8227L93.3088 80.2607C93.3641 80.444 93.4921 80.5173 93.5654 80.554C93.6208 80.5727 93.7121 80.6093 93.8221 80.5727L97.9288 77.1073C99.0841 76.1173 100.899 76.1173 102.054 77.1073L106.142 80.554C106.271 80.5727 106.362 80.554 106.417 80.536C106.491 80.4993 106.637 80.426 106.692 80.2427L107.499 77.8227C107.535 77.694 107.462 77.4193 107.389 77.346L103.227 73.166C102.677 72.6527 102.274 71.6993 102.274 70.8927V65.6673C102.274 64.8426 102.622 64.1276 103.245 63.7059C103.869 63.2843 104.675 63.2293 105.445 63.5593L114.465 67.446C114.741 67.556 114.924 67.556 114.979 67.5193C115.034 67.4827 115.107 67.3173 115.107 67.024V64.6593C115.107 63.9626 114.521 63.0643 113.897 62.8076L103.667 58.3893C102.861 58.0409 102.292 57.1609 102.292 56.2809V50.7809C102.292 49.5709 101.339 48.0126 100.239 47.4626C100.092 47.3893 99.9088 47.3893 99.7441 47.4626C98.6808 48.0126 97.7088 49.6076 97.7088 50.7993V56.2993C97.7088 57.1609 97.1408 58.0593 96.3341 58.4076L86.1041 62.8259C85.4621 63.0826 84.8754 63.9809 84.8754 64.6593V67.024C84.8754 67.3173 84.9488 67.4827 85.0041 67.5193C85.0588 67.556 85.2421 67.556 85.5174 67.446L94.5188 63.5593C94.8488 63.4126 95.1974 63.3393 95.5274 63.3393Z" fill="white"/>
<path d="M114.311 61.5654L106.009 57.9921L104.16 57.2099C103.875 57.0677 103.627 56.6944 103.627 56.3744V50.9343C103.627 49.2277 102.364 47.201 100.835 46.4188C100.302 46.1521 99.6621 46.1521 99.1288 46.4188C97.6174 47.201 96.3554 49.2454 96.3554 50.9521V56.3921C96.3554 56.7121 96.1068 57.0854 95.8221 57.2277L85.6888 61.5832C84.5688 62.0454 83.6621 63.4499 83.6621 64.6588V67.0054C83.6621 68.5167 84.8001 69.2634 86.2041 68.6587L95.1108 64.8187C95.8041 64.5165 96.3734 64.8899 96.3734 65.654V67.6274V70.8274C96.3734 71.2367 96.1421 71.8234 95.8574 72.1074L91.7334 76.25C91.3068 76.6767 91.1108 77.512 91.3068 78.1167L92.1068 80.534C92.4268 81.5834 93.6174 82.0807 94.5954 81.5834L98.8268 78.0274C99.4668 77.4767 100.515 77.4767 101.155 78.0274L105.387 81.5834C106.364 82.0634 107.555 81.5834 107.911 80.534L108.711 78.1167C108.907 77.53 108.711 76.6767 108.284 76.25L104.16 72.1074C103.858 71.8234 103.627 71.2367 103.627 70.8274V65.654C103.627 64.8899 104.177 64.5343 104.889 64.8187L113.795 68.6587C115.2 69.2634 116.338 68.5167 116.338 67.0054V64.6588C116.338 63.4499 115.431 62.0454 114.311 61.5654Z" fill="#FF5A00"/>
</svg>
