<svg width="40" height="40" viewBox="0 0 40 40" fill="none" xmlns="http://www.w3.org/2000/svg">
<g id="donut-small">
<path id="Vector" d="M18.333 15.2666V3.33325C9.99967 4.16659 3.33301 11.3166 3.33301 19.9999C3.33301 28.6833 9.99967 35.8333 18.333 36.6666V24.7333C16.6663 24.0499 14.9997 22.1999 14.9997 19.9999C14.9997 17.7999 16.6663 15.9499 18.333 15.2666ZM24.7663 18.3333H36.6663C35.8663 10.4166 29.9997 4.11659 21.6663 3.33325V15.2666C23.333 15.7666 24.1997 16.8999 24.7663 18.3333ZM21.6663 24.7333V36.6666C29.9997 35.8833 35.8663 29.5833 36.6663 21.6666H24.7663C24.1997 23.0999 23.333 24.2333 21.6663 24.7333Z" fill="#FF5A00"/>
</g>
</svg>
