<svg width="24" height="24" viewBox="0 0 24 24" fill="none" xmlns="http://www.w3.org/2000/svg">
<g id="pluse">
<path id="Vector" d="M12.008 3.09643C11.4565 3.09643 11.011 3.54191 11.011 4.09345L11.0039 11.0019L4.08841 11.0019C3.53687 11.0019 3.09139 11.4474 3.09139 11.9989C3.09139 12.5504 3.53687 12.9959 4.08841 12.9959L11.0039 12.9959L11.0039 19.9114C11.0039 20.463 11.4494 20.9084 12.0009 20.9084C12.5525 20.9084 12.998 20.463 12.998 19.9114L12.998 12.9959L19.9135 12.9959C20.465 12.9959 20.9105 12.5504 20.9105 11.9989C20.9105 11.4474 20.465 11.0019 19.9135 11.0019L12.998 11.0019L12.998 4.08638C12.998 3.54898 12.5454 3.09643 12.008 3.09643Z" fill="#307FF8"/>
</g>
</svg>
