<svg width="32" height="32" viewBox="0 0 32 32" fill="none" xmlns="http://www.w3.org/2000/svg">
<g id="flight-takeoff">
<path id="Vector" d="M4.66637 25.3333H27.333C28.0664 25.3333 28.6664 25.9333 28.6664 26.6666C28.6664 27.4 28.0664 28 27.333 28H4.66637C3.93304 28 3.33304 27.4 3.33304 26.6666C3.33304 25.9333 3.93304 25.3333 4.66637 25.3333ZM2.57304 12.8533C2.86637 11.7866 3.95971 11.16 5.02637 11.44L12.1064 13.3333L20.7197 5.30663C21.0797 4.95996 21.5997 4.83996 22.0797 4.97329C22.9864 5.22663 23.413 6.26663 22.9464 7.07996L18.3597 15.0266L24.9864 16.8L27.0797 15.1466C27.413 14.8933 27.8397 14.8 28.253 14.9066L28.693 15.0266C29.1197 15.1333 29.3197 15.6266 29.093 16L26.5864 20.3333C26.2797 20.8533 25.6664 21.1066 25.093 20.96L3.9997 15.3066C2.93304 15.0133 2.29304 13.92 2.57304 12.8533Z" fill="#404A62"/>
</g>
</svg>
