<svg width="48" height="48" viewBox="0 0 48 48" fill="none" xmlns="http://www.w3.org/2000/svg">
<g id="Social Media / Whatsapp">
<path id="Vector" d="M12 35.1114L13.7219 28.7088C12.3332 26.2147 11.892 23.3042 12.4793 20.5115C13.0665 17.7189 14.6429 15.2313 16.919 13.5052C19.1951 11.7792 22.0184 10.9305 24.8708 11.1149C27.7231 11.2993 30.4131 12.5044 32.4473 14.5091C34.4815 16.5137 35.7233 19.1835 35.9449 22.0285C36.1665 24.8735 35.353 27.7028 33.6537 29.9973C31.9544 32.2918 29.4832 33.8976 26.6937 34.52C23.9042 35.1424 20.9835 34.7396 18.4675 33.3856L12 35.1114ZM18.7793 30.9897L19.1793 31.2265C21.0017 32.3049 23.1303 32.7512 25.2333 32.4958C27.3363 32.2404 29.2955 31.2976 30.8058 29.8144C32.3161 28.3312 33.2925 26.391 33.5828 24.2959C33.8732 22.2009 33.4613 20.0688 32.4112 18.232C31.3611 16.3951 29.7319 14.9566 27.7774 14.1406C25.8229 13.3247 23.6529 13.1771 21.6056 13.721C19.5584 14.2648 17.7488 15.4694 16.4589 17.1472C15.169 18.825 14.4713 20.8816 14.4744 22.9966C14.4727 24.7502 14.9585 26.47 15.8778 27.9643L16.1286 28.3772L15.1659 31.9507L18.7793 30.9897Z" fill="#2C160B"/>
<path id="Vector_2" fill-rule="evenodd" clip-rule="evenodd" d="M28.4865 24.6414C28.252 24.4526 27.9775 24.3197 27.6838 24.2529C27.3901 24.186 27.0849 24.187 26.7917 24.2556C26.351 24.4384 26.0663 25.1287 25.7815 25.4739C25.7215 25.5566 25.6333 25.6147 25.5334 25.6371C25.4336 25.6595 25.329 25.6448 25.2392 25.5957C23.6259 24.9649 22.2737 23.8081 21.4021 22.3132C21.3278 22.2199 21.2926 22.1015 21.304 21.9828C21.3153 21.8641 21.3724 21.7545 21.4631 21.677C21.7807 21.3631 22.0139 20.9744 22.1411 20.5467C22.1693 20.075 22.061 19.6051 21.8292 19.1931C21.65 18.6155 21.3089 18.1012 20.8462 17.7109C20.6076 17.6038 20.343 17.5678 20.0844 17.6075C19.8257 17.6471 19.5841 17.7606 19.3886 17.9343C19.0493 18.2265 18.78 18.5911 18.6005 19.001C18.421 19.411 18.3359 19.8559 18.3514 20.3031C18.3525 20.5542 18.3843 20.8042 18.4463 21.0476C18.6037 21.6323 18.8458 22.1909 19.1649 22.7058C19.3952 23.1001 19.6463 23.482 19.9174 23.8496C20.7984 25.057 21.9059 26.0821 23.1783 26.8681C23.8168 27.2675 24.4992 27.5923 25.2121 27.836C25.9526 28.1711 26.7702 28.2997 27.5781 28.2082C28.0384 28.1386 28.4745 27.9572 28.848 27.6799C29.2216 27.4025 29.5211 27.0378 29.7203 26.6177C29.8374 26.3639 29.8729 26.0802 29.822 25.8055C29.7 25.2438 28.9475 24.9121 28.4865 24.6414Z" fill="#2C160B"/>
</g>
</svg>
