<svg width="24" height="24" viewBox="0 0 24 24" fill="none" xmlns="http://www.w3.org/2000/svg">
<path d="M12.88 5.04977C16.06 5.44977 18.55 7.93976 18.95 11.1198C19.01 11.6298 19.44 11.9998 19.94 11.9998C19.98 11.9998 20.02 11.9998 20.06 11.9898C20.61 11.9198 21 11.4198 20.93 10.8698C20.42 6.77977 17.21 3.56977 13.12 3.05977C12.57 2.99977 12.07 3.38977 12.01 3.93977C11.94 4.48977 12.33 4.98977 12.88 5.04977ZM13.26 7.15977C12.73 7.01977 12.18 7.33977 12.04 7.87977C11.9 8.41977 12.22 8.95977 12.76 9.09977C13.81 9.36977 14.63 10.1898 14.91 11.2498C15.03 11.6998 15.43 11.9998 15.88 11.9998C15.96 11.9998 16.05 11.9898 16.13 11.9698C16.66 11.8298 16.98 11.2798 16.85 10.7498C16.38 8.97977 15.01 7.60977 13.26 7.15977ZM19.23 15.2598L16.69 14.9698C16.08 14.8998 15.48 15.1098 15.05 15.5398L13.21 17.3798C10.38 15.9398 8.06004 13.6298 6.62004 10.7898L8.47004 8.93976C8.90004 8.50977 9.11004 7.90977 9.04004 7.29977L8.75004 4.77977C8.63004 3.76977 7.78004 3.00977 6.76004 3.00977H5.03004C3.90004 3.00977 2.96004 3.94977 3.03004 5.07977C3.56004 13.6198 10.39 20.4398 18.92 20.9698C20.05 21.0398 20.99 20.0998 20.99 18.9698V17.2398C21 16.2298 20.24 15.3798 19.23 15.2598Z" fill="#FF5A00"/>
</svg>
