<svg width="28" height="28" viewBox="0 0 28 28" fill="none" xmlns="http://www.w3.org/2000/svg">
<path d="M14.0046 0C8.1597 0 6.4503 0.00603128 6.11802 0.0336028C4.91856 0.133334 4.17217 0.322243 3.35903 0.7272C2.73238 1.03846 2.23817 1.39926 1.75041 1.90502C0.862118 2.82738 0.323758 3.96212 0.128872 5.31097C0.0341201 5.9658 0.00655603 6.09935 0.000957085 9.44412C-0.00119636 10.559 0.000957085 12.0264 0.000957085 13.9945C0.000957085 19.8362 0.00741741 21.5444 0.0354121 21.8761C0.132317 23.0436 0.315359 23.7781 0.702979 24.5816C1.44376 26.1195 2.85857 27.2741 4.52534 27.7049C5.10246 27.8535 5.73988 27.9354 6.55819 27.9742C6.90489 27.9892 10.4387 28 13.9746 28C17.5106 28 21.0465 27.9957 21.3846 27.9785C22.3321 27.9339 22.8823 27.86 23.4907 27.7027C24.3171 27.4907 25.0874 27.1008 25.7476 26.5603C26.4078 26.0197 26.942 25.3414 27.3131 24.5729C27.6931 23.7889 27.8859 23.0263 27.9731 21.9198C27.992 21.6786 28 17.8321 28 13.9908C28 10.1489 27.9914 6.30958 27.9724 6.06833C27.8841 4.94393 27.6914 4.18786 27.2991 3.38872C26.9771 2.73454 26.6196 2.24601 26.1007 1.74649C25.1747 0.861611 24.042 0.323104 22.692 0.12838C22.038 0.0338182 21.9077 0.00581588 18.5613 0H14.0046Z" fill="url(#paint0_radial_1525_19142)"/>
<path d="M14.0007 3.5C11.149 3.5 10.7912 3.51247 9.67115 3.56344C8.55334 3.61463 7.79034 3.79159 7.12272 4.05125C6.43212 4.31944 5.84631 4.67819 5.26269 5.26203C4.67862 5.84566 4.31987 6.43147 4.05081 7.12184C3.7905 7.78969 3.61331 8.55291 3.563 9.67028C3.51313 10.7903 3.5 11.1484 3.5 14C3.5 16.8516 3.51269 17.2084 3.56344 18.3284C3.61484 19.4462 3.79181 20.2092 4.05125 20.8768C4.31966 21.5674 4.67841 22.1532 5.26225 22.7369C5.84566 23.3209 6.43147 23.6806 7.12162 23.9488C7.78969 24.2084 8.55291 24.3854 9.6705 24.4366C10.7905 24.4875 11.1482 24.5 13.9996 24.5C16.8514 24.5 17.2082 24.4875 18.3282 24.4366C19.446 24.3854 20.2099 24.2084 20.8779 23.9488C21.5683 23.6806 22.1532 23.3209 22.7367 22.7369C23.3207 22.1532 23.6795 21.5674 23.9485 20.8771C24.2067 20.2092 24.3838 19.446 24.4363 18.3286C24.4867 17.2086 24.4998 16.8516 24.4998 14C24.4998 11.1484 24.4867 10.7905 24.4363 9.6705C24.3838 8.55269 24.2067 7.78969 23.9485 7.12206C23.6795 6.43147 23.3207 5.84566 22.7367 5.26203C22.1526 4.67797 21.5685 4.31922 20.8773 4.05125C20.2079 3.79159 19.4445 3.61463 18.3267 3.56344C17.2067 3.51247 16.8501 3.5 13.9976 3.5H14.0007ZM13.0587 5.39219C13.3383 5.39175 13.6502 5.39219 14.0007 5.39219C16.8042 5.39219 17.1364 5.40225 18.2435 5.45256C19.2673 5.49938 19.8229 5.67044 20.193 5.81416C20.683 6.00447 21.0324 6.23197 21.3997 6.59947C21.7672 6.96697 21.9947 7.31697 22.1854 7.80697C22.3291 8.17666 22.5004 8.73228 22.547 9.75603C22.5973 10.8629 22.6082 11.1954 22.6082 13.9976C22.6082 16.7998 22.5973 17.1323 22.547 18.2392C22.5002 19.2629 22.3291 19.8185 22.1854 20.1882C21.9951 20.6782 21.7672 21.0271 21.3997 21.3944C21.0322 21.7619 20.6832 21.9894 20.193 22.1797C19.8233 22.3241 19.2673 22.4947 18.2435 22.5415C17.1367 22.5918 16.8042 22.6028 14.0007 22.6028C11.1969 22.6028 10.8647 22.5918 9.75778 22.5415C8.73403 22.4943 8.17841 22.3232 7.80806 22.1795C7.31806 21.9892 6.96806 21.7617 6.60056 21.3942C6.23306 21.0267 6.00556 20.6776 5.81481 20.1873C5.67109 19.8177 5.49981 19.262 5.45322 18.2383C5.40291 17.1314 5.39284 16.7989 5.39284 13.995C5.39284 11.191 5.40291 10.8603 5.45322 9.75341C5.50003 8.72966 5.67109 8.17403 5.81481 7.80391C6.00512 7.31391 6.23306 6.96391 6.60056 6.59641C6.96806 6.22891 7.31806 6.00141 7.80806 5.81066C8.17819 5.66628 8.73403 5.49566 9.75778 5.44863C10.7264 5.40488 11.1018 5.39175 13.0587 5.38956V5.39219ZM19.6055 7.13562C19.3562 7.13562 19.1126 7.20953 18.9054 7.348C18.6982 7.48647 18.5367 7.68328 18.4413 7.91354C18.346 8.14381 18.3211 8.39717 18.3697 8.6416C18.4184 8.88603 18.5384 9.11054 18.7147 9.28673C18.8909 9.46293 19.1155 9.5829 19.3599 9.63147C19.6044 9.68004 19.8577 9.65502 20.088 9.55959C20.3182 9.46415 20.5149 9.30259 20.6533 9.09532C20.7917 8.88806 20.8656 8.64441 20.8655 8.39519C20.8655 7.69956 20.3011 7.13519 19.6055 7.13519V7.13562ZM14.0007 8.60781C11.0228 8.60781 8.60847 11.0222 8.60847 14C8.60847 16.9778 11.0228 19.3911 14.0007 19.3911C16.9785 19.3911 19.3922 16.9778 19.3922 14C19.3922 11.0222 16.9785 8.60781 14.0007 8.60781ZM14.0007 10.5C15.9335 10.5 17.5007 12.0669 17.5007 14C17.5007 15.9329 15.9335 17.5 14.0007 17.5C12.0676 17.5 10.5007 15.9329 10.5007 14C10.5007 12.0669 12.0676 10.5 14.0007 10.5Z" fill="white"/>
<defs>
<radialGradient id="paint0_radial_1525_19142" cx="0" cy="0" r="1" gradientUnits="userSpaceOnUse" gradientTransform="translate(7.43754 30.1566) rotate(-90) scale(27.7501 25.8097)">
<stop stop-color="#FFDD55"/>
<stop offset="0.1" stop-color="#FFDD55"/>
<stop offset="0.5" stop-color="#FF543E"/>
<stop offset="1" stop-color="#C837AB"/>
</radialGradient>
</defs>
</svg>
