<svg width="28" height="28" viewBox="0 0 28 28" fill="none" xmlns="http://www.w3.org/2000/svg">
<rect width="28" height="28" rx="14" fill="url(#paint0_linear_1525_19138)"/>
<path fill-rule="evenodd" clip-rule="evenodd" d="M6.33426 13.8522C10.4155 12.074 13.137 10.9018 14.4987 10.3354C18.3867 8.71827 19.1946 8.43735 19.7211 8.42808C19.837 8.42604 20.0959 8.45474 20.2636 8.59085C20.4053 8.70577 20.4443 8.86102 20.4629 8.96998C20.4815 9.07895 20.5048 9.32716 20.4863 9.52112C20.2756 11.7348 19.364 17.107 18.9002 19.5864C18.7039 20.6355 18.3175 20.9873 17.9434 21.0217C17.1304 21.0965 16.513 20.4844 15.7256 19.9683C14.4934 19.1605 13.7973 18.6577 12.6013 17.8696C11.219 16.9587 12.1151 16.4581 12.9028 15.6399C13.109 15.4258 16.6911 12.1676 16.7604 11.872C16.7691 11.835 16.7771 11.6972 16.6953 11.6245C16.6134 11.5517 16.4926 11.5766 16.4054 11.5964C16.2818 11.6244 14.3134 12.9255 10.5001 15.4995C9.9414 15.8832 9.43532 16.0701 8.98189 16.0604C8.48201 16.0496 7.52046 15.7777 6.80564 15.5454C5.92889 15.2604 5.23207 15.1097 5.29275 14.6257C5.32435 14.3736 5.67152 14.1157 6.33426 13.8522Z" fill="white"/>
<defs>
<linearGradient id="paint0_linear_1525_19138" x1="14" y1="0" x2="14" y2="27.7923" gradientUnits="userSpaceOnUse">
<stop stop-color="#2AABEE"/>
<stop offset="1" stop-color="#229ED9"/>
</linearGradient>
</defs>
</svg>
