<svg width="28" height="28" viewBox="0 0 28 28" fill="none" xmlns="http://www.w3.org/2000/svg">
<g clip-path="url(#clip0_1525_19140)">
<path d="M0 28L1.97899 20.8137C0.755491 18.7044 0.113658 16.3156 0.120344 13.8736C0.120344 6.22148 6.37822 0 14.0602 0C17.7908 0 21.2942 1.44392 23.9217 4.06559C26.5559 6.68726 28.0067 10.174 28 13.8802C28 21.5323 21.7421 27.7538 14.0535 27.7538H14.0468C11.7135 27.7538 9.42024 27.1683 7.38108 26.0637L0 28ZM7.73543 23.5551L8.15663 23.808C9.93504 24.8593 11.9742 25.4116 14.0535 25.4183H14.0602C20.4451 25.4183 25.6466 20.2481 25.6466 13.8869C25.6466 10.8061 24.4432 7.9116 22.2569 5.72909C20.0707 3.54658 17.1557 2.34886 14.0602 2.34886C7.67526 2.34221 2.47373 7.51236 2.47373 13.8736C2.47373 16.0494 3.08214 18.1721 4.24546 20.0086L4.51958 20.4477L3.34957 24.6996L7.73543 23.5551Z" fill="white"/>
<path d="M0.484375 27.5142L2.3965 20.5741C1.21312 18.5447 0.591347 16.2357 0.591347 13.8802C0.598033 6.49427 6.63528 0.485718 14.0565 0.485718C17.6601 0.485718 21.0364 1.88306 23.577 4.41157C26.1176 6.94009 27.5149 10.307 27.5149 13.8869C27.5149 21.2728 21.471 27.2814 14.0565 27.2814H14.0498C11.7967 27.2814 9.5837 26.7158 7.61808 25.6511L0.484375 27.5142Z" fill="url(#paint0_linear_1525_19140)"/>
<path d="M0 28L1.97899 20.8137C0.755491 18.7044 0.113658 16.3156 0.120344 13.8736C0.120344 6.22148 6.37822 0 14.0602 0C17.7908 0 21.2942 1.44392 23.9217 4.06559C26.5559 6.68726 28.0067 10.174 28 13.8802C28 21.5323 21.7421 27.7538 14.0535 27.7538H14.0468C11.7135 27.7538 9.42024 27.1683 7.38108 26.0637L0 28ZM7.73543 23.5551L8.15663 23.808C9.93504 24.8593 11.9742 25.4116 14.0535 25.4183H14.0602C20.4451 25.4183 25.6466 20.2481 25.6466 13.8869C25.6466 10.8061 24.4432 7.9116 22.2569 5.72909C20.0707 3.54658 17.1557 2.34886 14.0602 2.34886C7.67526 2.34221 2.47373 7.51236 2.47373 13.8736C2.47373 16.0494 3.08214 18.1721 4.24546 20.0086L4.51958 20.4477L3.34957 24.6996L7.73543 23.5551Z" fill="url(#paint1_linear_1525_19140)"/>
<path fill-rule="evenodd" clip-rule="evenodd" d="M10.5735 8.07133C10.3128 7.49244 10.0386 7.47913 9.79127 7.47247C9.5907 7.46582 9.35669 7.46582 9.12269 7.46582C8.88869 7.46582 8.51429 7.55232 8.19337 7.89833C7.87245 8.24434 6.97656 9.08274 6.97656 10.7928C6.97656 12.4962 8.2268 14.1464 8.40063 14.3793C8.57446 14.6122 10.8142 18.2253 14.351 19.616C17.2927 20.7738 17.8944 20.5409 18.5296 20.481C19.1647 20.4211 20.5888 19.6426 20.883 18.8308C21.1704 18.0191 21.1704 17.327 21.0835 17.1807C20.9966 17.0343 20.7626 16.9478 20.4149 16.7748C20.0673 16.6018 18.3557 15.7633 18.0348 15.6436C17.7139 15.5305 17.4799 15.4706 17.2526 15.8166C17.0186 16.1626 16.35 16.9411 16.1494 17.174C15.9489 17.4069 15.7416 17.4335 15.3939 17.2605C15.0463 17.0875 13.9231 16.7215 12.5926 15.5371C11.5563 14.6189 10.8543 13.481 10.6537 13.135C10.4532 12.789 10.6337 12.6027 10.8075 12.4297C10.9613 12.2767 11.1552 12.0238 11.329 11.8242C11.5028 11.6246 11.563 11.4782 11.6767 11.2453C11.7903 11.0124 11.7368 10.8128 11.6499 10.6398C11.563 10.4734 10.881 8.7567 10.5735 8.07133Z" fill="white"/>
</g>
<defs>
<linearGradient id="paint0_linear_1525_19140" x1="13.9989" y1="27.5129" x2="13.9989" y2="0.484772" gradientUnits="userSpaceOnUse">
<stop stop-color="#20B038"/>
<stop offset="1" stop-color="#60D66A"/>
</linearGradient>
<linearGradient id="paint1_linear_1525_19140" x1="14.0027" y1="27.9974" x2="14.0027" y2="0" gradientUnits="userSpaceOnUse">
<stop stop-color="#F9F9F9"/>
<stop offset="1" stop-color="white"/>
</linearGradient>
<clipPath id="clip0_1525_19140">
<rect width="28" height="28" fill="white"/>
</clipPath>
</defs>
</svg>
