<svg width="24" height="24" viewBox="0 0 24 24" fill="none" xmlns="http://www.w3.org/2000/svg">
<g id="vuesax/bold/ticket-2">
<g id="ticket-2">
<path id="Vector" d="M17.1888 4.96C17.1888 4.97 17.1888 4.97 17.1888 4.98C16.9388 4.97 16.6887 4.96 16.4187 4.96H8.71875L9.78875 3.9C10.7687 2.91 11.8488 2 13.0988 2C14.3588 2 15.4387 2.91 16.4187 3.9L16.9787 4.46C17.1187 4.59 17.1888 4.77 17.1888 4.96Z" fill="#1C0E07"/>
<path id="Vector_2" d="M20.8409 13.17C21.2309 13.17 21.5409 12.85 21.5409 12.45V11.57C21.5409 7.63995 20.3409 6.44995 16.4209 6.44995H10.1209H7.58094C3.66094 6.44995 2.46094 7.64995 2.46094 11.57V12C2.46094 12.4 2.77094 12.71 3.16094 12.71C4.00094 12.71 4.67094 13.39 4.67094 14.22C4.67094 15.05 4.00094 15.74 3.16094 15.74C2.77094 15.74 2.46094 16.05 2.46094 16.45V16.88C2.46094 20.81 3.66094 22 7.58094 22H10.1109H16.4109C20.3309 22 21.5309 20.8 21.5309 16.88C21.5309 16.49 21.2209 16.17 20.8309 16.17C19.9909 16.17 19.3209 15.5 19.3209 14.67C19.3309 13.84 20.0009 13.17 20.8409 13.17ZM10.8209 18.86C10.8209 19.25 10.5009 19.57 10.1109 19.57C9.72094 19.57 9.40094 19.25 9.40094 18.86V16.18C9.40094 15.79 9.72094 15.47 10.1109 15.47C10.5009 15.47 10.8209 15.79 10.8209 16.18V18.86ZM10.8209 12.27C10.8209 12.66 10.5009 12.98 10.1109 12.98C9.72094 12.98 9.40094 12.66 9.40094 12.27V9.58995C9.40094 9.19995 9.72094 8.87995 10.1109 8.87995C10.5009 8.87995 10.8209 9.19995 10.8209 9.58995V12.27Z" fill="#1C0E07"/>
</g>
</g>
</svg>
