<svg width="24" height="24" viewBox="0 0 24 24" fill="none" xmlns="http://www.w3.org/2000/svg">
<g id="visa icon">
<path id="Subtract" fill-rule="evenodd" clip-rule="evenodd" d="M2 3H22C23.1 3 24 3.9 24 5L23.99 19C23.99 20.1 23.1 21 22 21H2C0.9 21 0 20.1 0 19V5C0 3.9 0.9 3 2 3ZM11 9C11 7.34 9.66 6 8 6C6.34 6 5 7.34 5 9C5 10.66 6.34 12 8 12C9.66 12 11 10.66 11 9ZM2 17V18H14V17C14 15 10 13.9 8 13.9C6 13.9 2 15 2 17ZM16 8.5C15.7239 8.5 15.5 8.72386 15.5 9C15.5 9.27614 15.7239 9.5 16 9.5H22C22.2761 9.5 22.5 9.27614 22.5 9C22.5 8.72386 22.2761 8.5 22 8.5H16ZM16 11.5C15.7239 11.5 15.5 11.7239 15.5 12C15.5 12.2761 15.7239 12.5 16 12.5H22C22.2761 12.5 22.5 12.2761 22.5 12C22.5 11.7239 22.2761 11.5 22 11.5H16ZM16 14.5C15.7239 14.5 15.5 14.7239 15.5 15C15.5 15.2761 15.7239 15.5 16 15.5H22C22.2761 15.5 22.5 15.2761 22.5 15C22.5 14.7239 22.2761 14.5 22 14.5H16Z" fill="#1C0E07"/>
</g>
</svg>
