<svg width="24" height="24" viewBox="0 0 24 24" fill="none" xmlns="http://www.w3.org/2000/svg">
<g id="visa icon">
<path id="Union" fill-rule="evenodd" clip-rule="evenodd" d="M2 3H22C23.1 3 24 3.9 24 5L23.99 19C23.99 20.1 23.1 21 22 21H2C0.9 21 0 20.1 0 19V5C0 3.9 0.9 3 2 3ZM2 5V19H22V5H2ZM12 9C12 10.65 10.65 12 9 12C7.35 12 6 10.65 6 9C6 7.35 7.35 6 9 6C10.65 6 12 7.35 12 9ZM10 9C10 8.45 9.55 8 9 8C8.45 8 8 8.45 8 9C8 9.55 8.45 10 9 10C9.55 10 10 9.55 10 9ZM9 13.01C11.03 13.01 15 14.09 15 16.59V18H3V16.59C3 14.09 6.97 13.01 9 13.01ZM9 15C7.7 15 6.22 15.5 5.48 16H12.52C11.77 15.49 10.3 15 9 15ZM16 8.5C15.7239 8.5 15.5 8.72386 15.5 9C15.5 9.27614 15.7239 9.5 16 9.5H21C21.2761 9.5 21.5 9.27614 21.5 9C21.5 8.72386 21.2761 8.5 21 8.5H16ZM16 11.5C15.7239 11.5 15.5 11.7239 15.5 12C15.5 12.2761 15.7239 12.5 16 12.5H21C21.2761 12.5 21.5 12.2761 21.5 12C21.5 11.7239 21.2761 11.5 21 11.5H16ZM16 14.5C15.7239 14.5 15.5 14.7239 15.5 15C15.5 15.2761 15.7239 15.5 16 15.5H21C21.2761 15.5 21.5 15.2761 21.5 15C21.5 14.7239 21.2761 14.5 21 14.5H16Z" fill="#A69F9B"/>
</g>
</svg>
